<svg width="240" height="160" viewBox="0 0 240 160" fill="none" xmlns="http://www.w3.org/2000/svg">
<g opacity="0.3">
<path d="M70.3626 39.1236L34.4583 63.1412L69.8238 116.01L105.728 91.9919L70.3626 39.1236Z" fill="#F5F5F5"/>
<path d="M87.1744 89.4913L86.768 92.0129L68.9184 89.4401L69.3248 86.9185L87.1744 89.4913Z" fill="#E0E0E0"/>
<path d="M78.1856 80.496L80.7456 80.864L77.9072 98.4384L75.344 98.0672L78.1856 80.496Z" fill="#E0E0E0"/>
<path d="M61.76 58.16C61.7856 58.1952 58.1888 60.6496 53.7248 63.632C49.2608 66.6144 45.6224 69.008 45.5968 68.9696C45.5712 68.9312 49.168 66.48 53.632 63.4944C58.096 60.5088 61.7184 58.1216 61.76 58.16Z" fill="#E0E0E0"/>
<path d="M74.9504 54.8448C74.976 54.8832 68.992 58.928 61.5872 63.8816C54.1824 68.8352 48.1472 72.8192 48.128 72.784C48.1088 72.7488 54.08 68.6976 61.4944 63.744C68.9088 58.7904 74.9248 54.8064 74.9504 54.8448Z" fill="#E0E0E0"/>
<path d="M77.5968 58.8C77.6224 58.8384 71.6384 62.8864 64.2336 67.84C56.8288 72.7936 50.7936 76.7776 50.7744 76.7392C50.7552 76.7008 56.7328 72.656 64.1408 67.6992C71.5488 62.7424 77.5712 58.7616 77.5968 58.8Z" fill="#E0E0E0"/>
<path d="M80.2432 62.7585C80.2688 62.7969 74.2848 66.8449 66.88 71.7953C59.4752 76.7457 53.44 80.7361 53.44 80.6977C53.44 80.6593 59.3952 76.6113 66.8032 71.6577C74.2112 66.7041 80.2176 62.7201 80.2432 62.7585Z" fill="#E0E0E0"/>
<path d="M82.88 66.7168C82.9056 66.7552 76.9216 70.8 69.5168 75.7536C62.112 80.7072 56.0768 84.6912 56.0608 84.6528C56.0448 84.6144 62.0256 80.5696 69.44 75.616C76.8544 70.6624 82.88 66.6784 82.88 66.7168Z" fill="#E0E0E0"/>
<path d="M190.422 74.5487L160.268 94.7197L189.969 139.119L220.123 118.948L190.422 74.5487Z" fill="#F5F5F5"/>
<path d="M204.544 116.858L204.202 118.976L189.21 116.816L189.555 114.698L204.544 116.858Z" fill="#E0E0E0"/>
<path d="M196.995 109.302L199.146 109.613L196.762 124.371L194.608 124.061L196.995 109.302Z" fill="#E0E0E0"/>
<path d="M183.187 90.56C183.213 90.5984 180.195 92.6624 176.445 95.168C172.694 97.6736 169.635 99.6768 169.61 99.648C169.584 99.6192 172.605 97.5488 176.352 95.04C180.099 92.5312 183.162 90.5056 183.187 90.56Z" fill="#E0E0E0"/>
<path d="M194.275 87.76C194.301 87.7984 189.28 91.2032 183.075 95.36C176.87 99.5168 171.792 102.864 171.766 102.826C171.741 102.787 176.762 99.3824 182.966 95.2224C189.171 91.0624 194.24 87.7216 194.275 87.76Z" fill="#E0E0E0"/>
<path d="M196.499 91.0816C196.525 91.12 191.504 94.5248 185.299 98.6848C179.094 102.845 174.016 106.186 173.99 106.147C173.965 106.109 178.97 102.72 185.19 98.56C191.411 94.4 196.48 91.0464 196.499 91.0816Z" fill="#E0E0E0"/>
<path d="M198.72 94.4C198.746 94.4384 193.722 97.8432 187.52 102.003C181.318 106.163 176.237 109.504 176.211 109.466C176.186 109.427 181.206 106.026 187.411 101.862C193.616 97.6992 198.698 94.368 198.72 94.4Z" fill="#E0E0E0"/>
<path d="M200.96 97.7312C200.986 97.7696 195.965 101.171 189.76 105.331C183.555 109.491 178.477 112.832 178.451 112.797C178.426 112.762 183.446 109.354 189.651 105.194C195.856 101.034 200.918 97.6928 200.96 97.7312Z" fill="#E0E0E0"/>
<path d="M142.717 41.0687L109.816 23.4713L83.904 71.918L116.806 89.5154L142.717 41.0687Z" fill="#F5F5F5"/>
<path d="M111.174 74.3583L109.088 75.0719L103.789 60.4255L105.878 59.7087L111.174 74.3583Z" fill="#E0E0E0"/>
<path d="M114.374 63.8496L115.136 65.952L100.589 70.9344L99.8272 68.832L114.374 63.8496Z" fill="#E0E0E0"/>
<path d="M124.71 42.2401C124.685 42.2881 121.35 40.5537 117.258 38.3681C113.165 36.1825 109.872 34.3681 109.898 34.3201C109.923 34.2721 113.261 36.0065 117.354 38.1921C121.446 40.3777 124.736 42.1889 124.71 42.2401Z" fill="#E0E0E0"/>
<path d="M132.608 50.9536C132.582 51.0016 127.059 48.096 120.272 44.4672C113.485 40.8384 108.006 37.856 108.032 37.808C108.058 37.76 113.578 40.6624 120.365 44.2944C127.152 47.9264 132.634 50.9056 132.608 50.9536Z" fill="#E0E0E0"/>
<path d="M130.669 54.5792C130.643 54.6272 125.12 51.7248 118.333 48.0928C111.546 44.4608 106.067 41.4816 106.093 41.4336C106.118 41.3856 111.638 44.2912 118.426 47.92C125.213 51.5488 130.694 54.5312 130.669 54.5792Z" fill="#E0E0E0"/>
<path d="M128.73 58.2048C128.704 58.2528 123.181 55.3504 116.394 51.7216C109.606 48.0928 104.128 45.12 104.154 45.0624C104.179 45.0048 109.699 47.9168 116.486 51.5456C123.274 55.1744 128.755 58.1568 128.73 58.2048Z" fill="#E0E0E0"/>
<path d="M126.79 61.8304C126.765 61.8784 121.242 58.976 114.454 55.3472C107.667 51.7184 102.186 48.736 102.214 48.688C102.243 48.64 107.76 51.5424 114.547 55.1712C121.334 58.8 126.816 61.7824 126.79 61.8304Z" fill="#E0E0E0"/>
<path opacity="0.2" d="M126.96 0H126.134V14.0736H126.96V0Z" fill="black"/>
<path d="M107.274 31.1008H145.821C145.821 31.1008 142.262 14.08 126.256 14.08C112.019 14.08 107.274 31.1008 107.274 31.1008Z" fill="#47BCF7"/>
<path d="M126.96 0H126.134V14.0736H126.96V0Z" fill="#47BCF7"/>
<path d="M212.374 140.746C212.374 140.79 171.014 140.829 120.003 140.829C68.992 140.829 27.6256 140.8 27.6256 140.746C27.6256 140.691 68.9792 140.662 120.003 140.662C171.027 140.662 212.374 140.698 212.374 140.746Z" fill="#263238"/>
<path d="M37.8528 120.704C38.3938 120.743 38.9215 120.891 39.4042 121.138C39.8869 121.385 40.3148 121.728 40.6624 122.144C41.3536 122.982 41.843 123.967 42.0928 125.024C42.6336 127.046 42.3008 129.437 41.7248 131.45C39.536 130.666 38.1824 128.33 37.5648 127.101C36.6048 125.162 36.032 121.066 37.8432 120.701" fill="#47BCF7"/>
<path d="M44.8768 133.904C44.5482 133.394 44.3602 132.807 44.3321 132.201C44.304 131.595 44.4368 130.992 44.7168 130.454C45.0057 129.922 45.3978 129.452 45.8704 129.072C46.3429 128.692 46.8863 128.411 47.4688 128.243C48.0032 128.077 48.624 128.01 49.088 128.32C49.2972 128.478 49.4601 128.69 49.5597 128.932C49.6594 129.175 49.6921 129.44 49.6544 129.699C49.5705 130.219 49.3496 130.707 49.0144 131.114C47.9488 132.557 46.656 133.757 44.8544 133.904" fill="#47BCF7"/>
<path d="M45.12 140.666C45.0725 140.53 45.0393 140.389 45.0208 140.246C44.9632 139.946 44.8864 139.558 44.7936 139.094C44.5064 137.824 44.4264 136.515 44.5568 135.219C44.7077 133.917 45.2037 132.678 45.9936 131.632C46.2349 131.319 46.5132 131.037 46.8224 130.79C46.9064 130.724 46.994 130.662 47.0848 130.605C47.1137 130.581 47.1461 130.561 47.1808 130.547C46.776 130.893 46.4063 131.278 46.0768 131.696C45.3286 132.743 44.8574 133.963 44.7072 135.242C44.5024 136.733 44.7552 138.099 44.9024 139.082C44.9792 139.571 45.0432 139.968 45.0784 140.243C45.1036 140.383 45.1175 140.524 45.12 140.666Z" fill="#263238"/>
<path d="M38.5568 123.786C38.5934 123.836 38.6235 123.891 38.6464 123.949C38.704 124.077 38.7808 124.237 38.8704 124.438C39.0656 124.864 39.3376 125.482 39.6672 126.246C40.3264 127.779 41.2096 129.91 42.1312 132.285C43.0528 134.659 43.8368 136.826 44.3712 138.403C44.6464 139.19 44.8608 139.83 45.0112 140.275C45.0784 140.486 45.1296 140.656 45.1712 140.787C45.1941 140.846 45.2102 140.907 45.2192 140.97C45.1868 140.915 45.161 140.857 45.1424 140.797C45.0944 140.669 45.0336 140.502 44.9536 140.294L44.2784 138.438C43.7056 136.874 42.9056 134.71 41.9872 132.339C41.0688 129.968 40.1984 127.83 39.5648 126.288C39.2448 125.53 38.9984 124.912 38.816 124.461C38.7328 124.256 38.6656 124.093 38.6144 123.962C38.5904 123.905 38.5711 123.846 38.5568 123.786Z" fill="#263238"/>
<path d="M42.5184 136.192C41.86 135.096 40.9501 134.172 39.8639 133.497C38.7777 132.822 37.5465 132.415 36.272 132.31C35.632 132.266 34.8448 132.374 34.5568 132.95C34.2688 133.526 34.6528 134.23 35.0944 134.698C36.0327 135.679 37.2405 136.361 38.5657 136.657C39.8908 136.953 41.274 136.85 42.5408 136.362" fill="#47BCF7"/>
<path d="M37.2576 134.045C37.3933 134.038 37.5293 134.043 37.664 134.061C37.8218 134.069 37.9789 134.087 38.1344 134.115C38.3168 134.15 38.5312 134.17 38.7552 134.234C39.0056 134.287 39.2525 134.355 39.4944 134.438C39.7748 134.528 40.0494 134.635 40.3168 134.758C40.932 135.034 41.5139 135.379 42.0512 135.786C42.5824 136.202 43.0635 136.679 43.4848 137.206C43.6668 137.436 43.8346 137.676 43.9872 137.926C44.1252 138.142 44.2513 138.366 44.3648 138.595C44.461 138.782 44.5465 138.975 44.6208 139.171C44.685 139.317 44.7395 139.466 44.784 139.619C44.8314 139.747 44.8668 139.879 44.8896 140.013C44.8544 140.013 44.7008 139.462 44.2688 138.643C44.1512 138.423 44.022 138.21 43.8816 138.003C43.7257 137.761 43.5569 137.527 43.376 137.302C42.5391 136.268 41.4717 135.444 40.2592 134.896C39.9808 134.774 39.7152 134.659 39.456 134.576C39.2181 134.489 38.9756 134.416 38.7296 134.355C37.8336 134.109 37.2544 134.08 37.2576 134.045Z" fill="#263238"/>
<path d="M182.515 33.7536C181.574 33.968 181.117 35.0528 181.027 36.0128C180.938 36.9728 181.059 37.9904 180.656 38.8672C180.202 39.8528 179.117 40.5824 179.082 41.6672C179.059 42.3296 179.453 42.9472 179.434 43.616C179.402 44.704 178.294 45.536 178.234 46.6112C178.192 47.3952 178.714 48.144 178.589 48.9184C178.493 49.52 178.022 49.9936 177.824 50.5696C177.43 51.7216 178.221 52.9856 179.248 53.632C179.823 53.9938 180.471 54.2256 181.145 54.3112C181.82 54.3967 182.505 54.334 183.152 54.1274C183.8 53.9208 184.394 53.5752 184.895 53.1149C185.395 52.6546 185.788 52.0907 186.048 51.4624C186.618 50.08 186.493 48.5216 186.368 47.0336C185.984 42.3915 185.698 37.7429 185.51 33.088" fill="#263238"/>
<path d="M179.782 50.1312C179.976 50.0109 180.127 49.833 180.214 49.6224C180.307 49.3719 180.344 49.1045 180.323 48.8384C180.288 48.4856 180.21 48.1384 180.09 47.8048C179.937 47.3854 179.88 46.9371 179.923 46.4928C180.003 45.9936 180.362 45.584 180.685 45.1808C180.859 44.9835 181.004 44.7626 181.117 44.5248C181.23 44.2843 181.248 44.0102 181.168 43.7568C181.002 43.2352 180.49 42.8512 180.256 42.2464C180.146 41.947 180.128 41.6216 180.205 41.312C180.277 41.0217 180.385 40.7413 180.525 40.4768C180.795 40.0005 181.01 39.4948 181.165 38.9696C181.389 37.9552 181.283 36.9856 181.437 36.1888C181.522 35.5506 181.805 34.9552 182.246 34.4864C182.371 34.3601 182.513 34.2523 182.669 34.1664C182.722 34.1385 182.779 34.118 182.838 34.1056C182.638 34.216 182.454 34.3539 182.291 34.5152C181.882 34.9887 181.625 35.5739 181.552 36.1952C181.496 36.6196 181.466 37.0471 181.462 37.4752C181.461 37.979 181.412 38.4816 181.315 38.976C181.163 39.5132 180.948 40.0309 180.675 40.5184C180.435 41.0208 180.214 41.6096 180.426 42.16C180.637 42.7104 181.146 43.0912 181.341 43.68C181.429 43.9709 181.407 44.284 181.28 44.56C181.155 44.8217 180.994 45.0642 180.8 45.28C180.48 45.6832 180.131 46.0672 180.054 46.5152C180.01 46.9401 180.06 47.3697 180.202 47.7728C180.316 48.1168 180.387 48.4737 180.413 48.8352C180.429 49.1136 180.379 49.3919 180.269 49.648C180.2 49.8085 180.09 49.9477 179.949 50.0512C179.899 50.0878 179.842 50.115 179.782 50.1312Z" fill="#455A64"/>
<path d="M177.28 57.7184L174.4 66.0384L162.355 66.6784L160.346 71.1584L172.922 72.4384C173.516 72.6823 174.153 72.8033 174.795 72.7939C175.438 72.7846 176.071 72.6451 176.658 72.384C177.245 72.1229 177.773 71.7456 178.21 71.2748C178.647 70.8039 178.983 70.2495 179.2 69.6448L182.557 60.2752L177.28 57.7184Z" fill="#B78876"/>
<path d="M202.179 136.224C202.179 136.224 193.354 108.186 193.165 107.277C192.995 106.451 196.365 86.2753 196.794 81.0369L184.867 81.4817V81.6001L179.798 81.8817L184.336 139.2H189.824L189.28 120.176C192.666 129.261 197.517 138.522 197.517 138.522L202.179 136.224Z" fill="#B78876"/>
<path d="M189.504 127.002C189.504 126.829 189.437 120.627 189.437 120.627C189.37 120.998 187.334 115.245 187.382 114.896C187.408 114.714 189.504 127.002 189.504 127.002Z" fill="#A36957"/>
<path d="M187.152 112.17C187.124 112.284 187.112 112.401 187.117 112.518C187.099 112.838 187.099 113.159 187.117 113.478C187.117 113.68 187.146 113.898 187.171 114.134C187.197 114.371 187.232 114.621 187.286 114.88C187.4 115.446 187.551 116.004 187.738 116.55C188.134 117.712 188.576 118.726 188.886 119.462C189.034 119.782 189.162 120.086 189.27 120.33C189.31 120.443 189.363 120.55 189.43 120.65C189.413 120.539 189.381 120.431 189.334 120.33C189.261 120.118 189.149 119.814 189.014 119.44C188.733 118.691 188.31 117.667 187.917 116.518C187.731 115.98 187.578 115.431 187.459 114.874C187.402 114.618 187.363 114.371 187.328 114.141C187.293 113.91 187.267 113.693 187.251 113.501C187.213 113.104 187.197 112.784 187.187 112.56C187.193 112.429 187.181 112.297 187.152 112.17Z" fill="#A36957"/>
<path d="M184.234 139.491V138.976L189.856 138.73L189.872 140.858L189.526 140.88C187.981 140.97 181.67 141.232 180.64 140.922C179.485 140.576 184.234 139.491 184.234 139.491Z" fill="#455A64"/>
<path d="M189.946 140.73C189.914 140.732 189.882 140.732 189.85 140.73L189.574 140.749L188.557 140.794C187.699 140.829 186.512 140.861 185.203 140.867C183.894 140.874 182.704 140.851 181.843 140.826L180.829 140.784H180.55H180.454C180.486 140.781 180.518 140.781 180.55 140.784H180.829L181.846 140.803C182.704 140.803 183.891 140.829 185.2 140.822C186.509 140.816 187.699 140.794 188.557 140.771L189.574 140.746H189.946V140.73Z" fill="#263238"/>
<path d="M182.4 140.909C182.353 140.741 182.289 140.579 182.208 140.426C182.107 140.284 181.99 140.154 181.859 140.038C182.034 140.101 182.179 140.226 182.266 140.39C182.371 140.541 182.419 140.726 182.4 140.909Z" fill="#263238"/>
<path d="M184.058 140.067C184.058 140.067 183.965 139.981 183.882 139.853C183.798 139.725 183.747 139.613 183.763 139.603C183.779 139.594 183.856 139.686 183.939 139.814C184.022 139.942 184.074 140.058 184.058 140.067Z" fill="#263238"/>
<path d="M184.512 139.84C184.512 139.856 184.41 139.795 184.314 139.709C184.218 139.622 184.147 139.542 184.16 139.53C184.173 139.517 184.262 139.574 184.358 139.661C184.454 139.747 184.525 139.811 184.512 139.84Z" fill="#263238"/>
<path d="M184.797 139.296C184.703 139.331 184.602 139.344 184.502 139.334C184.404 139.347 184.305 139.338 184.211 139.306C184.304 139.271 184.404 139.258 184.502 139.267C184.601 139.254 184.702 139.264 184.797 139.296Z" fill="#263238"/>
<path d="M184.893 138.925C184.797 138.987 184.686 139.02 184.573 139.021C184.464 139.035 184.353 139.02 184.253 138.976C184.359 138.958 184.466 138.95 184.573 138.95C184.678 138.932 184.786 138.923 184.893 138.925Z" fill="#263238"/>
<path d="M183.869 139.578C183.749 139.6 183.627 139.6 183.507 139.578C183.378 139.562 183.25 139.534 183.126 139.494C183.05 139.473 182.975 139.443 182.906 139.405C182.863 139.38 182.831 139.34 182.816 139.293C182.81 139.266 182.812 139.238 182.822 139.213C182.831 139.187 182.848 139.165 182.87 139.149C182.959 139.106 183.056 139.083 183.155 139.082C183.253 139.081 183.35 139.102 183.44 139.144C183.529 139.185 183.608 139.246 183.671 139.321C183.735 139.397 183.78 139.486 183.805 139.581C183.811 139.613 183.811 139.645 183.805 139.677C183.769 139.561 183.712 139.453 183.638 139.357C183.553 139.261 183.442 139.192 183.318 139.158C183.177 139.113 183.023 139.124 182.89 139.19C182.835 139.232 182.858 139.299 182.918 139.338C182.984 139.373 183.052 139.402 183.123 139.424C183.244 139.464 183.366 139.495 183.491 139.517C183.731 139.568 183.869 139.568 183.869 139.578Z" fill="#263238"/>
<path d="M183.776 139.597C183.729 139.522 183.713 139.433 183.731 139.347C183.743 139.253 183.777 139.163 183.83 139.085C183.86 139.031 183.903 138.986 183.955 138.954C184.007 138.921 184.067 138.903 184.128 138.899C184.164 138.908 184.196 138.929 184.217 138.96C184.238 138.991 184.246 139.029 184.24 139.066C184.232 139.123 184.211 139.178 184.179 139.226C184.131 139.305 184.074 139.379 184.01 139.446C183.954 139.51 183.884 139.56 183.805 139.59C183.805 139.59 183.875 139.526 183.974 139.411C184.032 139.345 184.082 139.273 184.125 139.197C184.173 139.12 184.208 138.982 184.125 138.966C184.042 138.95 183.946 139.05 183.891 139.12C183.84 139.189 183.805 139.269 183.789 139.354C183.776 139.434 183.771 139.515 183.776 139.597Z" fill="#263238"/>
<path d="M189.827 139.2C189.827 139.2 189.667 139.2 189.414 139.216C189.085 139.255 188.774 139.386 188.515 139.594C188.257 139.802 188.062 140.077 187.952 140.39C187.869 140.63 187.862 140.794 187.85 140.79C187.837 140.787 187.85 140.749 187.85 140.678C187.858 140.575 187.877 140.473 187.907 140.374C188.009 140.047 188.205 139.756 188.47 139.539C188.739 139.326 189.066 139.198 189.408 139.171C189.514 139.158 189.622 139.158 189.728 139.171C189.762 139.177 189.796 139.186 189.827 139.2Z" fill="#263238"/>
<path d="M187.136 140.282C186.868 140.344 186.592 140.371 186.317 140.362C186.043 140.375 185.768 140.352 185.501 140.291C185.501 140.272 185.866 140.291 186.317 140.291C186.768 140.291 187.133 140.262 187.136 140.282Z" fill="#263238"/>
<path d="M188.23 140.272C188.23 140.272 188.202 140.349 188.163 140.432C188.125 140.515 188.106 140.592 188.086 140.589C188.067 140.586 188.058 140.502 188.102 140.403C188.147 140.304 188.218 140.256 188.23 140.272Z" fill="#263238"/>
<path d="M188.643 139.757C188.643 139.757 188.621 139.827 188.563 139.885C188.506 139.942 188.448 139.981 188.432 139.968C188.416 139.955 188.454 139.898 188.512 139.837C188.57 139.776 188.627 139.741 188.643 139.757Z" fill="#263238"/>
<path d="M189.232 139.52C189.232 139.539 189.155 139.539 189.072 139.568C188.989 139.597 188.931 139.642 188.915 139.629C188.899 139.616 188.947 139.539 189.05 139.504C189.152 139.469 189.238 139.501 189.232 139.52Z" fill="#263238"/>
<path d="M189.651 139.405C189.651 139.424 189.629 139.453 189.581 139.469C189.533 139.485 189.491 139.488 189.485 139.469C189.478 139.45 189.51 139.421 189.555 139.405C189.6 139.389 189.645 139.389 189.651 139.405Z" fill="#263238"/>
<path d="M197.405 138.995L197.194 138.525L202.221 136L203.107 137.92L202.787 138.083C201.414 138.797 195.766 141.619 194.698 141.76C193.517 141.93 197.405 138.995 197.405 138.995Z" fill="#455A64"/>
<path d="M203.126 137.782L203.043 137.834L202.797 137.962L201.888 138.422C201.12 138.803 200.051 139.318 198.858 139.862C197.664 140.406 196.57 140.87 195.776 141.2L194.832 141.581L194.576 141.68C194.546 141.694 194.515 141.703 194.483 141.709L194.57 141.667L194.822 141.555L195.757 141.155C196.547 140.816 197.635 140.342 198.829 139.798C200.022 139.254 201.094 138.749 201.869 138.378L202.784 137.939L203.037 137.821L203.126 137.782Z" fill="#263238"/>
<path d="M196.326 141.037C196.216 140.902 196.09 140.779 195.952 140.672C195.802 140.583 195.642 140.512 195.475 140.461C195.659 140.458 195.839 140.512 195.991 140.615C196.143 140.718 196.26 140.865 196.326 141.037Z" fill="#263238"/>
<path d="M197.482 139.59C197.482 139.59 197.36 139.552 197.232 139.469C197.104 139.386 197.011 139.306 197.021 139.29C197.03 139.274 197.142 139.328 197.27 139.411C197.398 139.494 197.491 139.574 197.482 139.59Z" fill="#263238"/>
<path d="M197.795 139.2C197.795 139.216 197.686 139.2 197.562 139.162C197.437 139.123 197.344 139.075 197.347 139.056C197.428 139.048 197.51 139.062 197.584 139.094C197.706 139.123 197.802 139.168 197.795 139.2Z" fill="#263238"/>
<path d="M197.84 138.586C197.84 138.605 197.734 138.672 197.587 138.742C197.502 138.793 197.407 138.825 197.309 138.835C197.309 138.816 197.414 138.749 197.558 138.678C197.645 138.628 197.741 138.596 197.84 138.586Z" fill="#263238"/>
<path d="M197.776 138.208C197.776 138.208 197.683 138.336 197.517 138.429C197.423 138.493 197.311 138.526 197.197 138.525C197.289 138.463 197.386 138.411 197.488 138.368C197.645 138.282 197.76 138.192 197.776 138.208Z" fill="#263238"/>
<path d="M197.12 139.226C197.023 139.293 196.914 139.342 196.8 139.373C196.674 139.409 196.546 139.436 196.416 139.453C196.337 139.463 196.258 139.463 196.179 139.453C196.13 139.449 196.084 139.426 196.051 139.389C196.036 139.366 196.028 139.339 196.028 139.312C196.028 139.285 196.036 139.258 196.051 139.235C196.148 139.117 196.284 139.037 196.434 139.008C196.584 138.979 196.739 139.002 196.874 139.075C196.953 139.117 197.023 139.175 197.078 139.245C197.117 139.296 197.133 139.328 197.13 139.331C197.051 139.243 196.956 139.171 196.851 139.117C196.739 139.064 196.613 139.045 196.49 139.062C196.416 139.07 196.345 139.092 196.28 139.127C196.216 139.162 196.158 139.21 196.112 139.267C196.077 139.328 196.112 139.379 196.198 139.389C196.272 139.395 196.346 139.395 196.419 139.389C196.547 139.376 196.673 139.354 196.797 139.322C196.979 139.27 197.12 139.216 197.12 139.226Z" fill="#263238"/>
<path d="M197.03 139.28C196.959 139.229 196.909 139.154 196.89 139.069C196.862 138.979 196.855 138.883 196.87 138.79C196.876 138.729 196.897 138.67 196.932 138.619C196.967 138.568 197.014 138.527 197.069 138.499C197.149 138.474 197.334 138.637 197.347 138.698C197.36 138.758 197.254 138.726 197.248 138.778C197.238 138.868 197.216 138.958 197.184 139.043C197.161 139.125 197.117 139.2 197.056 139.261C197.056 139.261 197.094 139.174 197.139 139.03C197.162 138.945 197.178 138.859 197.187 138.771C197.187 138.682 197.187 138.544 197.085 138.566C196.982 138.589 196.954 138.714 196.931 138.803C196.912 138.886 196.912 138.973 196.931 139.056C196.958 139.133 196.991 139.208 197.03 139.28Z" fill="#263238"/>
<path d="M202.39 136.435C202.39 136.435 202.237 136.49 202.019 136.621C201.735 136.791 201.503 137.037 201.35 137.331C201.202 137.628 201.139 137.96 201.168 138.291C201.187 138.547 201.248 138.694 201.235 138.701C201.215 138.669 201.198 138.635 201.187 138.598C201.156 138.5 201.133 138.4 201.12 138.298C201.074 137.957 201.133 137.61 201.289 137.304C201.445 136.997 201.691 136.746 201.994 136.582C202.084 136.532 202.18 136.492 202.278 136.461C202.314 136.447 202.352 136.438 202.39 136.435Z" fill="#263238"/>
<path d="M200.378 138.528C199.926 138.842 199.422 139.072 198.89 139.206C198.89 139.187 199.226 139.059 199.635 138.886C200.045 138.714 200.368 138.512 200.378 138.528Z" fill="#263238"/>
<path d="M201.373 138.07C201.389 138.07 201.373 138.15 201.373 138.243C201.373 138.336 201.373 138.413 201.373 138.419C201.373 138.426 201.309 138.349 201.309 138.243C201.309 138.138 201.357 138.061 201.373 138.07Z" fill="#263238"/>
<path d="M201.536 137.43C201.552 137.43 201.536 137.504 201.517 137.581C201.498 137.658 201.45 137.715 201.434 137.709C201.418 137.702 201.434 137.635 201.453 137.558C201.472 137.482 201.517 137.424 201.536 137.43Z" fill="#263238"/>
<path d="M201.978 136.96C201.978 136.979 201.914 137.008 201.85 137.069C201.786 137.13 201.75 137.194 201.734 137.187C201.718 137.181 201.734 137.091 201.805 137.018C201.875 136.944 201.974 136.96 201.978 136.96Z" fill="#263238"/>
<path d="M202.314 136.698C202.314 136.698 202.314 136.749 202.275 136.784C202.237 136.819 202.202 136.838 202.189 136.826C202.176 136.813 202.189 136.774 202.227 136.739C202.266 136.704 202.301 136.685 202.314 136.698Z" fill="#263238"/>
<path d="M196.019 71.5648L195.085 60.1408L199.885 60.2272C199.885 60.2272 200.106 58.5408 199.398 54.848C198.963 52.5824 197.456 51.1936 195.763 50.368V50.336L195.616 50.2976C194.223 49.672 192.734 49.2837 191.213 49.1488L185.309 49.216C185.309 49.216 180.8 48.64 178.314 51.8688C177.354 53.1072 174.374 61.584 174.374 61.584L181.462 64.9952L180.8 60.2944C180.8 60.2944 180.934 63.7024 181.37 64.7744C181.61 65.376 182.33 67.2448 182.33 67.2448L182.237 72.8832L196.019 71.5648Z" fill="#47BCF7"/>
<path d="M192.765 58.4832L191.888 62.2144H200.154L199.61 55.9552L192.765 58.4832Z" fill="#47BCF7"/>
<path d="M200.154 62.2144C199.792 62.1478 199.426 62.1114 199.059 62.1056C198.381 62.0672 197.459 62.032 196.41 62.0384C195.36 62.0448 194.435 62.0896 193.757 62.1408C193.39 62.1535 193.025 62.1985 192.666 62.2752C193.032 62.3043 193.4 62.3043 193.766 62.2752C194.442 62.2528 195.366 62.2272 196.41 62.224C197.453 62.2208 198.378 62.224 199.056 62.24C199.422 62.2605 199.789 62.2519 200.154 62.2144Z" fill="#263238"/>
<path d="M192.406 55.9264C192.367 56.2448 192.358 56.5663 192.381 56.8864C192.381 57.472 192.406 58.2784 192.442 59.1712C192.477 60.064 192.518 60.8736 192.557 61.456C192.558 61.7786 192.593 62.1003 192.659 62.416C192.698 62.0976 192.707 61.7761 192.685 61.456C192.685 60.8704 192.659 60.0608 192.624 59.168C192.589 58.2752 192.547 57.4688 192.509 56.8832C192.507 56.5616 192.473 56.241 192.406 55.9264Z" fill="#263238"/>
<g opacity="0.3">
<path d="M184.886 59.1584C184.886 59.1584 186.723 72.7808 191.888 72.4192C191.888 72.4192 194.214 72.3936 194.96 70.848V70.24L184.886 59.1584Z" fill="black"/>
</g>
<g opacity="0.3">
<path d="M192.406 56.7296L191.418 63.408L192.058 64.5792L193.114 62.288L192.666 62.2752L192.406 56.7296Z" fill="black"/>
</g>
<path d="M182.301 67.2512C182.239 67.1515 182.192 67.0438 182.16 66.9312C182.08 66.7232 181.974 66.4192 181.84 66.0384C181.52 65.0462 181.256 64.0366 181.05 63.0144C180.844 61.9917 180.714 60.9554 180.659 59.9136C180.64 59.5136 180.634 59.1904 180.64 58.9536C180.632 58.8379 180.639 58.7217 180.662 58.608C180.688 58.608 180.707 59.1008 180.774 59.888C180.864 60.9203 181.011 61.9469 181.213 62.9632C181.45 64.1536 181.734 65.2192 181.952 65.984C182.054 66.3392 182.141 66.6432 182.211 66.8928C182.255 67.0083 182.285 67.1286 182.301 67.2512Z" fill="#263238"/>
<path d="M184.387 71.1648C184.342 71.1648 184.214 70.8864 184.102 70.5248C184.006 70.3032 183.963 70.062 183.978 69.8208C184.119 70.0163 184.216 70.2401 184.262 70.4768C184.354 70.6941 184.397 70.9291 184.387 71.1648Z" fill="#263238"/>
<path d="M185.101 71.1136C184.859 70.4717 184.849 69.7654 185.072 69.1168C185.097 69.4492 185.097 69.7829 185.072 70.1152C185.107 70.4468 185.117 70.7806 185.101 71.1136Z" fill="#263238"/>
<path d="M181.606 65.152C181.584 65.1904 179.936 64.4096 177.923 63.4048C175.91 62.4 174.294 61.5488 174.314 61.5072C174.333 61.4656 175.984 62.2496 177.997 63.2544C180.01 64.2592 181.626 65.1104 181.606 65.152Z" fill="#263238"/>
<path d="M184.512 50.3201C184.547 48.7009 184.557 46.9985 184.557 46.9985C184.557 46.9985 182.48 46.5985 182.118 43.8657C181.773 41.2609 182.739 35.1457 182.739 35.1457C185.773 34.0001 188.925 35.0401 191.002 37.4977L190.486 50.6401C190.426 52.1665 189.066 53.3313 187.434 53.2545C185.782 53.1745 184.477 51.8625 184.512 50.3201Z" fill="#B78876"/>
<path d="M182.579 40.032C182.576 40.1217 182.608 40.2091 182.667 40.2763C182.727 40.3435 182.81 40.3855 182.899 40.3936C182.945 40.398 182.99 40.393 183.034 40.3791C183.077 40.3652 183.118 40.3426 183.152 40.3127C183.186 40.2827 183.214 40.2461 183.234 40.205C183.254 40.1639 183.265 40.1192 183.267 40.0736C183.27 39.9842 183.238 39.8972 183.179 39.8305C183.119 39.7638 183.036 39.7225 182.947 39.7152C182.902 39.7083 182.855 39.7113 182.811 39.724C182.766 39.7368 182.725 39.7589 182.69 39.789C182.655 39.8191 182.627 39.8564 182.608 39.8983C182.589 39.9403 182.579 39.9859 182.579 40.032Z" fill="#263238"/>
<path d="M182.451 39.5744C182.493 39.6192 182.771 39.4304 183.139 39.4432C183.507 39.456 183.779 39.648 183.824 39.6032C183.869 39.5584 183.805 39.5008 183.686 39.408C183.526 39.292 183.334 39.2282 183.136 39.2256C182.941 39.2182 182.749 39.2744 182.589 39.3856C182.47 39.472 182.429 39.552 182.451 39.5744Z" fill="#263238"/>
<path d="M186.39 40.2688C186.387 40.3587 186.418 40.4465 186.478 40.5139C186.537 40.5813 186.621 40.623 186.71 40.6304C186.756 40.6373 186.803 40.6343 186.848 40.6213C186.892 40.6084 186.933 40.5859 186.968 40.5555C187.003 40.525 187.031 40.4874 187.05 40.445C187.069 40.4027 187.079 40.3568 187.078 40.3104C187.082 40.2208 187.051 40.1334 186.991 40.0665C186.931 39.9996 186.848 39.9586 186.758 39.952C186.713 39.9451 186.666 39.9481 186.622 39.9608C186.578 39.9736 186.537 39.9958 186.502 40.0258C186.467 40.0559 186.439 40.0932 186.419 40.1352C186.4 40.1771 186.39 40.2227 186.39 40.2688Z" fill="#263238"/>
<path d="M186.365 39.8113C186.406 39.8593 186.685 39.6705 187.053 39.6801C187.421 39.6897 187.693 39.8849 187.741 39.8401C187.789 39.7953 187.718 39.7377 187.6 39.6481C187.442 39.5289 187.25 39.4638 187.053 39.4625C186.857 39.4566 186.665 39.5126 186.502 39.6225C186.387 39.7089 186.346 39.7889 186.365 39.8113Z" fill="#263238"/>
<path d="M184.931 42.56C184.735 42.4924 184.53 42.4505 184.323 42.4352C184.227 42.4352 184.138 42.4 184.125 42.336C184.117 42.2359 184.142 42.1361 184.195 42.0512L184.496 41.3312C184.776 40.7192 185.006 40.0857 185.184 39.4368C184.856 40.0247 184.576 40.6379 184.346 41.2704C184.246 41.5232 184.147 41.7664 184.054 41.9968C183.992 42.1111 183.972 42.2435 183.997 42.3712C184.009 42.4059 184.03 42.4372 184.056 42.4627C184.083 42.4882 184.115 42.5073 184.15 42.5184C184.203 42.5337 184.258 42.5423 184.314 42.544C184.518 42.5754 184.725 42.5808 184.931 42.56Z" fill="#263238"/>
<path d="M184.557 46.9984C185.837 47.0497 187.106 46.7451 188.224 46.1184C188.224 46.1184 187.293 47.9648 184.576 47.6416L184.557 46.9984Z" fill="#A36957"/>
<path d="M187.568 38.72C187.491 38.8384 187.203 38.7872 186.883 38.72C186.563 38.6528 186.282 38.5984 186.243 38.4608C186.205 38.3232 186.541 38.1408 186.97 38.2272C187.398 38.3136 187.645 38.6176 187.568 38.72Z" fill="#263238"/>
<path d="M183.834 38.1761C183.805 38.3137 183.498 38.3649 183.146 38.3809C182.794 38.3969 182.483 38.3808 182.442 38.24C182.4 38.0992 182.698 37.9008 183.123 37.8816C183.549 37.8624 183.862 38.0449 183.834 38.1761Z" fill="#263238"/>
<path d="M184.938 43.4592C184.897 43.4496 184.855 43.4538 184.817 43.4712C184.779 43.4887 184.749 43.5182 184.73 43.5552C184.711 43.5878 184.702 43.6246 184.702 43.662C184.703 43.6994 184.713 43.736 184.732 43.7682C184.751 43.8004 184.778 43.8272 184.81 43.8457C184.843 43.8643 184.879 43.8741 184.917 43.8741C184.954 43.8741 184.991 43.8643 185.023 43.8457C185.056 43.8272 185.083 43.8004 185.102 43.7682C185.121 43.736 185.131 43.6994 185.131 43.662C185.132 43.6246 185.122 43.5878 185.104 43.5552C185.081 43.5122 185.044 43.4783 184.999 43.4591C184.955 43.4399 184.905 43.4365 184.858 43.4496" fill="#A36957"/>
<path d="M185.024 43.4976C185.024 43.4816 184.963 43.3888 184.8 43.424C184.751 43.4368 184.707 43.4621 184.671 43.4975C184.635 43.5329 184.609 43.5771 184.595 43.6256C184.578 43.6869 184.58 43.7519 184.599 43.8123C184.619 43.8727 184.657 43.9258 184.707 43.9648C184.76 44.0013 184.823 44.0208 184.888 44.0208C184.953 44.0208 185.016 44.0013 185.069 43.9648C185.111 43.9362 185.145 43.8959 185.165 43.8489C185.186 43.8018 185.192 43.7499 185.184 43.6992C185.152 43.5296 185.027 43.504 185.021 43.5264C185.014 43.5488 185.066 43.6064 185.056 43.7056C185.054 43.7302 185.046 43.7538 185.032 43.7744C185.019 43.7951 185.001 43.8121 184.979 43.824C184.954 43.8384 184.926 43.8459 184.898 43.8459C184.869 43.8459 184.841 43.8384 184.816 43.824C184.794 43.8051 184.777 43.7807 184.767 43.7532C184.756 43.7258 184.754 43.6961 184.758 43.6672C184.762 43.642 184.772 43.618 184.787 43.5973C184.802 43.5767 184.822 43.56 184.845 43.5488C184.934 43.4944 185.014 43.52 185.024 43.4976Z" fill="#263238"/>
<path d="M189.76 40.7072C189.44 41.456 188.646 42.0352 188.755 42.8448C188.826 43.3664 189.162 43.8528 189.098 44.3776C189.014 45.0176 188.333 45.4912 188.234 46.1472C188.115 46.9504 188.899 47.5744 189.21 48.3232C189.667 49.4176 189.085 50.6464 189.069 51.8432C189.088 52.7518 189.435 53.6228 190.047 54.2948C190.659 54.9667 191.494 55.3941 192.397 55.4976C193.126 55.5584 193.949 55.3376 194.317 54.7104C194.637 54.192 194.566 53.5328 194.752 52.96C195.034 52.1024 195.85 51.4752 196.032 50.592C196.352 48.992 194.4 47.648 194.528 46.0096C194.582 45.3088 195.014 44.7008 195.197 44.0224C195.313 43.5766 195.322 43.1095 195.223 42.6596C195.124 42.2096 194.92 41.7895 194.627 41.4336C194.144 40.8608 193.446 40.4736 193.027 39.8592C192.563 39.152 192.547 38.2592 192.387 37.424C192.172 36.4088 191.704 35.4647 191.025 34.6799C190.346 33.895 189.479 33.2951 188.506 32.9362C187.532 32.5772 186.483 32.471 185.458 32.6274C184.432 32.7837 183.462 33.1976 182.64 33.8304C182.64 33.8304 182.176 35.9392 184.342 36.2944C186.509 36.6496 187.51 36.24 187.754 37.1072C187.696 37.4644 187.724 37.8302 187.836 38.1745C187.947 38.5188 188.138 38.8318 188.394 39.088C189.277 40.0416 190.118 39.8368 189.76 40.7072Z" fill="#263238"/>
<path d="M193.2 55.3344C193.133 55.3367 193.067 55.3303 193.002 55.3152C192.814 55.282 192.63 55.2316 192.451 55.1648C191.79 54.9115 191.211 54.4835 190.774 53.9264C190.468 53.5421 190.228 53.1095 190.064 52.6464C189.877 52.119 189.779 51.5643 189.773 51.0048C189.766 50.3881 189.844 49.7734 190.003 49.1776C190.09 48.863 190.197 48.5541 190.323 48.2528C190.455 47.9529 190.572 47.6464 190.672 47.3344C190.76 47.027 190.76 46.701 190.672 46.3936C190.578 46.091 190.457 45.7975 190.31 45.5168C190.162 45.2385 190.037 44.9485 189.936 44.6496C189.837 44.3539 189.814 44.0382 189.869 43.7312C189.997 43.1296 190.362 42.6816 190.579 42.224C190.786 41.8004 190.885 41.3321 190.867 40.8608C190.838 40.1712 190.588 39.5093 190.154 38.9728C189.985 38.7849 189.805 38.6085 189.613 38.4448C189.837 38.5709 190.038 38.7355 190.205 38.9312C190.671 39.4669 190.946 40.1423 190.986 40.8512C191.012 41.343 190.915 41.8336 190.704 42.2784C190.483 42.752 190.128 43.2032 190.019 43.7536C189.91 44.304 190.17 44.8832 190.454 45.44C190.61 45.7287 190.736 46.0321 190.832 46.3456C190.926 46.6804 190.926 47.0348 190.832 47.3696C190.726 47.6925 190.603 48.0097 190.464 48.32C190.338 48.6148 190.231 48.9173 190.144 49.2256C189.985 49.8063 189.907 50.406 189.91 51.008C189.901 52.0333 190.231 53.0328 190.851 53.8496C191.266 54.3997 191.817 54.8312 192.451 55.1008C192.928 55.2864 193.203 55.3152 193.2 55.3344Z" fill="#455A64"/>
<path d="M192.88 39.1872C192.724 39.2276 192.564 39.2512 192.403 39.2576C191.964 39.3046 191.521 39.2927 191.085 39.2224C190.754 39.1735 190.437 39.0591 190.151 38.8861C189.866 38.713 189.617 38.4846 189.421 38.2144C189.238 37.8726 189.092 37.5121 188.986 37.1392C188.849 36.7668 188.592 36.4504 188.256 36.24C187.555 35.7952 186.733 35.7408 186.016 35.6544C185.355 35.6215 184.713 35.4211 184.15 35.072C183.774 34.8224 183.502 34.4432 183.386 34.0064C183.358 33.888 183.35 33.7658 183.363 33.6448C183.363 33.5616 183.382 33.52 183.389 33.52C183.393 33.6785 183.413 33.8362 183.45 33.9904C183.582 34.3989 183.854 34.7477 184.218 34.976C184.77 35.2982 185.393 35.4785 186.032 35.5008C186.749 35.584 187.6 35.6256 188.349 36.0992C188.715 36.3293 188.994 36.675 189.142 37.0816C189.243 37.445 189.381 37.7969 189.555 38.1312C189.928 38.6425 190.486 38.9872 191.11 39.0912C191.532 39.1696 191.962 39.1986 192.39 39.1776C192.554 39.1684 192.717 39.1717 192.88 39.1872Z" fill="#455A64"/>
<path d="M192.086 36.5824C191.966 36.6227 191.839 36.6411 191.712 36.6368C191.116 36.6408 190.541 36.4111 190.112 35.9968C189.916 35.8005 189.749 35.5775 189.616 35.3344C189.328 34.848 189.05 34.2496 188.451 34C187.875 33.8066 187.261 33.7528 186.659 33.8432C186.152 33.9144 185.637 33.9144 185.13 33.8432C184.777 33.7942 184.444 33.6479 184.17 33.4208C184.099 33.3589 184.036 33.2879 183.984 33.2096C183.946 33.1541 183.93 33.1253 183.936 33.1232C183.936 33.1232 184.026 33.2256 184.211 33.3696C184.485 33.5642 184.803 33.6874 185.136 33.728C185.634 33.7841 186.138 33.7755 186.634 33.7024C187.261 33.5999 187.904 33.6548 188.506 33.8624C188.815 34.0012 189.079 34.2227 189.27 34.5024C189.439 34.7518 189.594 35.0104 189.734 35.2768C189.861 35.5093 190.017 35.7245 190.198 35.9168C190.359 36.0794 190.544 36.2164 190.746 36.3232C191.043 36.4786 191.37 36.5691 191.706 36.5888C191.952 36.5856 192.083 36.5664 192.086 36.5824Z" fill="#455A64"/>
<path d="M194.154 54.6432C194.138 54.6432 194.24 54.432 194.358 54.0352C194.519 53.4781 194.59 52.8993 194.57 52.32C194.546 51.4625 194.312 50.6239 193.888 49.8784C193.654 49.4592 193.299 49.0848 193.008 48.624C192.854 48.3892 192.745 48.1276 192.688 47.8528C192.638 47.5635 192.662 47.2661 192.758 46.9888C192.938 46.4352 193.258 45.9712 193.328 45.4624C193.398 44.9536 193.155 44.5024 192.912 44.0768C192.787 43.8697 192.672 43.656 192.57 43.4368C192.476 43.2241 192.415 42.9987 192.387 42.768C192.357 42.3613 192.37 41.9527 192.426 41.5488C192.528 40.9778 192.475 40.3898 192.272 39.8464C192.181 39.656 192.053 39.4861 191.894 39.3472C191.894 39.3472 191.91 39.3472 191.933 39.3664C191.971 39.3852 192.005 39.41 192.035 39.44C192.16 39.5442 192.262 39.6741 192.333 39.8208C192.564 40.3689 192.636 40.9711 192.541 41.5584C192.497 41.9548 192.491 42.3545 192.525 42.752C192.604 43.1991 192.781 43.6231 193.043 43.9936C193.18 44.2098 193.296 44.438 193.392 44.6752C193.493 44.9312 193.526 45.209 193.488 45.4816C193.411 46.0416 193.082 46.5152 192.915 47.0368C192.828 47.2884 192.805 47.5579 192.848 47.8208C192.904 48.075 193.006 48.3169 193.149 48.5344C193.421 48.9792 193.789 49.36 194.022 49.7984C194.451 50.5691 194.68 51.4349 194.688 52.3168C194.698 52.9071 194.607 53.4947 194.419 54.0544C194.368 54.2058 194.306 54.3534 194.234 54.496C194.214 54.5486 194.187 54.5982 194.154 54.6432Z" fill="#455A64"/>
<path d="M181.12 114.269C181.12 114.269 178.963 93.84 178.838 86.2912C178.714 78.7424 182.234 71.2928 182.234 71.2928L196.019 70.72C196.019 70.72 198.746 78.3776 198.794 81.6C198.89 87.8528 197.133 94.0256 197.334 98.9856L197.795 114.282" fill="#263238"/>
<path d="M198.259 89.152C198.187 89.2144 198.111 89.2722 198.032 89.3248L197.907 89.4112L197.773 89.5424C197.654 89.6449 197.547 89.7596 197.453 89.8848C197.008 90.4288 196.685 91.4048 196.374 92.6176C196.216 93.2903 195.982 93.943 195.677 94.5632C195.584 94.733 195.477 94.8947 195.357 95.0464C195.299 95.1232 195.245 95.2064 195.178 95.28L194.966 95.4912C194.664 95.7739 194.313 95.9994 193.93 96.1568C193.158 96.496 192.285 96.656 191.491 97.056C190.678 97.4934 190.05 98.2091 189.722 99.072C189.331 99.9392 189.082 100.848 188.762 101.699C188.442 102.55 188.01 103.363 187.322 103.882C186.664 104.339 185.883 104.585 185.082 104.589C184.339 104.634 183.651 104.611 183.034 104.704C182.478 104.762 181.946 104.962 181.491 105.286C181.159 105.546 180.91 105.898 180.774 106.298C180.689 106.55 180.67 106.82 180.72 107.082C180.758 107.261 180.806 107.347 180.797 107.35C180.745 107.27 180.708 107.181 180.688 107.088C180.621 106.821 180.629 106.541 180.714 106.278C180.841 105.859 181.092 105.487 181.434 105.213C181.9 104.861 182.453 104.64 183.034 104.573C183.674 104.47 184.355 104.483 185.088 104.435C185.866 104.43 186.623 104.189 187.261 103.744C187.908 103.179 188.385 102.446 188.64 101.626C188.96 100.784 189.194 99.872 189.6 98.9888C189.944 98.0904 190.601 97.3463 191.45 96.8928C192.275 96.4832 193.149 96.3264 193.901 96C194.269 95.8476 194.607 95.6309 194.899 95.36L195.101 95.1584C195.165 95.088 195.219 95.008 195.277 94.9344C195.39 94.7889 195.489 94.6336 195.574 94.4704C195.881 93.8587 196.118 93.2147 196.282 92.5504C196.602 91.3408 196.95 90.352 197.421 89.8048C197.514 89.6801 197.622 89.5663 197.741 89.4656C197.792 89.4208 197.837 89.376 197.882 89.3408L198.013 89.2576C198.093 89.2174 198.175 89.1822 198.259 89.152Z" fill="#FAFAFA"/>
<path d="M198.342 79.6992C198.357 79.7891 198.363 79.8802 198.362 79.9712C198.361 80.2354 198.328 80.4986 198.266 80.7552C197.99 81.6913 197.449 82.5273 196.707 83.1616C196.218 83.6115 195.681 84.0074 195.107 84.3424C194.49 84.7072 193.808 85.056 193.107 85.4528C192.371 85.8475 191.686 86.3299 191.066 86.8896C190.43 87.5206 189.906 88.2554 189.517 89.0624C189.124 89.8804 188.676 90.6705 188.176 91.4272C187.922 91.7799 187.627 92.102 187.299 92.3872C186.976 92.6625 186.62 92.8978 186.24 93.088C185.553 93.4258 184.836 93.7011 184.099 93.9104C183.414 94.1216 182.774 94.3104 182.218 94.5504C181.712 94.7515 181.231 95.0091 180.784 95.3184C180.447 95.5519 180.145 95.8308 179.885 96.1472C179.667 96.4216 179.485 96.7227 179.344 97.0432C179.367 96.9545 179.397 96.8679 179.434 96.784C179.538 96.5423 179.673 96.3144 179.834 96.1056C180.089 95.7758 180.391 95.4848 180.73 95.2416C181.179 94.9213 181.663 94.6529 182.173 94.4416C182.789 94.1904 183.418 93.9715 184.058 93.7856C184.784 93.5713 185.491 93.2951 186.17 92.96C186.53 92.7721 186.868 92.5446 187.178 92.2816C187.493 92.0005 187.777 91.6849 188.022 91.3408C188.516 90.5878 188.96 89.8032 189.35 88.992C189.752 88.167 190.293 87.4178 190.95 86.7776C191.581 86.2096 192.28 85.7216 193.03 85.3248C193.734 84.9312 194.416 84.5888 195.034 84.2272C195.606 83.9034 196.143 83.5194 196.634 83.0816C197.369 82.4663 197.915 81.6552 198.208 80.7424C198.29 80.4005 198.335 80.0508 198.342 79.6992Z" fill="#FAFAFA"/>
<path d="M178.909 87.36C178.896 87.3402 178.886 87.3186 178.88 87.296C178.856 87.2343 178.836 87.1712 178.819 87.1072C178.764 86.8526 178.775 86.5883 178.851 86.3392C179.03 85.6992 179.738 84.8768 180.877 84.4704C181.446 84.2752 182.09 84.1504 182.762 83.984C183.32 83.8915 183.848 83.6669 184.301 83.3291C184.755 82.9912 185.121 82.5497 185.37 82.0416C185.552 81.6686 185.711 81.285 185.846 80.8928C186.097 80.041 186.437 79.2182 186.861 78.4384C187.347 77.6718 188.085 77.0982 188.947 76.816C189.732 76.5613 190.533 76.3582 191.344 76.208C192.068 76.0689 192.769 75.8299 193.427 75.4976C193.985 75.1791 194.465 74.7422 194.835 74.2176C195.382 73.4601 195.693 72.5587 195.731 71.6256C195.733 71.2831 195.71 70.9409 195.664 70.6016C195.761 70.934 195.805 71.2795 195.795 71.6256C195.783 72.5789 195.482 73.5061 194.931 74.2848C194.557 74.8267 194.066 75.2782 193.494 75.6064C192.828 75.951 192.116 76.1999 191.379 76.3456C190.575 76.4981 189.782 76.7023 189.005 76.9568C188.177 77.2281 187.468 77.779 187.002 78.5152C186.584 79.2844 186.249 80.0952 186 80.9344C185.862 81.3337 185.698 81.7238 185.51 82.1024C185.321 82.4661 185.079 82.8002 184.794 83.0944C184.232 83.6069 183.54 83.9555 182.794 84.1024C182.115 84.2752 181.475 84.384 180.915 84.5696C179.805 84.9472 179.101 85.7248 178.912 86.3456C178.834 86.585 178.814 86.8391 178.851 87.088C178.878 87.1768 178.898 87.2678 178.909 87.36Z" fill="#FAFAFA"/>
<path d="M197.158 104.64C197.171 104.706 197.179 104.774 197.181 104.842C197.187 105.035 197.166 105.229 197.12 105.418C196.919 106.112 196.494 106.719 195.91 107.146C195.521 107.456 195.09 107.71 194.63 107.901C194.141 108.109 193.6 108.275 193.03 108.451C192.439 108.624 191.861 108.838 191.299 109.091C190.716 109.37 190.193 109.76 189.76 110.24C189.293 110.726 188.89 111.261 188.442 111.734C188.013 112.193 187.515 112.582 186.966 112.886C186.032 113.396 184.987 113.669 183.923 113.68C183.211 113.688 182.502 113.57 181.83 113.331C181.648 113.268 181.471 113.192 181.299 113.104C181.237 113.078 181.178 113.045 181.123 113.005C181.188 113.023 181.251 113.045 181.312 113.072C181.488 113.147 181.667 113.213 181.85 113.27C182.52 113.481 183.221 113.579 183.923 113.562C184.964 113.535 185.983 113.257 186.893 112.752C187.425 112.451 187.907 112.07 188.323 111.622C188.762 111.155 189.162 110.624 189.638 110.125C190.097 109.627 190.649 109.225 191.264 108.941C191.834 108.686 192.421 108.472 193.021 108.301C193.584 108.128 194.122 107.981 194.621 107.77C195.067 107.587 195.487 107.345 195.869 107.05C196.442 106.645 196.87 106.066 197.088 105.398C197.135 105.148 197.159 104.894 197.158 104.64Z" fill="#FAFAFA"/>
<path d="M195.587 62.2272L192.918 62.2912C192.816 62.8294 192.612 63.343 192.317 63.8048C190.077 59.9328 188.358 54.7488 187.93 52.6656C187.994 52.4576 188.067 52.2272 188.16 51.9712C188.227 51.5824 188.215 51.1842 188.125 50.8C188.048 50.336 187.92 49.712 187.882 49.424C187.763 48.5408 187.619 48.4032 187.312 48.5024C186.896 48.64 187.485 50.976 187.142 51.0272C186.957 51.0528 186.733 50.2528 186.669 49.5968C186.605 48.9408 186.304 46.9184 186.09 46.784C185.77 46.5856 185.491 46.8992 185.574 47.552C185.658 48.2048 185.757 50.1888 185.411 50.2176C185.066 50.2464 184.771 46.8928 184.771 46.8928C184.771 46.8928 184.826 46.1632 184.422 46.1792C183.699 46.2112 184.266 49.744 184.326 50.08C184.371 50.3104 184.006 50.3552 183.962 50.1024C183.917 49.8496 183.75 46.752 183.002 46.7776C182.432 46.7776 183.44 49.6864 183.12 50.3584C182.8 51.0304 182.582 48.08 182.042 48.1184C181.84 48.1344 181.69 48.1728 182.061 49.84C182.416 51.1647 182.844 52.469 183.341 53.7472C184.198 58.3712 187.962 73.1648 193.859 70.4576C197.162 68.9408 198.499 62.2272 198.499 62.2272H195.587Z" fill="#B78876"/>
<path d="M184.211 50.304C184.236 50.3103 184.263 50.3103 184.288 50.304C184.327 50.2922 184.36 50.267 184.381 50.233C184.403 50.199 184.412 50.1583 184.406 50.1184C184.406 49.92 184.368 49.632 184.323 49.2576C184.248 48.8064 184.199 48.3512 184.176 47.8944C184.176 47.6256 184.176 47.3376 184.192 47.0336C184.197 46.879 184.213 46.725 184.24 46.5728C184.266 46.4288 184.362 46.2528 184.474 46.2816H184.493C184.605 46.2816 184.694 46.3648 184.73 46.4992C184.769 46.6385 184.784 46.7835 184.774 46.928C184.84 47.8242 184.955 48.7161 185.117 49.6C185.142 49.7184 185.168 49.84 185.206 49.9616C185.223 50.0238 185.245 50.0848 185.27 50.144C185.287 50.1769 185.305 50.209 185.325 50.24C185.339 50.2634 185.359 50.2831 185.382 50.2975C185.405 50.312 185.432 50.3208 185.459 50.3232C185.506 50.3181 185.55 50.2992 185.586 50.269C185.622 50.2388 185.648 50.1986 185.661 50.1536C185.688 50.091 185.709 50.0255 185.722 49.9584C185.747 49.8294 185.764 49.699 185.773 49.568C185.802 49.0348 185.794 48.5002 185.75 47.968C185.71 47.7023 185.699 47.4329 185.718 47.1648C185.73 47.049 185.786 46.9423 185.875 46.8672C185.896 46.855 185.919 46.8473 185.942 46.8445C185.966 46.8417 185.99 46.844 186.013 46.8512C186.04 46.8577 186.066 46.8685 186.09 46.8832C186.106 46.8953 186.118 46.9121 186.125 46.9312C186.226 47.1907 186.3 47.4598 186.346 47.7344C186.403 48.016 186.451 48.3072 186.496 48.5984C186.541 48.8896 186.582 49.184 186.618 49.4816C186.645 49.7887 186.694 50.0934 186.765 50.3936C186.803 50.547 186.851 50.6978 186.909 50.8448C186.941 50.9271 186.987 51.0037 187.043 51.072C187.065 51.1004 187.094 51.122 187.127 51.1345C187.161 51.1469 187.197 51.1497 187.232 51.1424C187.264 51.1317 187.294 51.1128 187.316 51.0876C187.339 51.0624 187.356 51.0316 187.363 50.9984C187.401 50.8349 187.413 50.6664 187.398 50.4992C187.398 50.3392 187.379 50.1792 187.363 50.0256C187.341 49.7568 187.315 49.4912 187.306 49.2288C187.298 49.0998 187.298 48.9705 187.306 48.8416C187.312 48.7845 187.326 48.7285 187.347 48.6752C187.354 48.6576 187.364 48.6413 187.376 48.6272H187.418C187.629 48.5408 187.699 48.8352 187.757 49.072C187.814 49.3088 187.837 49.5776 187.888 49.8304C187.971 50.3328 188.08 50.8352 188.134 51.3152C188.171 51.545 188.163 51.7799 188.109 52.0064C188.032 52.2368 187.955 52.464 187.882 52.6912V52.7136V52.7328C188.256 54.3049 188.734 55.8506 189.312 57.36C189.818 58.7264 190.326 59.92 190.771 60.88C191.216 61.84 191.619 62.592 191.894 63.0976L192.214 63.6704C192.249 63.7386 192.291 63.803 192.339 63.8624C192.312 63.7913 192.279 63.7228 192.24 63.6576L191.92 63.072C191.658 62.5568 191.28 61.792 190.845 60.832C190.41 59.872 189.917 58.6784 189.424 57.312C188.86 55.8049 188.392 54.2637 188.022 52.6976V52.7424C188.096 52.5184 188.17 52.2912 188.246 52.064C188.313 51.8146 188.326 51.554 188.285 51.2992C188.227 50.7968 188.122 50.3104 188.038 49.8048C187.99 49.5552 187.958 49.2992 187.907 49.0368C187.904 48.902 187.881 48.7683 187.84 48.64C187.804 48.5619 187.741 48.4987 187.664 48.4608C187.582 48.4339 187.493 48.4339 187.411 48.4608H187.36C187.333 48.4695 187.308 48.4836 187.286 48.5024C187.251 48.5325 187.223 48.571 187.206 48.6144C187.177 48.6836 187.159 48.7571 187.152 48.832C187.142 48.9705 187.142 49.1095 187.152 49.248C187.152 49.5168 187.19 49.7856 187.213 50.0544C187.213 50.2112 187.238 50.3744 187.245 50.5184C187.258 50.6627 187.25 50.8081 187.222 50.9504C187.222 50.9824 187.197 50.976 187.222 50.992L187.203 50.9728C187.162 50.9205 187.13 50.8622 187.107 50.8C187.051 50.6616 187.005 50.5193 186.97 50.3744C186.899 50.083 186.851 49.7867 186.826 49.488C186.791 49.1872 186.75 48.8896 186.701 48.5952C186.656 48.3008 186.605 48.0128 186.547 47.7248C186.499 47.4316 186.417 47.145 186.304 46.8704C186.282 46.8245 186.248 46.7857 186.205 46.7584C186.167 46.7368 186.128 46.7196 186.086 46.7072C186.041 46.6952 185.993 46.6924 185.947 46.699C185.9 46.7056 185.855 46.7214 185.814 46.7456C185.748 46.7949 185.693 46.8573 185.653 46.9289C185.612 47.0005 185.586 47.0797 185.578 47.1616C185.557 47.307 185.557 47.4546 185.578 47.6C185.578 47.7376 185.61 47.872 185.619 48.0064C185.664 48.53 185.673 49.0559 185.648 49.5808C185.641 49.7055 185.624 49.8295 185.6 49.952C185.591 50.0092 185.575 50.0651 185.552 50.1184C185.544 50.1395 185.532 50.159 185.517 50.176C185.517 50.2048 185.494 50.176 185.498 50.2144C185.498 50.1824 185.498 50.2144 185.498 50.1728C185.483 50.1512 185.471 50.1287 185.459 50.1056C185.437 50.0544 185.418 49.9968 185.398 49.9424C185.363 49.8272 185.338 49.7088 185.312 49.5936C185.145 48.7173 185.024 47.8329 184.95 46.944C184.96 46.7831 184.942 46.6218 184.896 46.4672C184.875 46.3865 184.832 46.3134 184.771 46.256C184.74 46.2257 184.703 46.2022 184.662 46.1868C184.621 46.1714 184.578 46.1644 184.534 46.1664H184.554C184.499 46.1585 184.444 46.1667 184.395 46.19C184.345 46.2134 184.304 46.2508 184.275 46.2976C184.228 46.3739 184.195 46.4586 184.179 46.5472C184.152 46.7058 184.137 46.8663 184.134 47.0272C184.134 47.3472 184.134 47.6256 184.134 47.8976C184.165 48.3573 184.224 48.8147 184.31 49.2672C184.365 49.6384 184.406 49.9264 184.426 50.1216C184.432 50.1558 184.426 50.191 184.409 50.2213C184.392 50.2517 184.365 50.2752 184.333 50.288C184.237 50.2976 184.208 50.3008 184.211 50.304Z" fill="#A36957"/>
<path d="M163.37 66.6336C162.745 66.6203 162.122 66.6924 161.517 66.848C159.862 67.2832 157.011 69.0112 156.893 71.1456H158.966C158.966 71.1456 157.805 73.616 158.144 73.3856C159.03 72.7904 160.79 71.0016 160.79 71.0016L163.37 66.6336Z" fill="#B78876"/>
<path d="M191.635 29.44C191.587 29.44 191.402 27.7312 191.216 25.6C191.03 23.4688 190.915 21.76 190.96 21.76C191.005 21.76 191.194 23.4688 191.379 25.6C191.565 27.7312 191.68 29.44 191.635 29.44Z" fill="#263238"/>
<path d="M200.726 21.8912C200.762 21.9168 199.363 23.9488 197.6 26.4288C195.837 28.9088 194.374 30.9088 194.336 30.8704C194.298 30.832 195.699 28.8128 197.462 26.3328C199.226 23.8528 200.688 21.8656 200.726 21.8912Z" fill="#263238"/>
<path d="M204.502 31.1009C204.502 31.1457 202.877 31.5201 200.854 31.9361C198.832 32.3521 197.181 32.6529 197.171 32.6081C197.162 32.5633 198.794 32.1889 200.819 31.7729C202.845 31.3569 204.48 31.0561 204.502 31.1009Z" fill="#263238"/>
<path d="M95.68 75.0528L84.352 133.229L82.88 140.845L158.4 140.48C161.792 140.464 164.8 137.453 165.885 132.979L179.28 78.0576C180.109 74.6624 178.291 71.1296 175.718 71.1328L99.264 71.2128C97.6 71.2096 96.1088 72.784 95.68 75.0528Z" fill="#47BCF7"/>
<g opacity="0.5">
<path d="M95.68 75.0528L84.352 133.229L82.88 140.845L158.4 140.48C161.792 140.464 164.8 137.453 165.885 132.979L179.28 78.0576C180.109 74.6624 178.291 71.1296 175.718 71.1328L99.264 71.2128C97.6 71.2096 96.1088 72.784 95.68 75.0528Z" fill="black"/>
</g>
<path d="M151.165 129.28L143.165 64.8288C142.845 62.1888 140.736 60.2176 138.25 60.2272L120.714 60.2816C120.062 60.289 119.419 60.4289 118.823 60.693C118.227 60.9571 117.691 61.3397 117.248 61.8176L108.928 70.672L60.16 70.9344C57.1808 70.9504 54.8896 73.7728 55.2832 76.9408L62.7104 136.509C63.0304 139.146 65.1392 141.114 67.6192 141.11L152.627 140.941C162.093 141.136 162.998 138.342 162.998 138.342C152.131 140.746 151.165 129.296 151.165 129.28Z" fill="#47BCF7"/>
<g opacity="0.5">
<path d="M114.509 116.39L111.642 119.469L89.5616 99.6033L92.4288 96.5249L114.509 116.39Z" fill="white"/>
<path d="M110.442 95.8433L113.61 98.6945L93.632 120.15L90.4608 117.299L110.442 95.8433Z" fill="white"/>
</g>
<path d="M163.302 33.2096C163.199 33.1659 163.11 33.0937 163.046 33.0013C162.982 32.909 162.945 32.8003 162.941 32.688L162.813 29.7184C162.808 29.6261 162.825 29.534 162.863 29.4495C162.9 29.3649 162.956 29.2902 163.027 29.2312C163.098 29.1722 163.182 29.1306 163.272 29.1096C163.362 29.0886 163.456 29.0889 163.546 29.1104C163.793 29.1638 164.049 29.1661 164.298 29.1172C164.547 29.0682 164.783 28.969 164.992 28.8256C165.184 28.7037 165.35 28.5438 165.478 28.3556C165.606 28.1673 165.695 27.9548 165.738 27.7312C165.767 27.5047 165.75 27.2747 165.688 27.0548C165.627 26.8349 165.522 26.6297 165.379 26.4512C165.229 26.2481 165.041 26.0765 164.824 25.9464C164.608 25.8163 164.368 25.7301 164.118 25.6928C163.615 25.6648 163.117 25.8075 162.704 26.0979C162.292 26.3882 161.99 26.8093 161.846 27.2928C161.799 27.4393 161.696 27.5617 161.56 27.6345C161.425 27.7073 161.266 27.725 161.117 27.6837C160.969 27.6425 160.842 27.5455 160.763 27.4131C160.684 27.2807 160.66 27.1229 160.694 26.9728C160.912 26.2123 161.385 25.5499 162.034 25.0971C162.682 24.6443 163.467 24.4286 164.256 24.4864C164.667 24.5411 165.062 24.6778 165.419 24.8883C165.776 25.0988 166.086 25.3789 166.333 25.712C166.572 26.0206 166.748 26.3742 166.848 26.7518C166.949 27.1294 166.973 27.5234 166.918 27.9104C166.846 28.2968 166.695 28.6642 166.474 28.99C166.254 29.3158 165.97 29.5931 165.638 29.8048C165.158 30.128 164.598 30.3108 164.019 30.3328L164.118 32.624C164.122 32.7246 164.1 32.8246 164.055 32.9146C164.01 33.0046 163.943 33.0818 163.86 33.1389C163.777 33.196 163.681 33.2313 163.581 33.2414C163.48 33.2515 163.379 33.2362 163.286 33.1968L163.302 33.2096Z" fill="#47BCF7"/>
<path d="M164.179 34.4256C164.186 34.5222 164.164 34.6187 164.116 34.7028C164.068 34.7869 163.996 34.8548 163.909 34.898C163.822 34.9411 163.725 34.9576 163.629 34.9453C163.533 34.933 163.442 34.8925 163.369 34.8288C163.296 34.7652 163.244 34.6813 163.218 34.5878C163.193 34.4943 163.196 34.3954 163.227 34.3036C163.258 34.2118 163.315 34.1312 163.392 34.072C163.468 34.0129 163.561 33.9778 163.658 33.9712C163.722 33.9664 163.786 33.9744 163.847 33.9947C163.908 34.015 163.965 34.0472 164.013 34.0895C164.062 34.1318 164.101 34.1832 164.13 34.2409C164.158 34.2986 164.175 34.3614 164.179 34.4256Z" fill="#47BCF7"/>
<path d="M153.021 29.0207C153.035 28.9574 153.044 28.8933 153.05 28.8287C153.05 28.6879 153.085 28.5087 153.11 28.2559C153.142 27.9456 153.194 27.6377 153.267 27.3343C153.309 27.1551 153.331 26.9567 153.395 26.7551C153.459 26.5535 153.523 26.3359 153.594 26.1151C153.964 25.0212 154.504 23.9921 155.194 23.0655C156.097 21.8658 157.243 20.8693 158.557 20.1407C159.304 19.7192 160.101 19.3904 160.928 19.1615C161.821 18.9249 162.74 18.8044 163.664 18.8031C164.151 18.7953 164.637 18.821 165.12 18.8799C165.366 18.9055 165.61 18.9695 165.856 19.0111C166.105 19.0538 166.351 19.1137 166.592 19.1903C167.601 19.4722 168.56 19.9071 169.437 20.4799C171.386 21.7444 172.871 23.6089 173.667 25.7919C174.096 26.9613 174.313 28.1977 174.307 29.4431C174.32 30.7262 174.094 32.0003 173.638 33.1999L173.494 33.5647L173.475 33.6127L173.494 33.6607C174.298 35.5071 175.094 37.3215 175.846 39.0783L175.981 38.9247L171.181 37.0847L171.123 37.0623L171.075 37.1071C169.805 38.3375 168.251 39.2345 166.55 39.7183C165.097 40.1184 163.576 40.2057 162.087 39.9746C160.597 39.7435 159.174 39.1992 157.91 38.3775C156.876 37.6989 155.963 36.8495 155.213 35.8655C154.125 34.4293 153.42 32.7402 153.165 30.9567C153.126 30.6367 153.094 30.3679 153.066 30.1247C153.037 29.8815 153.066 29.6831 153.05 29.5135C153.034 29.3439 153.05 29.2319 153.05 29.1391C153.066 29.1367 153.08 29.1284 153.09 29.1157C153.1 29.1031 153.105 29.0872 153.104 29.0711C153.103 29.055 153.095 29.0399 153.084 29.0289C153.072 29.018 153.056 29.0119 153.04 29.0119C153.024 29.0119 153.008 29.018 152.996 29.0289C152.985 29.0399 152.977 29.055 152.976 29.0711C152.975 29.0872 152.98 29.1031 152.99 29.1157C153 29.1284 153.014 29.1367 153.03 29.1391C153.03 29.2319 153.03 29.3567 153.03 29.5135C153.03 29.6703 153.03 29.8879 153.03 30.1311C153.03 30.3743 153.085 30.6527 153.117 30.9695C153.222 31.7392 153.405 32.4962 153.664 33.2287C154.03 34.1961 154.523 35.1108 155.13 35.9487C155.883 36.9502 156.802 37.816 157.846 38.5087C159.125 39.3509 160.569 39.9114 162.081 40.153C163.593 40.3947 165.14 40.3119 166.618 39.9103C168.339 39.4215 169.913 38.5159 171.2 37.2735L171.094 37.2959L175.894 39.1455L176.134 39.2383L176.029 38.9919C175.267 37.2351 174.48 35.4239 173.68 33.5743V33.6671L173.827 33.2927C174.294 32.067 174.526 30.7644 174.512 29.4527C174.522 28.1809 174.305 26.9174 173.872 25.7215C173.059 23.495 171.541 21.595 169.549 20.3103C168.65 19.7242 167.665 19.2815 166.63 18.9983C166.386 18.9209 166.135 18.862 165.882 18.8223C165.632 18.7775 165.386 18.7135 165.136 18.6911C164.647 18.6304 164.154 18.6026 163.661 18.6079C162.722 18.6119 161.789 18.7389 160.883 18.9855C160.045 19.2236 159.238 19.5609 158.48 19.9903C157.153 20.7368 156 21.7566 155.098 22.9823C154.41 23.9242 153.877 24.97 153.52 26.0799C153.453 26.3103 153.389 26.5311 153.331 26.7199C153.28 26.9129 153.24 27.1083 153.21 27.3055C153.141 27.611 153.096 27.9212 153.075 28.2335C153.056 28.4799 153.043 28.6687 153.034 28.8095C153.02 28.8791 153.016 28.9501 153.021 29.0207Z" fill="#263238"/>
</g>
</svg>
