<svg width="30" height="24" viewBox="0 0 30 24" fill="none" xmlns="http://www.w3.org/2000/svg">
<path d="M21.1886 7.64534C22.0803 6.75362 22.9656 4.67294 19.2501 7.19948C15.7793 9.58819 12.2849 11.9425 8.76755 14.2622C8.23193 14.5044 7.65289 14.6358 7.0652 14.6486C6.47751 14.6613 5.8933 14.5552 5.34767 14.3365C3.11837 13.6677 0.515904 12.776 0.515904 12.776C0.515904 12.776 -1.26107 11.6597 1.78079 10.4707C1.78079 10.4707 14.6413 5.19311 19.1015 3.33374C20.8106 2.59064 26.6084 0.212724 26.6084 0.212724C26.6084 0.212724 29.2852 -0.829231 29.0623 1.69892C28.9879 2.73926 28.3935 6.38368 27.799 10.3221C26.9056 15.897 25.9396 21.9936 25.9396 21.9936C25.9396 21.9936 25.791 23.7028 24.5277 24C23.1754 23.9771 21.8688 23.5067 20.8122 22.6624C20.515 22.4395 15.2374 19.0939 13.3037 17.4591C13.107 17.3259 12.9472 17.145 12.8391 16.9334C12.7311 16.7218 12.6783 16.4863 12.6858 16.2489C12.6932 16.0114 12.7605 15.7797 12.8816 15.5752C13.0026 15.3708 13.1734 15.2003 13.378 15.0796C16.0301 12.6531 18.6342 10.1745 21.1886 7.64534Z" fill="#5D6588"/>
</svg>
