<?xml version="1.0" encoding="UTF-8" standalone="no"?>
<svg

    xmlns="http://www.w3.org/2000/svg" width="243" height="243" viewBox="0 0 243 243">


    <path
        d="m 149.91296,185.651 c -0.71589,0.73653 -1.03761,1.47179 -1.03761,2.24515 0,0.99305 -0.0724,1.10351 -0.68029,0.73652 -0.39419,-0.18413 -1.28938,-0.36826 -2.0053,-0.36826 -3.29338,0 -4.61839,4.56394 -1.8972,6.55128 0.6447,0.47876 0.60783,0.5524 -0.42978,1.54545 -1.53989,1.47308 -1.53989,3.64455 0,5.22682 0.93079,0.92067 1.28939,1.06797 2.43509,0.95748 0.71588,-0.11047 1.60983,-0.2946 1.96838,-0.44191 0.50103,-0.25777 0.6091,-0.11048 0.6091,0.69971 0,1.36132 0.57223,2.28197 1.86159,2.98167 2.14772,1.14036 4.54592,-0.14732 5.1194,-2.79754 0.21491,-0.92066 0.32172,-1.03115 0.89521,-0.73653 3.43709,1.87689 6.7661,-3.01849 4.0093,-5.85287 l -0.9664,-1.02988 0.9664,-0.92066 c 0.824,-0.77208 1.002,-1.25082 1.002,-2.6134 0,-1.39814 -0.178,-1.80322 -1.10881,-2.61342 -1.1457,-0.99302 -2.72119,-1.25082 -3.90249,-0.58794 -0.60908,0.33017 -0.71591,0.22096 -0.9308,-0.92067 -0.53789,-2.94483 -3.90249,-4.12201 -5.90779,-2.061 z"
        style="fill:white;stroke-width:1.27073002" />
    <path
        d="m 179.55356,185.62813 c -0.76041,0.7378 -1.10247,1.47561 -1.10247,2.25023 0,0.99558 -0.0762,1.10734 -0.72351,0.73781 -1.48394,-0.73781 -3.46125,-0.4432 -4.64128,0.70097 -1.52209,1.51241 -1.52209,3.24579 0.0762,5.01728 0.98931,1.10606 1.06559,1.32829 0.57095,1.51241 -0.87485,0.33145 -1.74969,2.10293 -1.74969,3.46804 0,0.81146 0.34206,1.51244 1.14059,2.28707 0.98929,0.92194 1.3695,1.06922 2.5877,0.95875 0.7604,-0.11048 1.71155,-0.29461 2.09175,-0.44318 0.53278,-0.2578 0.64722,-0.11048 0.64722,0.70097 0,1.36512 0.60782,2.28704 1.97731,2.98802 2.24563,1.10733 4.9846,-0.22096 5.47926,-2.65531 0.18947,-1.0705 0.34205,-1.18099 0.913,-0.88511 1.97858,1.03241 5.02146,-0.36952 5.43983,-2.47244 0.22889,-1.25466 -0.57094,-3.24582 -1.56022,-3.8363 -0.76041,-0.44319 -0.72227,-0.48004 0.34331,-1.47561 1.59711,-1.43877 1.63526,-3.61534 0.0382,-5.23825 -1.02741,-1.07051 -2.89156,-1.32829 -4.26106,-0.62731 -0.57094,0.2946 -0.72352,0.18412 -0.91299,-0.92194 -0.57094,-2.91437 -4.22293,-4.09536 -6.35411,-2.0661 z"
        style="fill:white;stroke-width:1.27073002" />
    <path
        d="m 209.58073,185.62813 c -0.71209,0.7378 -1.03257,1.47561 -1.03257,2.25023 0,0.99558 -0.0712,1.10734 -0.67518,0.73781 -1.38859,-0.73781 -3.23871,-0.4432 -4.34119,0.70097 -1.42417,1.51241 -1.42417,3.24579 0.0712,5.01728 0.92444,1.10606 0.99564,1.32829 0.53278,1.51241 -0.8176,0.33145 -1.63651,2.10293 -1.63651,3.46804 0,0.81146 0.32043,1.51244 1.06813,2.28707 0.92444,0.92194 1.28049,1.06922 2.41981,0.95875 0.71084,-0.11048 1.60094,-0.29461 1.95697,-0.44318 0.49718,-0.2578 0.60398,-0.11048 0.60398,0.70097 0,1.36512 0.56971,2.28704 1.85145,2.98802 2.09937,1.10733 4.66161,-0.22096 5.12318,-2.65531 0.17805,-1.0705 0.32047,-1.18099 0.85454,-0.88511 1.74333,0.95875 4.26997,-0.14857 5.01765,-2.13975 0.46286,-1.21781 -0.17803,-3.17342 -1.31737,-4.09536 l -0.85323,-0.70095 0.85323,-0.59051 c 1.10373,-0.7378 1.78023,-2.76579 1.31737,-4.02043 -0.78328,-2.10291 -3.16751,-3.13533 -5.01765,-2.10291 -0.53407,0.2946 -0.67649,0.18412 -0.85454,-0.92194 -0.53276,-2.91437 -3.9495,-4.09536 -5.94207,-2.0661 z"
        style="fill:white;stroke-width:1.27073002" />
    <path
        d="m 72.579,1.5976937 c -0.413646,0.6010332 -0.601585,1.765638 -0.601585,3.981956 0,2.7421743 -0.263218,3.9066522 -2.067974,9.6541193 -1.128021,3.606199 -2.067976,7.09976 -2.067976,7.738254 0,1.502647 0.864804,3.080344 2.143125,3.944368 1.015233,0.676211 2.180764,0.713671 23.424331,0.826437 12.294939,0.07504 23.085599,0 23.950249,-0.112766 2.03072,-0.300451 3.7232,-1.690334 4.28651,-3.531022 0.37639,-1.277244 0.22635,-1.990914 -1.87939,-8.339413 -2.14389,-6.5361899 -2.29394,-7.1748113 -2.29394,-10.5181459 0,-2.2913676 -0.15004,-3.7188372 -0.45141,-4.0194173 -0.33825,-0.3380415 -5.7895,-0.45080665 -22.145881,-0.45080665 H 73.142948 Z m 33.61315,6.310912 c 1.01599,1.0142515 0.97785,2.8925263 -0.075,4.0194173 -0.78966,0.864025 -0.82654,0.864025 -11.242068,0.864025 -9.361902,0 -10.489924,-0.07518 -11.204297,-0.67621 -1.203182,-0.976663 -1.39125,-2.7045859 -0.413658,-3.9442407 L 84.04678,7.1573458 h 10.716384 c 10.189186,0 10.715626,0.037588 11.428996,0.7512599 z"
        style="fill:white;stroke-width:1.27073002" />
    <path
        d="m 127.54965,17.901147 c -0.11323,0.112639 0.037,0.976664 0.33823,1.953328 0.26323,0.976663 0.48829,2.516898 0.41327,3.455971 l -0.075,1.690461 13.00954,0.11264 c 10.18921,0.07518 13.08461,0.187813 13.42283,0.563443 0.26323,0.375758 0.41327,17.805721 0.41327,60.629557 l 0.0382,60.140763 3.08231,-1.42733 c 4.39968,-2.06609 9.36266,-3.64327 13.76235,-4.39504 l 3.79695,-0.67557 V 79.394602 18.840223 l -0.82654,-0.563446 c -0.75276,-0.525855 -3.64815,-0.601033 -24.02654,-0.601033 -12.70821,0 -23.23691,0.07518 -23.34881,0.225403 z"
        style="fill:white;stroke-width:1.27073002" />
    <path
        d="m 14.662627,18.577357 c -0.450044,0.45068 -0.562554,15.363871 -0.637648,98.382143 l -0.07497,97.89362 0.75016,0.75175 0.787581,0.78861 h 57.760302 c 31.768518,0 57.760298,-0.0749 57.760298,-0.14984 0,-0.0762 -0.59998,-1.91626 -1.31285,-4.09536 -1.38768,-4.16902 -2.8134,-11.53178 -2.8134,-14.57439 v -1.84133 H 81.349501 c -40.919748,0 -45.608187,-0.0748 -46.133196,-0.60065 -0.525138,-0.52574 -0.600103,-8.75327 -0.600103,-84.82149 0,-72.12437 0.07496,-84.33285 0.52501,-84.708479 0.375081,-0.338169 4.125755,-0.450806 13.539921,-0.413219 H 61.733461 L 61.50844,24.061706 c -0.225022,-1.089302 0.150057,-3.94424 0.675066,-5.371712 0.262572,-0.60103 -1.012601,-0.63862 -23.366585,-0.63862 -19.691003,0 -23.741667,0.07518 -24.154294,0.525983 z"
        style="fill:white;stroke-width:1.26916277" />
    <path
        d="m 54.869671,48.929343 c -1.955186,1.051839 -2.331194,3.455973 -0.752015,4.996082 l 0.902442,0.9392 h 39.704911 39.742041 l 1.09103,-1.089428 c 1.42799,-1.42747 1.42799,-2.779763 0,-4.207233 l -1.09103,-1.089428 H 95.026376 C 67.23988,48.516126 55.395978,48.62889 54.869671,48.929343 Z"
        style="fill:white;stroke-width:1.27073002" />
    <path
        d="m 54.117656,70.078652 c -1.579179,1.540106 -1.165534,3.944239 0.827164,4.99608 0.601586,0.338169 10.941459,0.450806 40.118437,0.450806 h 39.291883 l 0.93972,-0.864026 c 0.56332,-0.45068 1.08975,-1.352291 1.20291,-2.028502 0.18821,-1.014252 0.0382,-1.389881 -0.90283,-2.366544 l -1.12789,-1.12689 H 94.725009 55.020098 Z"
        style="fill:white;stroke-width:1.27073002" />
    <path
        d="m 54.117656,90.738928 c -1.316088,1.277244 -1.24081,2.930116 0.150301,4.357078 l 1.090383,1.089556 h 39.253497 c 30.868933,0 39.403793,-0.11302 40.156573,-0.487633 1.99258,-1.014633 2.33083,-3.606579 0.67649,-5.146814 -0.82652,-0.751261 -1.16603,-0.751261 -40.60672,-0.751261 H 55.019971 Z"
        style="fill:white;stroke-width:1.27073002" />
    <path
        d="m 54.117529,111.39997 c -1.278323,1.2394 -1.278323,3.11755 0.03762,4.35695 l 0.977593,0.90161 39.253761,0.11301 c 35.004387,0.0748 39.404077,0.0381 40.418797,-0.4889 1.95569,-1.05147 2.29394,-3.49342 0.71462,-5.07062 -0.75151,-0.75175 -1.42797,-0.75175 -40.606729,-0.75175 h -39.89322 z"
        style="fill:white;stroke-width:1.27073002" />
    <path
        d="m 55.546279,131.04626 c -1.127894,0.14983 -2.368702,1.80321 -2.368702,3.11754 0,0.56383 0.376004,1.46544 0.864801,2.02799 l 0.827165,0.93972 h 39.705428 c 21.807639,0.0382 39.967109,-0.0749 40.343499,-0.22478 1.65433,-0.63874 2.10572,-3.94551 0.71462,-5.10999 -0.48955,-0.37461 -8.1216,-0.52573 -39.930231,-0.67556 -21.620085,-0.11303 -39.705295,-0.14984 -40.15658,-0.0749 z"
        style="fill:white;stroke-width:1.27073002" />
    <path
        d="m 176.93599,146.37199 c -13.85412,1.72831 -26.16507,8.71522 -34.147,19.49653 -3.91521,5.25859 -7.19127,12.69629 -8.62108,19.53333 -0.94094,4.54492 -0.94094,13.67411 -0.0384,18.29396 1.95823,9.84285 6.43751,18.18216 13.59183,25.28208 9.29847,9.24094 21.0454,14.08682 34.07062,14.08682 13.44158,0 25.63921,-5.18493 34.97587,-14.80176 6.55081,-6.76085 10.3909,-13.93569 12.76297,-23.89032 0.97909,-4.01917 0.9409,-15.06335 -0.0383,-19.5346 -2.0703,-9.57874 -6.28726,-17.3174 -13.2137,-24.26619 -7.04099,-7.06182 -15.36033,-11.53308 -25.07388,-13.48616 -2.78584,-0.56385 -11.78383,-1.01465 -14.26919,-0.71369 z m 11.29491,6.72403 c 16.75329,2.51694 30.23179,14.83859 34.67413,31.63026 1.09115,4.1322 1.3929,12.28355 0.56405,16.82848 -3.57655,20.47305 -20.97025,35.12372 -41.63877,35.12372 -15.96258,0 -30.49535,-8.94126 -37.61021,-23.17793 -8.13218,-16.26592 -5.00764,-35.64942 7.7553,-48.45873 9.60023,-9.61683 22.8903,-13.97379 36.2555,-11.9458 z"
        style="fill:white;stroke-width:1.27156019" />
    <path
        d="m 55.208038,151.78207 c -2.067977,0.8267 -2.632047,3.56836 -1.090382,5.07065 l 0.902315,0.93969 H 94.83818 c 39.44069,0 39.7802,0 40.60672,-0.75177 1.65434,-1.54037 1.31609,-4.13217 -0.67649,-5.14553 -0.75278,-0.37589 -9.2126,-0.48892 -39.855204,-0.45081 -21.394377,0 -39.29165,0.14984 -39.705168,0.33777 z"
        style="fill:white;stroke-width:1.27073002" />
</svg>
