<svg width="16" height="16" viewBox="0 0 16 16" fill="none" xmlns="http://www.w3.org/2000/svg">
    <g clip-path="url(#clip0_427_2203)">
        <path
            d="M0.5 0C0.367392 0 0.240215 0.0525941 0.146447 0.146362C0.0526784 0.24013 0 0.367392 0 0.5L0 12.5C0 12.6326 0.0526784 12.7597 0.146447 12.8535C0.240215 12.9473 0.367392 13 0.5 13H6.203C6.089 12.684 6.042 12.344 6.001 12H1V1H12V6.00195C12.344 6.04195 12.684 6.0899 13 6.2019V0.5C13 0.367392 12.9473 0.24013 12.8536 0.146362C12.7598 0.0525941 12.6326 0 12.5 0H0.5Z"
            fill="#40413B" />
        <path fill-rule="evenodd" clip-rule="evenodd"
            d="M11.494 8.99906C11.4282 8.99984 11.3631 9.01361 11.3026 9.03959C11.2421 9.06557 11.1874 9.10323 11.1415 9.15043C11.0956 9.19763 11.0595 9.25354 11.0352 9.31473C11.0109 9.37593 10.9989 9.44129 11 9.50712V11.4991C11 11.6317 11.0527 11.7589 11.1464 11.8527C11.2402 11.9465 11.3674 11.9991 11.5 11.9991H13.29C13.4226 11.9991 13.5498 11.9465 13.6436 11.8527C13.7373 11.7589 13.79 11.6317 13.79 11.4991C13.79 11.3665 13.7373 11.2393 13.6436 11.1455C13.5498 11.0518 13.4226 10.9991 13.29 10.9991H12V9.50712C12.0011 9.44028 11.9887 9.37391 11.9637 9.31193C11.9387 9.24994 11.9015 9.19352 11.8543 9.14615C11.8071 9.09879 11.751 9.06144 11.6891 9.03617C11.6272 9.0109 11.5608 8.99825 11.494 8.99906Z"
            fill="#40413B" />
        <path
            d="M11.5 7C9.018 7 7 9.01998 7 11.501C7 13.981 9.018 16.001 11.5 16.001C13.98 16.001 16 13.981 16 11.501C16 9.02098 13.98 7 11.5 7ZM11.5 7.81799C11.9838 7.81733 12.463 7.91206 12.9101 8.09692C13.3571 8.28179 13.7633 8.55312 14.1054 8.89526C14.4474 9.23741 14.7186 9.64369 14.9034 10.0908C15.0881 10.538 15.1828 11.0172 15.182 11.501C15.1827 11.9847 15.0878 12.4639 14.903 12.9109C14.7181 13.3579 14.4468 13.764 14.1046 14.106C13.7625 14.4479 13.3562 14.719 12.9091 14.9037C12.4619 15.0883 11.9827 15.1828 11.499 15.1819C11.0153 15.1828 10.5363 15.0882 10.0893 14.9036C9.64224 14.7189 9.23608 14.4478 8.89408 14.1058C8.55209 13.7638 8.28098 13.3577 8.09632 12.9106C7.91166 12.4636 7.81708 11.9846 7.818 11.501C7.81708 11.0172 7.91165 10.5381 8.09628 10.0909C8.28092 9.64381 8.55199 9.23742 8.89396 8.89526C9.23593 8.55311 9.64207 8.28193 10.0891 8.09705C10.5361 7.91217 11.0153 7.81733 11.499 7.81799H11.5Z"
            fill="#40413B" />
        <path fill-rule="evenodd" clip-rule="evenodd" d="M0.5 1.99902V2.99902H12.5V1.99902H0.5Z"
            fill="#40413B" />
        <path
            d="M2 4H3V5H2V4ZM4 4H5V5H4V4ZM6 4H7V5H6V4ZM8 4H9V5H8V4ZM10.01 4H11.01V5H10.01V4ZM2 6H3V7H2V6ZM4 6H5V7H4V6ZM6 6H7V7H6V6ZM2 8H3V9H2V8ZM4 8H5V9H4V8ZM2 10H3V11H2V10ZM4 10H5V11H4V10ZM7 8.52393V8H6V9H6.678C6.768 8.829 6.893 8.68393 7 8.52393ZM8 6V7H8.521C8.682 6.893 8.828 6.76798 9 6.67798V6H8Z"
            fill="#40413B" />
    </g>
    <defs>
        <clipPath id="clip0_427_2203">
            <rect width="16" height="16" fill="white" />
        </clipPath>
    </defs>
</svg>
