<?xml version="1.0" encoding="UTF-8" standalone="no"?>
<!-- Created with Inkscape (http://www.inkscape.org/) -->

<svg

   xmlns="http://www.w3.org/2000/svg"

   version="1.1"

   width="512"
   height="512"
   viewBox="0 0 512 512">

  <path
     style="fill:#FF0101"
     d="m 245.32418,489.61882 c -5.94308,-1.94128 -10.45145,-4.94836 -15.29203,-10.19977 -6.71962,-7.28992 -8.53052,-12.26093 -8.5314,-23.41905 -6.7e-4,-8.44961 0.3106,-10.10812 2.81519,-15 3.69127,-7.20968 9.53471,-13.09006 16.52831,-16.6328 5.04457,-2.55542 6.68236,-2.86503 15.15575,-2.86503 8.47339,0 10.11118,0.30961 15.15575,2.86503 6.9936,3.54274 12.83704,9.42312 16.52831,16.6328 2.50459,4.89188 2.81586,6.55039 2.81519,15 -8.9e-4,11.36279 -1.8489,16.25224 -9.05399,23.95506 -6.74623,7.21228 -13.70409,10.34226 -23.83702,10.72306 -4.96226,0.18649 -9.72845,-0.22452 -12.28406,-1.0593 z M 190.5,387.98268 c -5.90995,-1.01628 -8.94494,-2.48642 -13.35138,-6.46737 -8.65625,-7.8204 -10.97478,-20.21857 -5.77028,-30.85617 3.11057,-6.35778 6.18822,-9.1857 17.32091,-15.91542 15.74979,-9.52076 35.37807,-15.80031 55.88692,-17.87954 25.87149,-2.6229 56.19094,4.26398 78.71458,17.87954 11.13269,6.72972 14.21034,9.55764 17.32091,15.91542 6.25966,12.79429 1.34485,28.20032 -11.02698,34.56529 -9.69103,4.98577 -17.95714,4.14963 -30.03993,-3.03862 -16.47407,-9.8007 -26.09017,-12.5776 -43.55475,-12.5776 -17.25021,0 -27.32028,2.85859 -42.78694,12.14595 -10.18274,6.11449 -15.26751,7.50887 -22.71306,6.22852 z M 108.44439,310.6263 C 99.826637,306.61341 93,296.17025 93,287 c 0,-5.00422 2.965922,-12.60019 6.558816,-16.79768 4.392974,-5.1322 21.322404,-17.96774 32.344944,-24.52325 l 8.10599,-4.82093 2.66929,3.32093 c 8.18572,10.18404 27.3006,27.01571 37.93392,33.40283 1.55984,0.93695 1.00758,1.44521 -4.12207,3.79364 -9.18386,4.20451 -21.9328,12.12857 -33.99089,21.12692 -6.05,4.51481 -12.52965,8.72373 -14.39922,9.35315 -5.68867,1.91516 -14.02291,1.39394 -19.65639,-1.22931 z M 383.5,311.78716 c -1.65,-0.58022 -7.95,-4.75361 -14,-9.2742 -11.99071,-8.95951 -24.78298,-16.9219 -33.87074,-21.08241 -3.19169,-1.46121 -5.42646,-2.98607 -4.96617,-3.3886 0.4603,-0.40252 4.43553,-3.16413 8.83385,-6.1369 7.51016,-5.07605 23.91473,-20.31967 29.83756,-27.72598 l 2.65575,-3.32093 8.10599,4.82093 c 11.03661,6.56388 27.95389,19.39329 32.35935,24.54008 6.69272,7.81894 8.16778,19.71831 3.56314,28.74414 -2.32502,4.55742 -8.7869,10.49518 -13.61858,12.51398 -4.13324,1.72698 -14.39198,1.89518 -18.90015,0.30989 z M 242,280.37433 C 211.72166,276.5404 184.74446,263.03756 163.99026,241.32828 110.38303,185.25414 118.58825,95.897533 181.5717,49.862767 192.30645,42.01671 210.58686,33.489861 224.5,29.838974 c 11.21145,-2.941947 13.18283,-3.155114 30,-3.243921 13.91259,-0.07347 19.93017,0.318344 26.5,1.725452 26.75593,5.730509 45.88017,16.282856 65.5,36.141512 22.21129,22.481655 33.70781,47.122333 36.40992,78.037983 2.07415,23.73099 -2.6231,47.80542 -13.47832,69.07923 -17.43013,34.1592 -49.93371,58.77706 -88.4316,66.97714 -7.30562,1.5561 -31.98329,2.70643 -39,1.81796 z m 21.68386,-45.31779 c 5.95576,-2.704 9.60185,-8.53094 9.60185,-15.34501 0,-7.84577 -2.88556,-12.49539 -9.98605,-16.09094 -7.91868,-4.00986 -18.83361,-0.29008 -23.0449,7.85364 -4.21231,8.14572 -0.45855,19.23598 7.91351,23.38004 5.31833,2.63251 10.0276,2.6939 15.51559,0.20227 z m 0.41247,-70.60635 c 3.76507,-1.947 7.64837,-6.86979 8.85966,-11.23124 1.2854,-4.62827 1.35936,-64.153529 0.0865,-69.641556 -4.14758,-17.883065 -29.93748,-17.883065 -34.08506,0 -1.30038,5.606839 -1.19718,65.019146 0.12118,69.767026 2.97055,10.69796 15.25814,16.15262 25.01768,11.10577 z M 17.969379,218.46406 C 3.4576646,213.99058 -4.1828085,196.34822 2.3942215,182.5 6.7571837,173.31359 30.30566,153.76926 59.082959,135.45053 c 12.444564,-7.92182 46.163891,-25.42565 55.270351,-28.69104 4.61197,-1.65377 4.81864,-1.65376 4.15616,1e-4 -1.60733,4.01264 -5.43101,20.44156 -6.43114,27.63219 -0.59308,4.26412 -1.08816,13.23288 -1.10017,19.93058 l -0.0218,12.17764 -9.72816,5.40087 c -18.017964,10.0032 -36.02946,22.78567 -56.099411,39.81287 -9.080431,7.70376 -17.377115,9.76586 -27.15937,6.75032 z m 459.343031,-0.32191 c -2.96394,-1.02419 -7.6192,-3.90355 -10.86037,-6.71735 C 448.55133,195.88439 427.50163,180.94282 410.20597,171.5 l -9.1581,-5 -0.0239,-12.65063 c -0.0257,-13.57115 -2.44757,-30.64997 -5.92846,-41.80645 -1.10806,-3.55139 -1.88362,-6.5881 -1.72347,-6.74825 0.47023,-0.47024 17.31862,7.03195 29.40225,13.09211 36.13378,18.12177 80.80058,51.08564 86.87489,64.11322 6.59299,14.14001 -1.18545,31.61211 -16.03696,36.02253 -6.41838,1.90605 -9.91937,1.82435 -16.29977,-0.38038 z"
    />
</svg>
