<svg width="223" height="220" viewBox="0 0 223 220" fill="none" xmlns="http://www.w3.org/2000/svg">
    <path
        d="M123.008 0.83371C120.459 1.7728 118.447 3.42738 117.061 5.84218L115.808 7.94395L115.585 33.4335L115.361 58.9231L102.08 59.0573L88.7537 59.1467V48.772C88.7537 41.5723 88.5302 37.4582 88.1277 35.4012C86.2942 26.7705 78.9604 19.3472 70.5086 17.6032C59.15 15.2331 47.6126 21.9856 43.9904 33.1652C43.0961 35.7589 42.9619 37.4135 42.783 47.3857L42.6042 58.6548L31.5587 58.789C20.6473 58.9231 20.5579 58.9231 18.322 60.1305C15.6389 61.5168 13.6712 63.5739 12.2402 66.3017L11.167 68.314L11.0328 130.518L10.9434 192.721L8.66275 192.989C5.8902 193.347 4.10146 194.331 2.268 196.567L0.88172 198.311L0.747564 204.84C0.658127 208.82 0.792283 212.084 1.06059 213.068C1.73137 215.304 3.60955 217.406 5.80076 218.39C7.50007 219.195 11.6589 219.239 111.829 219.239H216.068L218.035 218.211C219.108 217.629 220.629 216.288 221.344 215.259C222.641 213.381 222.686 213.202 222.82 207.255C222.91 203.498 222.775 200.457 222.462 199.429C221.434 195.896 217.051 192.855 213.116 192.855H211.73V131.233C211.73 60.846 212.088 67.0619 207.705 62.6348C204.933 59.907 202.16 58.6996 198.448 58.6996H196.526L196.436 33.523C196.302 5.30556 196.481 6.87071 192.903 3.29323C189.594 0.0287628 190.712 0.11821 155.876 0.162918C130.029 0.162918 124.439 0.297073 123.008 0.83371ZM137.05 11.1637C137.273 14.9201 137.408 15.412 138.66 16.9771C141.522 20.4652 141.432 20.4652 156.279 20.4652C170.947 20.4652 170.902 20.4652 173.63 17.3796C175.105 15.6803 175.955 12.6394 175.955 8.97249V6.73656L181.59 6.87071L187.224 7.04959L188.521 8.5253L189.818 9.9563V66.3017V122.647L188.521 124.078L187.224 125.554L156.95 125.688C129.582 125.777 126.586 125.733 125.155 125.062C122.069 123.586 122.248 127.7 122.382 65.6756C122.516 11.119 122.561 9.59854 123.366 8.65945C124.663 7.22845 126.452 6.87071 131.907 6.96014L136.826 7.04959L137.05 11.1637ZM67.7807 38.0843C68.8092 38.9339 68.854 39.1575 68.9881 47.028L69.1223 55.1221H65.992H62.817V46.8938C62.817 38.8445 62.8617 38.6209 63.8008 37.9501C65.1423 37.011 66.5286 37.0558 67.7807 38.0843ZM73.2811 63.1714C78.5579 64.513 82.6273 66.8383 86.7861 70.9972C92.5995 76.7211 95.3274 82.8029 95.7746 90.8969C96.5348 105.162 87.0544 117.996 73.1022 121.619C69.2564 122.602 62.1462 122.602 58.3898 121.574C45.5109 118.131 36.5672 107.264 35.7175 94.0719C34.7784 79.8067 44.7507 66.3464 58.7476 62.9478C62.5934 62.0087 69.2117 62.1429 73.2811 63.1714ZM39.0267 66.1676C34.2865 71.6679 31.3798 76.7659 29.9041 82.1768C29.5016 83.6972 29.0544 87.3194 28.965 90.6733C28.652 99.3487 30.2171 105.207 34.8231 112.317C41.5756 122.826 52.9342 128.908 65.7237 128.908C77.3058 128.908 87.8146 123.855 94.7907 114.956C100.068 108.248 102.661 100.824 102.706 92.2385C102.751 82.8029 100.068 75.2007 94.0752 68.0457C93.0914 66.883 92.3312 65.8098 92.3312 65.6756C92.3312 65.4968 97.5186 65.4521 103.869 65.4968L115.361 65.6309L115.585 94.9216C115.764 116.073 115.943 124.525 116.345 125.375C117.284 127.477 119.788 129.936 122.069 130.965L124.305 132.038H156.1H187.85L190.176 130.875C191.472 130.249 193.082 128.997 193.842 128.103C196.57 124.794 196.526 125.241 196.526 94.1614V65.8545H198.001C200.64 65.8992 203.144 67.375 204.128 69.5214C204.977 71.3996 205.022 73.0095 205.022 132.127V192.855H111.56H18.0984L18.1878 131.457C18.322 72.4729 18.3667 70.0581 19.1716 68.7165C20.8709 65.8545 22.3019 65.4968 32.14 65.4521C39.295 65.4073 39.6527 65.4521 39.0267 66.1676Z"
        fill="white" />
    <path
        d="M154.221 36.7872C144.741 38.2182 136.513 45.0154 133.472 53.9144C132.98 55.4348 132.354 58.8781 132.086 61.606C131.504 67.956 130.208 73.1434 128.553 75.8265C126.764 78.6885 126.764 80.7008 128.508 82.4448C130.208 84.0994 131.46 84.0994 133.07 82.3554C136.155 79.0462 138.257 72.6067 138.838 64.5127C139.285 58.8334 139.956 56.1056 141.656 53.1989C143.265 50.471 147.38 46.7594 150.331 45.3731C152.656 44.2999 153.461 44.1657 158.067 44.1657C162.718 44.1657 163.434 44.2552 165.804 45.3731C167.235 46.0439 169.56 47.5196 170.946 48.6376C173.942 50.9629 175.463 51.1865 177.073 49.5319C178.951 47.6985 178.548 46.3569 175.463 43.4055C170.141 38.3523 161.511 35.6245 154.221 36.7872Z"
        fill="white" />
    <path
        d="M153.328 49.3535C150.063 50.6056 147.201 53.2888 145.547 56.5979C144.429 58.9233 144.116 60.2201 143.713 64.6473C142.998 72.8308 140.806 79.9858 137.676 84.0552C135.172 87.3196 137.408 91.2101 141.119 89.9133C142.058 89.6003 143.042 88.6164 144.25 86.783C147.693 81.4615 150.018 73.4121 150.689 64.7367C150.868 62.5008 151.271 60.2201 151.584 59.5941C153.104 56.6874 156.637 54.8539 159.812 55.3458C161.511 55.6141 162.227 56.0613 164.284 58.2078C167.056 61.1145 168.264 61.6959 169.784 60.8909C172.288 59.5494 172.557 57.3134 170.634 54.4962C167.056 49.3535 159.32 47.0282 153.328 49.3535Z"
        fill="white" />
    <path
        d="M179.264 57.2682C178.191 57.9837 177.744 59.6831 177.744 63.0369C177.744 70.0578 176.402 78.1965 174.122 85.3515C172.557 90.3153 172.512 91.0755 173.943 92.4618C175.24 93.7586 177.297 93.9375 178.281 92.7748C179.22 91.7463 181.5 84.4571 182.618 78.9568C183.826 73.1881 184.675 63.8866 184.273 61.2482C183.826 58.2968 181.053 56.0608 179.264 57.2682Z"
        fill="white" />
    <path
        d="M155.876 62.0982C155.25 62.9031 154.937 63.9316 154.937 65.1837C154.937 70.1028 152.612 78.2863 149.034 86.0673C147.022 90.4945 146.888 90.9864 147.425 92.1043C148.274 93.8483 150.108 94.7874 151.673 94.2061C153.193 93.7142 154.579 91.2994 157.352 84.368C160.08 77.5708 161.287 72.7412 161.556 67.2855C161.734 63.3056 161.645 62.5901 160.974 61.8298C159.722 60.4436 157.039 60.6224 155.876 62.0982Z"
        fill="white" />
    <path
        d="M167.906 69.1192C166.698 69.7453 166.385 70.5502 164.775 77.7052C163.926 81.551 162.584 85.5757 160.304 91.1655C159.454 93.1778 160.035 94.7877 161.869 95.6821C164.239 96.8 165.402 96.0398 167.235 92.1046C170.052 86.0229 172.78 76.3636 172.825 72.5178C172.825 69.6559 170.276 67.8671 167.906 69.1192Z"
        fill="white" />
    <path
        d="M150.242 112.317C147.961 113.301 147.335 116.386 149.124 118.175C149.929 118.98 150.6 119.07 155.832 119.07C161.466 119.07 161.735 119.025 162.763 117.952C164.105 116.655 164.194 114.642 163.032 113.211C162.227 112.183 161.869 112.138 156.637 112.049C153.641 111.959 150.734 112.093 150.242 112.317Z"
        fill="white" />
    <path
        d="M64.382 86.0229C61.833 86.4254 60.4467 87.0515 58.5686 88.7508C55.0358 91.7916 53.739 97.7392 55.6171 101.853C56.5115 103.866 58.971 106.236 61.2964 107.354C62.8168 108.024 62.8168 108.114 62.8168 110.976C62.8168 114.196 62.9957 114.643 64.4714 115.448C65.9918 116.208 67.244 116.029 68.4067 114.822C69.3457 113.927 69.5246 113.301 69.5246 110.931V108.114L71.7158 106.907C75.0697 105.073 77.574 100.914 77.574 97.1579C77.574 90.3606 71.1345 84.9497 64.382 86.0229ZM68.0042 93.0885C71.8053 95.4138 70.2401 101.183 65.813 101.183C61.3858 101.183 59.7312 95.0561 63.6218 92.9543C65.2764 92.0599 66.3496 92.0599 68.0042 93.0885Z"
        fill="white" />
    <path
        d="M39.7871 143.665C39.3399 144.157 38.848 145.275 38.7139 146.124L38.4456 147.69L36.6568 146.482C34.3762 144.962 32.185 144.872 31.0223 146.303C29.2782 148.45 30.0385 150.507 33.3029 152.609C34.5103 153.414 35.5388 154.218 35.5388 154.397C35.5388 154.576 34.555 155.426 33.3476 156.231C29.949 158.556 29.1888 161.15 31.3353 162.849C32.9452 164.101 34.1079 164.012 36.5674 162.447L38.6691 161.105V162.268C38.6691 163.52 39.4294 165.175 40.1896 165.666C40.4579 165.845 41.397 166.024 42.2914 166.024C44.2143 166.024 45.3322 164.996 45.69 162.76L45.9136 161.195L47.9706 162.491C49.0886 163.207 50.4301 163.788 50.9668 163.788C53.4263 163.788 55.0361 160.703 53.6946 158.646C53.2921 158.02 51.9506 156.857 50.6984 156.007L48.4178 154.487L50.9668 152.564C53.8287 150.417 54.589 149.031 53.8287 147.555C52.3083 144.649 50.5196 144.291 47.747 146.303L45.9136 147.6L45.69 146.035C45.5111 145.141 45.0639 144.067 44.6614 143.62C43.6329 142.457 40.8604 142.502 39.7871 143.665Z"
        fill="white" />
    <path
        d="M74.4436 143.665C73.907 144.201 73.5493 145.141 73.5493 146.124C73.5493 146.974 73.4598 147.69 73.3257 147.69C73.2362 147.69 72.163 147.063 71.0003 146.348C68.4961 144.738 67.7806 144.693 66.2154 145.946C65.1869 146.75 65.008 147.198 65.1422 148.718C65.2763 150.283 65.5446 150.775 67.1992 152.027C68.2725 152.832 69.4799 153.682 69.8823 153.95C70.5531 154.353 70.5531 154.487 69.5246 155.336C65.6341 158.556 65.0527 159.272 65.0527 160.613C65.0527 163.833 68.1383 164.638 71.6264 162.268L73.3257 161.105L73.594 162.849C73.907 165.219 74.6672 166.024 76.6348 166.024C78.9155 166.024 79.8993 165.175 80.2123 162.939L80.4806 161.105L82.493 162.447C84.8183 164.012 86.6071 164.146 87.8592 162.894C88.7983 161.955 89.0219 159.808 88.3511 158.467C88.1275 158.064 86.9201 157.036 85.668 156.186C84.4159 155.336 83.3874 154.531 83.3874 154.397C83.3874 154.263 84.0581 153.727 84.8631 153.19C88.9325 150.373 89.7374 148.405 87.6356 146.169C86.2046 144.604 84.5053 144.693 82.2694 146.393L80.4806 147.734L80.2123 145.856C80.0782 144.783 79.5863 143.71 79.1391 143.397C77.887 142.457 75.4722 142.636 74.4436 143.665Z"
        fill="white" />
    <path
        d="M109.101 143.665C108.654 144.157 108.162 145.275 108.028 146.125L107.759 147.69L105.97 146.482C102.706 144.291 99.4863 145.364 99.4863 148.629C99.4863 150.104 100.202 150.954 103.243 153.011L105.3 154.442L102.661 156.678C99.0838 159.63 98.6814 160.792 100.604 162.67C102.035 164.146 103.332 164.057 105.881 162.447L107.983 161.105V162.402C107.983 163.118 108.385 164.191 108.922 164.862C110.934 167.411 115.138 165.756 115.138 162.402V161.105L117.24 162.447C119.789 164.057 121.085 164.146 122.516 162.67C124.529 160.703 123.813 158.512 120.459 156.231C119.252 155.426 118.268 154.576 118.268 154.397C118.268 154.174 119.297 153.28 120.504 152.385C123.947 149.881 124.305 148.36 122.159 145.99C120.906 144.649 119.252 144.738 117.016 146.393L115.138 147.779V146.438C115.138 145.722 114.735 144.604 114.199 143.933C113.036 142.458 110.353 142.279 109.101 143.665Z"
        fill="white" />
    <path
        d="M143.981 143.397C143.534 143.71 143.042 144.783 142.908 145.856L142.639 147.69L140.851 146.482C137.541 144.246 134.366 145.275 134.366 148.629C134.366 150.328 135.037 150.999 139.688 154.263C139.777 154.353 138.659 155.56 137.139 156.991C134.009 159.898 133.74 160.971 135.529 162.76C136.915 164.146 138.838 164.012 141.387 162.268L143.087 161.105L143.221 162.76C143.444 165.04 144.383 166.024 146.44 166.024C148.676 166.024 149.66 165.175 149.973 162.939L150.242 161.105L152.254 162.447C153.372 163.162 154.803 163.788 155.429 163.788C157.71 163.788 159.275 160.658 158.067 158.467C157.844 158.02 156.636 156.991 155.384 156.186C154.177 155.381 153.148 154.576 153.148 154.397C153.148 154.218 153.595 153.727 154.177 153.369C158.023 150.73 158.962 148.494 157.128 146.169C155.876 144.559 153.908 144.649 151.583 146.393L149.794 147.734L149.526 145.856C149.213 143.71 148.229 142.771 146.217 142.771C145.457 142.771 144.428 143.039 143.981 143.397Z"
        fill="white" />
    <path
        d="M178.459 143.62C178.057 144.067 177.609 145.185 177.43 146.035L177.207 147.645L175.552 146.572C172.467 144.559 169.962 144.872 169.113 147.377C168.487 149.255 169.381 150.775 172.198 152.743L174.613 154.442L172.735 156.007C168.934 159.138 168.353 160.703 170.365 162.67C171.796 164.146 173.093 164.057 175.642 162.447L177.744 161.105V162.402C177.744 164.459 179.309 166.024 181.276 166.024C183.289 166.024 184.362 164.996 184.764 162.76L184.988 161.195L187.045 162.491C189.549 164.057 190.846 164.146 192.277 162.67C194.289 160.703 193.574 158.601 190.041 156.186C188.923 155.426 188.029 154.666 188.029 154.442C188.029 154.263 189.236 153.279 190.712 152.251C193.082 150.552 193.395 150.149 193.395 148.852C193.395 146.929 191.919 145.006 190.399 145.006C189.773 145.006 188.163 145.632 186.866 146.393L184.451 147.734V146.437C184.451 144.38 182.931 142.771 180.919 142.771C179.845 142.771 178.951 143.084 178.459 143.62Z"
        fill="white" />
    <path
        d="M31.0665 172.732C30.5299 173.269 30.1721 174.208 30.1721 175.192C30.1721 176.175 30.5299 177.114 31.0665 177.651C31.9161 178.501 32.5422 178.545 42.0225 178.545C51.5029 178.545 52.1289 178.501 52.9786 177.651C54.2307 176.399 54.1413 174.297 52.755 172.956L51.6818 171.838H41.799C32.5422 171.838 31.9161 171.882 31.0665 172.732Z"
        fill="white" />
    <path
        d="M65.9917 172.598C64.5607 173.805 64.3371 175.862 65.4998 177.338L66.4389 178.545H76.6794H86.92L87.8591 177.338C89.0217 175.862 88.7981 173.805 87.3672 172.598C86.5175 171.927 85.3101 171.838 76.6794 171.838C68.0487 171.838 66.8413 171.927 65.9917 172.598Z"
        fill="white" />
    <path
        d="M100.47 172.866C99.2178 174.208 99.1731 176.444 100.38 177.651C101.23 178.501 101.856 178.545 111.337 178.545C120.817 178.545 121.443 178.501 122.293 177.651C123.545 176.399 123.455 174.029 122.158 172.821C121.175 171.882 120.772 171.838 111.292 171.838C101.543 171.838 101.409 171.838 100.47 172.866Z"
        fill="white" />
    <path
        d="M135.485 172.956C134.143 174.297 134.054 175.818 135.306 177.383L136.2 178.545H146.441H156.681L157.576 177.383C158.828 175.818 158.738 174.878 157.352 173.224L156.19 171.838H146.396H136.558L135.485 172.956Z"
        fill="white" />
    <path
        d="M170.231 172.732C168.934 173.939 168.934 176.444 170.142 177.651C170.991 178.501 171.617 178.545 181.098 178.545C190.578 178.545 191.204 178.501 192.054 177.651C193.306 176.399 193.217 174.297 191.83 172.956L190.757 171.838H180.964C171.752 171.838 171.17 171.882 170.231 172.732Z"
        fill="white" />
</svg>
