<svg width="16" height="21" viewBox="0 0 16 21" fill="none" xmlns="http://www.w3.org/2000/svg">
<path d="M7.4172 8.69215C6.57434 8.69227 5.75037 8.43747 5.04949 7.95999C4.34862 7.48251 3.80233 6.80379 3.4797 6.00966C3.15707 5.21553 3.07259 4.34166 3.23695 3.49856C3.40132 2.65547 3.80714 1.88102 4.4031 1.27315C4.99905 0.665278 5.75837 0.251296 6.58503 0.0835538C7.41169 -0.0841884 8.26856 0.001844 9.04728 0.330771C9.826 0.659697 10.4916 1.21674 10.9599 1.93146C11.4282 2.64619 11.6781 3.48648 11.6781 4.34608C11.6769 5.49824 11.2276 6.60286 10.4288 7.41762C9.63 8.23238 8.54694 8.69074 7.4172 8.69215ZM7.4172 1.25333C6.81726 1.25322 6.23075 1.43455 5.73187 1.77441C5.23299 2.11426 4.84413 2.59737 4.61449 3.16263C4.38485 3.72788 4.32474 4.3499 4.44175 4.95C4.55877 5.55011 4.84765 6.10134 5.27188 6.53398C5.6961 6.96663 6.23661 7.26125 6.82503 7.38059C7.41345 7.49993 8.02336 7.43862 8.57761 7.20442C9.13187 6.97022 9.60557 6.57365 9.93881 6.06486C10.272 5.55608 10.4499 4.95793 10.4497 4.34608C10.4488 3.52612 10.129 2.74001 9.56051 2.16022C8.992 1.58042 8.2212 1.25428 7.4172 1.25333ZM8.21325 18H0.614178L0 17.3736C0.00230699 15.3682 0.784519 13.4456 2.17503 12.0276C3.56554 10.6096 5.4508 9.81197 7.4172 9.80978C9.06832 9.80383 10.6732 10.3656 11.9727 11.4044C12.176 11.5662 12.3711 11.7385 12.5572 11.9206L13 12.355L12.1482 13.2581L11.7054 12.8237C11.5503 12.6714 11.3876 12.5274 11.2179 12.3923C10.1336 11.526 8.79464 11.0575 7.4172 11.0625C5.88268 11.0644 4.40339 11.6467 3.26562 12.6969C2.12785 13.747 1.41249 15.1902 1.25799 16.7473H8.21325V18Z" fill="#021627"/>
<path d="M16 17H10V18H16V17Z" fill="#021627"/>
<path d="M12.5 14.5L12.5 20.5L13.5 20.5L13.5 14.5L12.5 14.5Z" fill="#021627"/>
</svg>
