<svg width="36" height="36" viewBox="0 0 36 36" fill="none" xmlns="http://www.w3.org/2000/svg">
<circle cx="18" cy="18" r="18" fill="#E18E25"/>
<path d="M17.1875 13.9375H9.875V26.125H26.125V13.9375" stroke="white" stroke-linecap="round" stroke-linejoin="round"/>
<path d="M11.5 13.9375H9.875V26.125H11.5V13.9375Z" fill="white"/>
<path d="M12.7188 25.7188V14.3438" stroke="white" stroke-linecap="round" stroke-linejoin="round"/>
<path d="M23.2488 15.002L20.7625 17.4801L18.2763 14.9939C17.9502 14.6679 17.6916 14.2809 17.5152 13.855C17.3388 13.4292 17.248 12.9727 17.248 12.5117C17.248 12.0507 17.3388 11.5942 17.5152 11.1683C17.6916 10.7424 17.9502 10.3554 18.2763 10.0295C18.9359 9.37059 19.8301 9.00049 20.7625 9.00049C21.6949 9.00049 22.5891 9.37059 23.2488 10.0295C23.576 10.3556 23.8356 10.7431 24.0128 11.1697C24.1899 11.5963 24.2811 12.0538 24.2811 12.5157C24.2811 12.9777 24.1899 13.4351 24.0128 13.8618C23.8356 14.2884 23.576 14.6759 23.2488 15.002Z" stroke="white" stroke-linecap="round" stroke-linejoin="round"/>
<path d="M20.7625 14.1163C21.6644 14.1163 22.3956 13.3852 22.3956 12.4832C22.3956 11.5813 21.6644 10.8501 20.7625 10.8501C19.8605 10.8501 19.1294 11.5813 19.1294 12.4832C19.1294 13.3852 19.8605 14.1163 20.7625 14.1163Z" stroke="white" stroke-linecap="round" stroke-linejoin="round"/>
</svg>
