<svg width="119" height="120" viewBox="0 0 119 120" fill="none" xmlns="http://www.w3.org/2000/svg">
    <path
        d="M74.9322 10.9241C74.7698 9.85493 74.269 9.47373 73.1953 9.47373C70.0464 9.47824 66.8976 9.50305 63.7487 9.54817C63.4885 9.55117 63.2292 9.56696 62.9705 9.59553C61.9397 9.70606 61.0622 10.6737 60.6923 11.5557C60.4983 12.0143 60.4013 12.7467 60.4013 13.7527C60.4013 36.9647 60.4013 60.1767 60.4013 83.3888C60.4013 83.4609 60.3697 83.5143 60.3066 83.5489L59.3119 84.1015C59.2835 84.1175 59.252 84.1274 59.2196 84.1306C59.1871 84.1337 59.1543 84.1301 59.1231 84.1199C59.092 84.1098 59.0633 84.0933 59.0387 84.0715C59.0141 84.0497 58.9942 84.0231 58.9803 83.9933C58.2765 82.479 57.2314 81.2625 55.8449 80.3437C55.8006 80.3145 55.7642 80.2747 55.7391 80.2279C55.7139 80.181 55.7006 80.1286 55.7006 80.0752V72.4016C55.7006 72.3222 55.7241 72.2445 55.7682 72.1782C57.0923 70.2181 58.1773 68.3346 58.8246 65.9865C60.4013 60.2662 59.2622 54.3429 55.7773 49.5361C55.7337 49.476 55.7119 49.4083 55.7119 49.3331C55.6833 31.2414 55.6833 18.9136 55.7119 12.3497C55.7276 8.74967 57.9855 5.17448 61.8156 4.6602C62.2983 4.59553 62.9314 4.5632 63.7149 4.5632C77.5991 4.55869 91.4833 4.55944 105.367 4.56546C107.095 4.56696 108.306 4.67223 108.999 4.88125C111.379 5.59629 113.181 7.69177 113.808 10.0692C113.992 10.7655 114.083 11.9181 114.083 13.5271C114.085 44.5437 114.085 75.5609 114.083 106.579C114.083 109.739 111.76 113.066 108.516 113.725C108.077 113.814 106.822 113.858 104.749 113.858C90.8261 113.861 76.9028 113.86 62.9795 113.856C62.0081 113.854 61.2389 113.756 60.672 113.562C59.5156 113.162 58.5231 112.489 57.6946 111.541C57.6464 111.486 57.6532 111.438 57.7149 111.399L62.0637 108.638C62.1359 108.593 62.2111 108.587 62.2893 108.618C62.8021 108.827 63.2389 108.932 63.5998 108.932C77.4765 108.929 91.3532 108.929 105.23 108.934C106.287 108.935 107.059 108.829 107.546 108.614C108.625 108.14 109.243 107.253 109.401 105.952C109.64 103.98 109.387 101.249 109.385 99.494C109.373 77.2053 109.372 61.0707 109.383 51.0903C109.383 50.9685 109.464 50.8421 109.464 50.7136C109.471 38.3046 109.469 25.8955 109.457 13.4865C109.457 12.6143 109.356 11.9497 109.155 11.4925C108.785 10.6549 108.184 10.0752 107.352 9.75343C106.889 9.57448 106.104 9.48576 104.998 9.48726C102.213 9.49027 99.4322 9.48877 96.6562 9.48275C96.3735 9.48275 96.0464 9.53614 95.675 9.6429C95.6028 9.66245 95.5427 9.7008 95.4946 9.75794C95.1186 10.1985 94.9201 10.7121 94.8991 11.2985C94.8961 11.3677 94.8743 11.4309 94.8337 11.488C94.5314 11.9136 94.2359 12.1264 93.9472 12.1264C87.9878 12.1309 82.0284 12.1316 76.069 12.1286C75.7111 12.1286 75.4171 11.9888 75.187 11.7091C75.0773 11.5752 74.9923 11.3136 74.9322 10.9241Z"
        fill="white" />
    <path
        d="M84.909 44.1136C91.3446 44.1136 96.5616 38.8966 96.5616 32.461C96.5616 26.0254 91.3446 20.8083 84.909 20.8083C78.4734 20.8083 73.2563 26.0254 73.2563 32.461C73.2563 38.8966 78.4734 44.1136 84.909 44.1136Z"
        fill="white" />
    <path
        d="M40.7322 31.6196H40.6375C39.8663 31.6196 39.2412 32.2447 39.2412 33.0159V40.0399C39.2412 40.8111 39.8663 41.4362 40.6375 41.4362H40.7322C41.5033 41.4362 42.1284 40.8111 42.1284 40.0399V33.0159C42.1284 32.2447 41.5033 31.6196 40.7322 31.6196Z"
        fill="white" />
    <path
        d="M33.3359 46.1143C33.3359 46.2121 33.3803 46.2406 33.469 46.2C37.4825 44.3459 41.5517 44.0549 45.6765 45.3271C46.3427 45.5331 47.0269 45.8188 47.7292 46.1842C47.9096 46.2775 47.9998 46.2226 47.9998 46.0196C47.9878 42.8286 47.9901 39.585 48.0066 36.2887C48.0096 35.9053 48.175 35.5782 48.5028 35.3075C48.7795 35.082 49.1013 34.9715 49.4683 34.976C50.6231 34.9918 50.9074 35.8692 50.9074 36.909C50.9043 40.6519 50.9059 44.3948 50.9119 48.1376C50.9119 48.2128 50.9419 48.273 51.0021 48.3181C56.3525 52.4797 58.2991 59.9436 56.0209 66.2707C53.3525 73.6782 46.0803 78.1151 38.2397 76.9782C31.1728 75.9519 25.5653 70.2496 24.566 63.0745C24.4653 62.3421 24.4141 61.6842 24.4126 61.1008C24.4051 55.8933 26.4006 51.6128 30.3991 48.2594C30.4577 48.2098 30.4871 48.1466 30.4871 48.0699C30.5171 44.2519 30.5171 40.4271 30.4871 36.5955C30.4765 35.2857 31.1465 34.7737 32.4968 35.0594C32.7179 35.106 32.9292 35.2887 33.1307 35.6075C33.2615 35.8136 33.3269 36.0699 33.3269 36.3767C33.3269 39.6519 33.3299 42.8978 33.3359 46.1143ZM42.2006 71.8241C45.6292 71.1294 48.1013 67.7278 47.3502 64.1978C46.8013 61.6233 45.1803 60.0391 42.4871 59.4451C40.7457 59.0617 38.5352 59.8196 37.4096 57.9203C36.5728 56.5105 37.0171 54.6 38.2961 53.6098C40.0916 52.2203 42.6472 52.8226 43.9352 54.6248C44.3893 55.2609 44.6765 55.6218 44.7968 55.7075C45.2495 56.0263 45.7577 56.0542 46.3216 55.791C47.2419 55.3624 47.454 54.6369 46.9577 53.6143C46.0104 51.6639 44.4878 50.4263 42.3901 49.9015C42.3134 49.8835 42.272 49.8354 42.266 49.7572C42.2186 49.1549 42.3269 48.4963 42.0901 47.9684C41.5983 46.8654 40.1006 46.8158 39.4713 47.7181C39.0743 48.291 39.169 49.1324 39.1713 49.8293C39.1713 49.906 39.1337 49.9534 39.0585 49.9715C36.7246 50.4933 35.1562 51.8068 34.3532 53.9121C32.7427 58.1346 35.4743 62.5421 40.1164 62.5218C41.9209 62.5128 43.7976 62.7519 44.2848 64.6918C44.9637 67.3805 42.5953 69.3632 39.9179 68.8647C38.7419 68.6466 37.8449 67.9752 37.2269 66.8504C36.7013 65.8985 35.6705 65.3707 34.7096 66.1444C33.9043 66.7963 34.0803 67.6872 34.5449 68.5263C35.4908 70.2286 36.9367 71.3293 38.8825 71.8286C38.9577 71.8481 38.9916 71.8963 38.984 71.973C38.869 73.1684 39.178 74.8557 40.8269 74.603C42.2457 74.382 42.0833 73.0173 42.0968 71.9481C42.0983 71.879 42.1329 71.8376 42.2006 71.8241Z"
        fill="white" />
    <path
        d="M86.1362 53.6098C86.0099 53.4835 85.9325 53.5091 85.9039 53.6865L84.8708 60.2324C84.8558 60.3241 84.8031 60.3767 84.7129 60.3903C81.4422 60.9031 78.4385 61.8903 75.7016 63.3519C74.037 64.2421 72.5783 65.4873 71.3257 67.0873C71.3059 67.1126 71.281 67.1331 71.2529 67.1472C71.2247 67.1613 71.1941 67.1685 71.1633 67.1685L63.9498 67.1662C63.867 67.1662 63.8257 67.1256 63.8257 67.0444C63.7964 62.7384 63.5482 59.7745 64.755 56.4655C66.731 51.0609 71.3392 47.3324 76.9873 46.4053C77.9513 46.2474 79.4505 46.1707 81.4851 46.1752C83.6655 46.1782 85.846 46.179 88.0264 46.1775C90.1543 46.1745 91.655 46.2339 92.5287 46.3557C97.2911 47.0173 100.995 49.4068 103.64 53.5241C104.577 54.9828 105.24 56.6196 105.629 58.4346C106.169 60.9542 105.972 64.2181 105.97 67.0444C105.97 67.1271 105.928 67.1685 105.844 67.1685L99.8888 67.1662C99.8001 67.1662 99.7234 67.1346 99.6588 67.0715L86.1362 53.6098Z"
        fill="white" />
    <path
        d="M87.0404 73.5046C85.3727 73.4098 83.8412 73.4955 82.4457 73.7617C81.9088 73.864 81.2584 74.0865 80.4945 74.4294C77.6592 75.7038 76.9419 78.0339 77.2284 81.061C77.3878 82.7392 77.8194 84.3617 78.5231 85.9286C78.5562 86.0023 78.5344 86.0271 78.4577 86.0031C77.3028 85.6482 76.2246 85.161 75.2231 84.5414C72.9359 83.1264 71.5833 81.1865 71.1652 78.7219C70.7968 76.558 70.9051 74.4204 71.49 72.3091C73.4479 65.2264 80.7562 63.6158 86.9524 62.5241C87.0171 62.5121 87.0539 62.4745 87.063 62.4113L87.6088 58.8407C87.6284 58.7068 87.6863 58.688 87.7825 58.7843L97.7006 68.6685C97.7119 68.68 97.7209 68.6936 97.727 68.7086C97.733 68.7236 97.736 68.7396 97.7358 68.7558C97.7356 68.772 97.7322 68.7879 97.7257 68.8027C97.7193 68.8176 97.71 68.831 97.6983 68.8422L87.7554 78.2437C87.6878 78.3083 87.6487 78.294 87.6381 78.2008L87.1329 73.5925C87.1269 73.5369 87.096 73.5076 87.0404 73.5046Z"
        fill="white" />
    <path
        d="M56.8061 85.4617L46.9737 90.9023C46.9106 90.9384 46.8429 90.9512 46.7707 90.9407C44.3301 90.6181 41.9188 90.0565 40.4865 88.1685C40.4735 88.1514 40.4643 88.1317 40.4596 88.1108C40.455 88.0898 40.4549 88.0681 40.4594 88.0471C40.4639 88.0261 40.4728 88.0063 40.4857 87.9891C40.4986 87.9719 40.515 87.9577 40.5339 87.9474C43.3459 86.4076 46.1421 84.8805 48.9226 83.3662C50.4519 82.5332 51.5361 82.0798 52.1752 82.0061C54.467 81.7422 55.87 83.3956 56.8602 85.2813C56.9008 85.358 56.8828 85.4181 56.8061 85.4617Z"
        fill="white" />
    <path
        d="M71.4563 86.7903C71.4443 86.8129 71.433 86.8354 71.4225 86.858C71.4134 86.8745 71.4007 86.8873 71.3841 86.8963L58.7458 93.961C58.618 94.0332 58.5059 94.0136 58.4097 93.9023C57.754 93.1535 56.9819 92.5753 56.0931 92.1677C54.6789 91.5181 52.7999 91.4414 51.1849 91.4911C51.1683 91.4912 51.1521 91.4858 51.1389 91.4756C51.1258 91.4655 51.1164 91.4513 51.1122 91.4352C51.1081 91.4191 51.1094 91.4021 51.116 91.3869C51.1227 91.3717 51.1342 91.3591 51.1488 91.3512C55.2736 89.1286 59.3465 86.9234 63.3676 84.7354C64.1871 84.2903 65.0683 84.0016 66.0112 83.8693C68.445 83.5241 70.536 84.4738 71.7608 86.6302C71.8195 86.7309 71.7901 86.7775 71.6728 86.77L71.5082 86.7587C71.4841 86.7572 71.4668 86.7677 71.4563 86.7903Z"
        fill="white" />
    <path
        d="M29.321 108.192L29.2421 108.203C29.1624 108.212 29.0872 108.198 29.0165 108.16C27.3541 107.258 25.7887 106.459 23.8398 106.68C22.3714 106.845 20.9887 107.65 19.6218 108.442C18.8804 108.872 18.0451 108.999 17.1158 108.823C17.0556 108.811 17.0218 108.775 17.0143 108.715L14.5894 88.9827C14.5789 88.9045 14.609 88.8496 14.6797 88.8181C18.4128 87.088 22.3534 85.2835 26.497 85.2361C31.3015 85.182 35.3819 86.594 38.7812 90.0564C40.1729 91.4752 41.118 92.0797 43.1549 92.6572C45.3428 93.2797 47.5744 93.6699 49.8496 93.8278C51.0135 93.909 52.1774 93.991 53.3413 94.0737C55.3353 94.2136 56.4067 94.9083 57.1511 96.7714C58.3691 99.8233 55.7774 102.686 52.6646 102.395C46.9143 101.853 41.1631 101.319 35.4113 100.791C35.0864 100.762 34.8158 100.811 34.5992 100.938C33.8346 101.382 33.821 103.205 34.9398 103.272C35.2391 103.29 35.3962 103.301 35.4113 103.304C40.8549 104.035 45.9864 104.552 50.806 104.856C52.3037 104.948 54.1894 104.973 55.5789 104.468C58.924 103.256 60.5752 99.882 59.7248 96.4083C59.7052 96.3316 59.7308 96.2737 59.8015 96.2346C64.5955 93.5579 69.3827 90.885 74.1631 88.2158C75.0676 87.7105 75.8526 87.388 76.8947 87.5143C77.8707 87.6316 78.6902 88.0136 79.3534 88.6602C80.815 90.0857 80.9639 92.5173 79.7255 94.1211C79.3601 94.5963 78.5534 95.2278 77.3052 96.0158C69.7323 100.799 62.1594 105.582 54.5864 110.364C52.8436 111.465 51.5353 112.202 50.6616 112.574C47.0902 114.092 43.4421 114.28 39.7173 113.141C38.8105 112.864 37.4323 112.268 35.5827 111.354C33.527 110.339 31.4691 109.331 29.409 108.329C29.4015 108.325 29.3962 108.319 29.3932 108.311L29.3594 108.217C29.3534 108.199 29.3406 108.19 29.321 108.192Z"
        fill="white" />
    <path
        d="M11.9097 87.5503L14.7901 111.207C14.7927 111.226 14.788 111.244 14.777 111.259C14.766 111.274 14.7497 111.284 14.7315 111.286L5.09311 112.541C5.08339 112.542 5.07351 112.541 5.06411 112.538C5.05471 112.535 5.04601 112.531 5.03856 112.524C5.03112 112.518 5.0251 112.51 5.02089 112.501C5.01669 112.492 5.0144 112.483 5.01416 112.473V88.4954C5.01402 88.4784 5.02014 88.4618 5.03136 88.4489C5.04258 88.436 5.05812 88.4277 5.07506 88.4255L11.8307 87.4894C11.8399 87.4882 11.8493 87.4887 11.8582 87.4911C11.8672 87.4935 11.8756 87.4977 11.8829 87.5033C11.8903 87.509 11.8964 87.5161 11.901 87.5241C11.9056 87.5322 11.9085 87.5411 11.9097 87.5503Z"
        fill="white" />
</svg>
