<svg width="30" height="31" viewBox="0 0 30 31" fill="none" xmlns="http://www.w3.org/2000/svg">
<path d="M23.0048 30.1854H7.90653C4.21858 30.1854 1.20117 27.168 1.20117 23.4801V8.37626C1.20117 4.68831 4.21858 1.6709 7.90653 1.6709H23.0048C26.6927 1.6709 29.7101 4.68831 29.7101 8.37626V23.4745C29.7101 27.168 26.6927 30.1854 23.0048 30.1854Z" fill="#7CCBBC"/>
<path d="M21.8036 28.5089H6.70536C3.01741 28.5089 0 25.4915 0 21.8036V6.70536C0 3.01741 3.01741 0 6.70536 0H21.8036C25.4916 0 28.509 3.01741 28.509 6.70536V21.8036C28.509 25.4915 25.4916 28.5089 21.8036 28.5089Z" fill="#00A099"/>
<path d="M6.22486 18.6633L13.3381 14.4669L6.19693 10.2537V18.4063C6.19693 18.4901 6.2081 18.5795 6.22486 18.6633Z" fill="white"/>
<path d="M13.6511 14.6514L6.34222 18.9596C6.5378 19.3004 6.89543 19.5295 7.31451 19.5295H21.3064C21.759 19.5295 22.1501 19.2557 22.3289 18.8701L15.171 14.6514L14.411 15.0984L13.6511 14.6514Z" fill="white"/>
<path d="M22.435 18.4064V10.3711L15.4893 14.467L22.4182 18.5572C22.4294 18.5069 22.435 18.4566 22.435 18.4064Z" fill="white"/>
<path d="M7.32016 8.72266C6.69991 8.72266 6.19702 9.22556 6.19702 9.8458V9.87934L14.4167 14.724L22.4407 9.99667V9.8458C22.4407 9.22556 21.9379 8.72266 21.3176 8.72266H7.32016Z" fill="white"/>
</svg>
