<svg width="243" height="243" viewBox="0 0 243 243" fill="none" xmlns="http://www.w3.org/2000/svg">
    <path
        d="M121.5 12.1499C61.2025 12.1499 12.1499 61.2025 12.1499 121.5C12.1499 181.797 61.2025 230.85 121.5 230.85C181.797 230.85 230.85 181.797 230.85 121.5C230.85 61.2025 181.797 12.1499 121.5 12.1499Z"
        fill="white" />
    <path
        d="M156.12 112.185C152.016 96.1633 137.766 84.2401 120.698 84.2401C100.444 84.2401 83.9728 100.951 83.9728 121.5C83.9728 142.049 100.444 158.76 120.698 158.76C137.766 158.76 152.016 146.837 156.12 130.815H174.96C170.571 157.204 147.949 177.39 120.698 177.39C90.3171 177.39 65.6101 152.323 65.6101 121.5C65.6101 90.6768 90.3171 65.6101 120.698 65.6101C147.939 65.6101 170.562 85.7957 174.96 112.185H156.12Z"
        fill="#272B40" />
    <path
        d="M121.092 130.41H145.8C143.996 135.607 140.653 140.109 136.229 143.3C131.806 146.49 126.518 148.212 121.092 148.23C106.58 148.23 94.77 136.237 94.77 121.5C94.77 106.763 106.58 94.77 121.092 94.77C132.516 94.77 142.168 102.246 145.8 112.59H121.092C118.765 112.59 116.533 113.529 114.888 115.2C113.243 116.871 112.318 119.137 112.318 121.5C112.318 123.863 113.243 126.129 114.888 127.8C116.533 129.471 118.765 130.41 121.092 130.41Z"
        fill="#272B40" />
    <path
        d="M184.708 112.422H212.21C217.103 112.422 221.041 116.482 221.112 121.5H221.13C221.09 96.2926 211.889 72.016 195.343 53.46L170.1 79.4883C177.937 88.7912 183.008 100.225 184.708 112.422Z"
        fill="#272B40" />
    <path
        d="M212.073 130.557H184.176C179.757 161.234 153.373 184.901 121.5 184.901C86.5481 184.901 58.0992 156.461 58.0992 121.5C58.0992 86.539 86.5481 58.0992 121.5 58.0992C137.35 58.0992 151.824 63.9864 162.955 73.6415L188.56 48.0366C170.277 31.2176 146.343 21.8789 121.5 21.8701C66.5678 21.8701 21.8701 66.5678 21.8701 121.5C21.8701 176.432 66.5678 221.13 121.5 221.13C176.432 221.13 221.13 176.432 221.13 121.5C221.13 123.902 220.176 126.206 218.477 127.905C216.779 129.603 214.475 130.557 212.073 130.557Z"
        fill="#272B40" />
    <path
        d="M148.351 130.416H123.309C122.071 130.41 120.848 130.141 119.722 129.626C118.595 129.111 117.59 128.362 116.773 127.429L116.64 127.438L134.746 145.591C141.09 142.516 145.976 137.067 148.351 130.416ZM175.866 130.416H157.618C155.228 139.528 149.361 147.332 141.282 152.144L154.043 164.938C165.319 156.878 173.465 144.672 175.866 130.416ZM212.237 130.416H184.847C182.467 146.778 173.719 161.528 160.517 171.438L185.843 196.83C196.886 187.646 205.773 176.133 211.872 163.113C217.971 150.093 221.132 135.885 221.13 121.5C221.13 123.865 220.193 126.132 218.525 127.804C216.858 129.477 214.596 130.416 212.237 130.416Z"
        fill="url(#paint0_linear_346_5216)" />
    <path
        d="M64.3493 71.7566C66.1508 71.7544 67.9113 71.2108 69.4086 70.1943C70.906 69.1778 72.0732 67.734 72.7628 66.0451C73.4525 64.3562 73.6339 62.4978 73.284 60.7044C72.934 58.9111 72.0686 57.263 70.7967 55.9683C69.0702 54.3229 66.7806 53.4238 64.4124 53.4611C62.0443 53.4984 59.7833 54.4693 58.108 56.1683C56.4326 57.8672 55.4743 60.161 55.4359 62.5643C55.3974 64.9676 56.2818 67.2917 57.9019 69.045C58.7476 69.9057 59.7526 70.5883 60.859 71.0536C61.9655 71.519 63.1516 71.7579 64.3493 71.7566ZM173.973 173.752C173.123 174.61 172.449 175.631 171.99 176.756C171.531 177.881 171.297 179.087 171.301 180.304C171.299 181.519 171.533 182.723 171.991 183.845C172.449 184.968 173.12 185.988 173.968 186.847C174.816 187.705 175.822 188.385 176.929 188.847C178.037 189.309 179.223 189.545 180.421 189.54C181.619 189.545 182.806 189.309 183.914 188.846C185.022 188.383 186.029 187.703 186.877 186.843C187.724 185.984 188.396 184.963 188.853 183.839C189.31 182.715 189.544 181.51 189.54 180.295C189.531 178.468 188.991 176.686 187.987 175.17C186.984 173.654 185.562 172.472 183.899 171.774C182.237 171.075 180.408 170.89 178.642 171.242C176.876 171.593 175.252 172.467 173.973 173.752ZM40.3106 112.144C37.9626 112.25 35.7455 113.272 34.1211 114.996C32.4967 116.72 31.5901 119.013 31.5901 121.398C31.5901 123.784 32.4967 126.077 34.1211 127.801C35.7455 129.525 37.9626 130.546 40.3106 130.653C42.6587 130.546 44.8758 129.525 46.5002 127.801C48.1246 126.077 49.0312 123.784 49.0312 121.398C49.0312 119.013 48.1246 116.72 46.5002 114.996C44.8758 113.272 42.6587 112.25 40.3106 112.144ZM57.9019 173.752C57.0515 174.61 56.3775 175.631 55.9188 176.756C55.4601 177.881 55.226 179.087 55.2299 180.304C55.2275 181.519 55.4619 182.723 55.9196 183.845C56.3772 184.968 57.0491 185.988 57.8967 186.847C58.7442 187.705 59.7506 188.385 60.858 188.847C61.9654 189.309 63.1519 189.545 64.3493 189.54C65.5475 189.545 66.7347 189.309 67.8427 188.846C68.9507 188.383 69.9575 187.703 70.8052 186.843C71.6528 185.984 72.3246 184.963 72.7817 183.839C73.2388 182.715 73.4723 181.51 73.4687 180.295C73.4597 178.468 72.9195 176.686 71.916 175.17C70.9125 173.654 69.4903 172.472 67.8277 171.774C66.1652 171.075 64.3363 170.89 62.5705 171.242C60.8047 171.593 59.1806 172.467 57.9019 173.752ZM61.1211 177.018L64.3402 180.285L64.3493 180.295L61.1211 177.018Z"
        fill="white" />
    <path
        d="M122.917 128.79H209.992C212.302 128.79 214.517 128.022 216.15 126.655C217.783 125.288 218.7 123.433 218.7 121.5C218.7 119.567 217.783 117.712 216.15 116.345C214.517 114.978 212.302 114.21 209.992 114.21H122.917C120.608 114.21 118.393 114.978 116.76 116.345C115.127 117.712 114.21 119.567 114.21 121.5C114.21 123.433 115.127 125.288 116.76 126.655C118.393 128.022 120.608 128.79 122.917 128.79Z"
        fill="white" />
    <path
        d="M121.5 12.1499C61.2025 12.1499 12.1499 61.2025 12.1499 121.5C12.1499 181.797 61.2025 230.85 121.5 230.85C181.797 230.85 230.85 181.797 230.85 121.5C230.85 61.2025 181.797 12.1499 121.5 12.1499Z"
        fill="url(#paint1_linear_346_5216)" />
    <circle cx="120.893" cy="40.7026" r="9.1125" fill="white" />
    <circle cx="120.893" cy="201.082" r="9.1125" fill="white" />
    <defs>
        <linearGradient id="paint0_linear_346_5216" x1="144.243" y1="99.7721" x2="213.92"
            y2="169.26" gradientUnits="userSpaceOnUse">
            <stop stop-opacity="0.23" />
            <stop offset="1" stop-opacity="0.08" />
        </linearGradient>
        <linearGradient id="paint1_linear_346_5216" x1="22.4015" y1="75.2904" x2="220.598"
            y2="167.709" gradientUnits="userSpaceOnUse">
            <stop stop-color="white" stop-opacity="0.2" />
            <stop offset="1" stop-color="white" stop-opacity="0" />
        </linearGradient>
    </defs>
</svg>
