<svg width="19" height="19" viewBox="0 0 19 19" fill="none" xmlns="http://www.w3.org/2000/svg">
<path d="M9.50157 0.287842C5.74187 0.287842 2.68457 3.34511 2.68457 7.10481C2.68457 8.48087 3.08763 9.77921 3.80733 10.8645L4.58748 10.0844C4.05775 9.20633 3.76127 8.18724 3.76127 7.10481C3.76127 3.93814 6.33493 1.36451 9.5016 1.36451C12.6654 1.36451 15.239 3.93814 15.239 7.10481C15.239 8.25345 14.9051 9.33299 14.312 10.2456L15.0864 11.02C15.8723 9.90299 16.3156 8.54708 16.3156 7.10481C16.3156 3.34511 13.2584 0.287842 9.50157 0.287842ZM11.4159 12.5169L9.50157 16.3198L7.58427 12.5169C7.44286 12.4483 6.64454 12.2379 5.70157 11.4115L4.93869 12.1744C5.4799 12.6609 6.10751 13.0639 6.80414 13.3633L9.50157 18.7121L12.1961 13.3633C12.8323 13.0898 13.4138 12.73 13.9234 12.2981L13.1576 11.5324C12.3379 12.2026 11.483 12.485 11.4159 12.5169Z" fill="white"/>
<path d="M13.2495 6.93785C13.2495 9.00609 11.5658 10.686 9.50136 10.686C7.43312 10.686 5.75317 9.00609 5.75317 6.93785C5.75317 4.86964 7.43312 3.1897 9.50136 3.1897C11.5658 3.18967 13.2495 4.86964 13.2495 6.93785Z" fill="white"/>
</svg>
