<svg width="515" height="463" viewBox="0 0 515 463" fill="none" xmlns="http://www.w3.org/2000/svg">
<circle cx="290.671" cy="32.5877" r="32.5877" fill="#1B7AC8"/>
<path d="M258.083 69.8867V69.8867C295.38 69.8867 325.615 100.121 325.615 137.418V271.695V271.695C288.318 271.695 258.083 241.46 258.083 204.164V69.8867Z" fill="#1B7AC8"/>
<path d="M259.828 69.1016H188.982C201.127 127.311 241.273 137.872 259.828 135.877C301.784 135.877 321.167 173.025 325.614 191.6V130.351C325.614 93.0486 285.591 69.1016 259.828 69.1016Z" fill="#F5BC04"/>
<path d="M262.846 321.679C262.239 322.286 262.037 328.626 262.037 345.961V369.433L258.597 367.072C248.614 360.193 232.359 359.788 219.881 365.993C202.816 374.492 193.778 392.568 194.79 415.973C195.262 426.292 196.476 431.284 200.523 439.58C203.019 444.773 204.638 446.999 208.752 451.046C216.913 459.208 225.209 462.715 236.406 462.715C246.456 462.715 254.212 459.882 260.89 453.812C262.913 451.923 264.802 450.372 265.004 450.372C265.207 450.372 265.409 451.383 265.409 452.665C265.409 453.879 265.611 456.307 265.814 458.061L266.286 461.164H279.978C289.151 461.164 293.805 460.894 294.142 460.422C294.884 459.14 294.412 322.691 293.603 321.747C292.591 320.533 264.06 320.465 262.846 321.679ZM253.066 388.926C256.438 390.612 259.608 394.119 260.755 397.559C261.767 400.392 262.104 419.885 261.16 424.134C260.35 428.114 257.045 432.43 253.268 434.454C246.995 437.826 238.497 436.545 233.641 431.351C229.796 427.237 228.177 422.583 227.773 414.556C227.3 403.765 229.324 396.75 234.517 391.556C239.036 387.037 247.13 385.891 253.066 388.926Z" fill="#1B7AC8"/>
<path d="M361.481 385.641C360.875 384.493 306.945 384.493 306.339 385.641C305.732 386.79 305.732 418.003 306.339 419.151C306.945 420.3 360.875 420.3 361.481 419.151C362.087 418.003 362.087 386.79 361.481 385.641Z" fill="#1B7AC8"/>
<path d="M139.279 357.697C133.276 358.978 125.924 362.755 121.473 366.802L117.763 370.175L117.358 366.937C117.156 365.184 116.819 362.553 116.617 361.137L116.212 358.641H102.182C91.9302 358.641 87.9508 358.843 87.6135 359.45C86.8041 360.732 87.3437 460.017 88.1531 461.029C88.6927 461.636 92.8071 461.838 104.611 461.838C119.449 461.838 120.394 461.77 121.068 460.556C121.473 459.68 121.743 448.348 121.743 428.316V397.424L123.361 393.984C125.924 388.521 131.185 384.946 136.919 384.946C143.124 384.946 147.643 388.454 149.734 394.861C150.948 398.436 151.083 401.539 151.42 430.137L151.757 461.501L167.54 461.703C179.007 461.838 183.526 461.636 184.268 461.029C185.077 460.354 185.212 455.026 185.01 424.808L184.74 389.33L182.919 383.26C178.467 368.961 169.631 360.395 156.479 357.629C150.678 356.415 145.08 356.415 139.279 357.697Z" fill="#1B7AC8"/>
<circle cx="52.9943" cy="337.28" r="17.2807" fill="#1B7AC8"/>
<path d="M35.7136 356.865V356.865C54.8014 356.865 70.275 372.339 70.275 391.427V461.701V461.701C51.1873 461.701 35.7136 446.228 35.7136 427.14V356.865Z" fill="#1B7AC8"/>
<path d="M36.4388 355.713H0C6.24665 386.369 26.8953 391.932 36.4388 390.881C58.0181 390.881 67.9875 410.445 70.2748 420.227V387.97C70.2748 368.325 49.6893 355.713 36.4388 355.713Z" fill="#F5BC04"/>
<mask id="mask0_86_189" style="mask-type:luminance" maskUnits="userSpaceOnUse" x="371" y="320" width="144" height="142">
<path d="M371.147 320.277H415.278L442.608 362.993L469.734 320.277H514.878L466.292 392.75L512.854 461.985H468.722L443.418 422.104L418.315 461.985H373.171L419.733 392.346L402.952 367.455L404.546 364.498L414.227 346.532H394.864H388.847L371.147 320.277Z" fill="white"/>
</mask>
<g mask="url(#mask0_86_189)">
<path d="M514.879 461.985H371.147V320.278H514.879V461.985Z" fill="#F5BC04"/>
</g>
<mask id="mask1_86_189" style="mask-type:luminance" maskUnits="userSpaceOnUse" x="377" y="351" width="30" height="28">
<path d="M392.093 378.073L399.193 364.897L406.293 351.722H392.093H377.894L384.993 364.897L392.093 378.073Z" fill="white"/>
</mask>
<g mask="url(#mask1_86_189)">
<path d="M406.292 378.073H377.894V351.722H406.292V378.073Z" fill="#1B7AC8"/>
</g>
<mask id="mask2_86_189" style="mask-type:luminance" maskUnits="userSpaceOnUse" x="367" y="371" width="16" height="14">
<path d="M375.051 384.558L378.602 377.969L382.152 371.382H375.051H367.952L371.502 377.969L375.051 384.558Z" fill="white"/>
</mask>
<g mask="url(#mask2_86_189)">
<path d="M382.152 384.558H367.952V371.382H382.152V384.558Z" fill="#1B7AC8"/>
</g>
<mask id="mask3_86_189" style="mask-type:luminance" maskUnits="userSpaceOnUse" x="364" y="346" width="11" height="10">
<path d="M369.611 355.862L372.247 350.969L374.883 346.077H369.611H364.338L366.974 350.969L369.611 355.862Z" fill="white"/>
</mask>
<g mask="url(#mask3_86_189)">
<path d="M374.884 355.862H364.338V346.077H374.884V355.862Z" fill="#1B7AC8"/>
</g>
<mask id="mask4_86_189" style="mask-type:luminance" maskUnits="userSpaceOnUse" x="373" y="320" width="142" height="142">
<path d="M466.292 392.75L443.418 422.104L418.315 461.985H373.171L419.733 392.346L442.607 362.993L469.734 320.277H514.878L466.292 392.75Z" fill="white"/>
</mask>
<g mask="url(#mask4_86_189)">
<path d="M514.878 461.985H373.171V320.278H514.878V461.985Z" fill="#F5BC04"/>
</g>
<path fill-rule="evenodd" clip-rule="evenodd" d="M417.078 388.408L439.808 358.617L442.607 362.992L419.733 392.346L417.078 388.408Z" fill="#D9A602"/>
<path fill-rule="evenodd" clip-rule="evenodd" d="M373.171 461.985L514.878 320.277L466.292 392.75L443.418 422.104L418.315 461.985H373.171Z" fill="url(#paint0_linear_86_189)"/>
<defs>
<linearGradient id="paint0_linear_86_189" x1="511.007" y1="322.585" x2="402.618" y2="461.942" gradientUnits="userSpaceOnUse">
<stop stop-color="#FCE2A6"/>
<stop offset="1" stop-color="#FCE2A6" stop-opacity="0"/>
</linearGradient>
</defs>
</svg>
