<svg width="70" height="70" viewBox="0 0 70 70" fill="none" xmlns="http://www.w3.org/2000/svg">
<g clip-path="url(#clip0_370_15201)">
<path d="M35 70C54.33 70 70 54.33 70 35C70 15.67 54.33 0 35 0C15.67 0 0 15.67 0 35C0 54.33 15.67 70 35 70Z" fill="#0F1419"/>
<path d="M46.5023 17H52.6359L39.2358 32.2492L55 53H42.6568L32.9891 40.4148L21.9271 53H15.7899L30.1226 36.6892L15 17H27.6565L36.3952 28.5034L46.5023 17ZM44.3496 49.3446H47.7483L25.8098 20.4634H22.1626L44.3496 49.3446Z" fill="white"/>
</g>
<defs>
<clipPath id="clip0_370_15201">
<rect width="70" height="70" fill="white"/>
</clipPath>
</defs>
</svg>
