<svg width="23" height="23" viewBox="0 0 23 23" fill="none" xmlns="http://www.w3.org/2000/svg">
<path d="M18.2083 2.15625H4.79167C3.33788 2.15625 2.15625 3.33788 2.15625 4.79167V8.625C2.15625 10.0788 3.33788 11.2604 4.79167 11.2604H5.98958V18.2083C5.98958 19.6621 7.17121 20.8438 8.625 20.8438H14.375C15.8288 20.8438 17.0104 19.6621 17.0104 18.2083V11.2604H18.2083C19.6621 11.2604 20.8438 10.0788 20.8438 8.625V4.79167C20.8438 3.33788 19.6621 2.15625 18.2083 2.15625ZM15.5729 18.2083C15.5729 18.8686 15.0353 19.4062 14.375 19.4062H8.625C7.96471 19.4062 7.42708 18.8686 7.42708 18.2083V7.42708H15.5729V18.2083ZM19.4062 8.625C19.4062 9.28529 18.8686 9.82292 18.2083 9.82292H17.0104V7.42708H17.25C17.6467 7.42708 17.9688 7.10508 17.9688 6.70833C17.9688 6.31158 17.6467 5.98958 17.25 5.98958H5.75C5.35325 5.98958 5.03125 6.31158 5.03125 6.70833C5.03125 7.10508 5.35325 7.42708 5.75 7.42708H5.98958V9.82292H4.79167C4.13137 9.82292 3.59375 9.28529 3.59375 8.625V4.79167C3.59375 4.13137 4.13137 3.59375 4.79167 3.59375H18.2083C18.8686 3.59375 19.4062 4.13137 19.4062 4.79167V8.625Z" fill="#021627"/>
<path d="M10.302 15.3334V17.2501C10.302 17.6468 9.98 17.9688 9.58325 17.9688C9.1865 17.9688 8.8645 17.6468 8.8645 17.2501V15.3334C8.8645 14.9367 9.1865 14.6147 9.58325 14.6147C9.98 14.6147 10.302 14.9367 10.302 15.3334ZM9.58325 9.823C9.1865 9.823 8.8645 10.145 8.8645 10.5417V12.4584C8.8645 12.8552 9.1865 13.1772 9.58325 13.1772C9.98 13.1772 10.302 12.8552 10.302 12.4584V10.5417C10.302 10.145 9.98 9.823 9.58325 9.823Z" fill="#272B40"/>
</svg>
