<?xml version="1.0" encoding="UTF-8" standalone="no"?>

<svg

    xmlns="http://www.w3.org/2000/svg" version="1.1"

    width="512" height="512" viewBox="0 0 512 512">


    <path style="fill:white"
        d="m 30.888053,510.50036 c -4.257329,-2.31382 -5.268485,-6.28278 -4.518037,-17.73407 2.818218,-43.00399 25.275232,-84.59455 59.589413,-110.36005 13.137016,-9.86419 24.543511,-15.08863 55.333911,-25.34423 l 27.79334,-9.25735 8.48528,-16.94838 8.48528,-16.94839 -4.87817,-5.70394 c -5.89644,-6.89458 -10.04056,-12.98216 -13.49657,-19.82603 l -2.58655,-5.12208 -8.29797,-0.4515 c -13.60995,-0.74053 -22.29103,-5.98097 -27.48125,-16.58941 -2.28357,-4.66745 -2.83196,-7.30372 -3.15803,-15.1816 l -0.39459,-9.53333 -5.09805,-3 c -6.33934,-3.73045 -11.16364,-9.96393 -13.24049,-17.10802 -1.3791,-4.74396 -1.53175,-11.1788 -1.14303,-48.18357 0.40132,-38.20379 0.66493,-43.72122 2.49928,-52.31087 C 121.91008,59.422262 167.71999,14.423841 229.5,2.3177966 243.24772,-0.37612592 271.07887,-0.09541127 285,2.8775888 318.64539,10.06291 345.4584,25.56759 368.52051,51.173506 385.30016,69.803995 397.28977,93.963456 403.17327,121 c 2.18622,10.04633 2.28585,12.4227 2.30584,55 l 0.0209,44.5 -2.79009,5.6816 c -3.17011,6.45548 -8.03341,11.16073 -14.6591,14.18271 -3.64466,1.66232 -7.09081,2.15141 -17.307,2.45624 -12.09226,0.36081 -12.78024,0.49249 -13.21814,2.53003 -0.25406,1.18218 -1.1507,6.0064 -1.99252,10.72049 -3.43986,19.26284 -11.9441,37.20338 -24.71222,52.13288 l -4.87817,5.70394 8.48528,16.94839 8.48528,16.94838 27.79334,9.2538 c 40.2759,13.40988 52.97423,20.56627 72.67411,40.95689 25.0274,25.90493 39.92732,59.3205 42.24921,94.75094 0.76003,11.59752 -0.27069,15.47943 -4.72117,17.78087 -4.18576,2.16454 -446.03653,2.11858 -450.020757,-0.0468 z M 232.84526,483.75 C 230.00261,479.2125 222.63747,468.075 216.47827,459 198.52922,432.55378 184.79494,406.90731 174.03803,379.75 171.69611,373.8375 169.45699,369 169.06221,369 c -2.65269,0 -49.2661,16.58298 -55.68439,19.81003 -16.055752,8.07268 -33.573831,23.67915 -44.116017,39.30199 -10.511247,15.577 -18.837815,36.13348 -21.220175,52.38798 -0.644891,4.4 -1.325947,8.7875 -1.513459,9.75 -0.322787,1.65687 4.763156,1.75 95.572301,1.75 h 95.91324 z m 231.9246,1.5 c -5.42278,-41.20237 -32.12187,-79.75869 -67.04055,-96.81366 -10.48343,-5.12031 -54.59673,-20.02754 -55.62897,-18.79872 -0.39844,0.47431 -2.44598,5.36238 -4.55009,10.86238 -9.50182,24.83711 -24.05116,52.01206 -42.02852,78.5 -6.1592,9.075 -13.52434,20.2125 -16.36699,24.75 l -5.16845,8.25 h 95.83598 95.83598 z m -42.68569,-20.51474 c -1.3287,-0.67939 -4.2537,-4.37816 -6.5,-8.21947 -2.35617,-4.02922 -8.03622,-11.01032 -13.42494,-16.5 -5.13742,-5.23369 -9.74992,-10.27371 -10.25,-11.20005 -1.82505,-3.38072 -0.97042,-6.95455 2.49077,-10.41574 3.60913,-3.60913 7.02186,-4.30902 10.91574,-2.23862 7.23473,3.84675 19.26415,16.97313 26.43419,28.84472 4.8734,8.06901 5.49978,10.46049 3.80329,14.52077 -2.42932,5.81419 -8.04063,7.98404 -13.46905,5.20839 z m -60.9741,-50.13077 C 352.44067,409.79941 356.06765,396 366,396 c 5.06687,0 10,4.88542 10,9.90329 0,7.50742 -8.29653,12.35565 -14.88993,8.7012 z m -97.37928,56.23029 c 3.72306,-5.86587 11.60671,-17.80868 17.51921,-26.53956 5.9125,-8.73089 10.75,-16.31111 10.75,-16.84492 0,-0.53382 -8.32432,-9.28577 -18.49849,-19.44879 l -18.49849,-18.47822 -4.42379,4.48836 c -11.59851,11.76777 -30.57919,32.5341 -30.57889,33.45567 1.9e-4,0.56797 4.90552,8.23268 10.90073,17.03268 5.99521,8.8 13.94183,20.85108 17.65914,26.78017 3.71732,5.9291 7.12835,10.6541 7.58006,10.5 0.45172,-0.15409 3.86745,-5.07952 7.59052,-10.94539 z M 219.68192,354.24109 198.5,332.98218 l -5.91719,11.88041 -5.9172,11.88041 4.80602,12.3785 c 2.64331,6.80818 7.69816,18.4535 11.233,25.8785 l 6.42698,13.5 15.86612,-16.5 15.86612,-16.5 z M 309.43348,394.75 c 3.45888,-7.2875 8.44929,-18.81446 11.08979,-25.61546 l 4.80092,-12.36547 -6.41209,-12.97286 c -3.52666,-7.13508 -6.71687,-13.16445 -7.08937,-13.39861 -0.3725,-0.23416 -10.15367,9.59309 -21.73594,21.83833 L 269.02813,374.5 l 16.7249,16.75 c 9.1987,9.2125 16.87491,16.75 17.05824,16.75 0.18333,0 3.16333,-5.9625 6.62221,-13.25 z M 263.67867,351 l 8.11909,-8.5 H 257.14888 C 249.092,342.5 240.925,342.15204 239,341.72676 c -3.34457,-0.73889 -3.07876,-0.35009 5.98517,8.75495 5.21685,5.24049 9.73025,9.41345 10.02979,9.27323 0.29954,-0.14022 4.1982,-4.07994 8.66371,-8.75494 z m 7.54682,-29.41613 c 15.47718,-2.96127 28.39198,-10.04563 40.27451,-22.09242 9.35293,-9.48222 16.47624,-20.81135 20.5427,-32.67172 4.90341,-14.30143 10.49487,-52.41032 12.53906,-85.46053 l 0.68907,-11.1408 -2.88541,-0.55862 c -1.58698,-0.30723 -7.77005,-1.29152 -13.74015,-2.1873 -21.97692,-3.29751 -45.23403,-11.68579 -64.75167,-23.35437 -8.87941,-5.30853 -13.99415,-9.09197 -30.39155,-22.48102 -2.18559,-1.78462 -2.6329,-1.79419 -10.64177,-0.22785 -11.80109,2.308 -25.08016,8.99721 -33.53867,16.89479 C 185.67179,141.71182 179.10543,149.225 174.7297,155 l -7.95587,10.5 0.6283,13 c 1.02462,21.20006 5.53995,58.7641 9.13495,75.99575 0.80371,3.85234 1.46165,7.34175 1.4621,7.75425 4.5e-4,0.4125 6.63832,0.73496 14.75082,0.71658 l 14.75,-0.0334 3,-5.18257 c 1.65,-2.85041 4.9424,-6.65649 7.31644,-8.45795 7.00913,-5.31865 12.99116,-6.52141 30.49424,-6.13123 14.24524,0.31755 15.54246,0.51202 20.87092,3.12869 10.71118,5.25997 16.26365,14.35977 16.29771,26.70991 0.0171,6.20993 -0.45923,8.47729 -2.7694,13.1816 -3.16538,6.44585 -8.01922,11.1471 -14.6591,14.19829 -6.26893,2.88072 -32.01343,3.64502 -40.42369,1.20009 -7.21614,-2.09779 -13.42002,-6.92646 -17.12712,-13.33056 l -3,-5.18257 -9.75,-0.0334 c -5.3625,-0.0184 -9.75,0.223 -9.75,0.5364 0,1.02854 5.69314,8.83489 9.9926,13.70171 7.43126,8.4119 20.81764,17.59005 31.01585,21.2655 12.0813,4.35413 29.00195,5.57531 42.21704,3.04684 z M 260.52794,281.80531 C 263.39394,280.49948 266,276.30596 266,273 c 0,-3.30596 -2.60606,-7.49948 -5.47206,-8.80531 C 258.96411,263.48216 253.10087,263 246,263 c -13.13465,0 -16.37912,0.89868 -18.575,5.14503 -2.62433,5.07489 -1.04677,10.8368 3.68507,13.45946 3.12757,1.73348 25.71563,1.88768 29.41787,0.20082 z M 155.86217,253.25 c -0.97689,-5.3625 -1.79551,-9.8625 -1.81917,-10 C 154.01935,243.1125 152.2,243 150,243 h -4 l 0.0354,6.25 c 0.0195,3.4375 0.63152,7.32547 1.36007,8.63993 1.52732,2.75562 5.17995,5.02337 8.17365,5.07463 l 2.06916,0.0354 -1.77615,-9.75 z m -5.28709,-36 c -1.4612,-11.9979 -3.51814,-37.00982 -3.55681,-43.25 -0.0222,-3.575 -0.31921,-8.1875 -0.66012,-10.25 L 145.73832,160 H 135.86916 126 l 0.0354,27.75 c 0.0378,29.64007 0.27043,31.19173 5.07463,33.85449 1.46387,0.81136 5.83378,1.33837 11.27761,1.36007 l 8.88768,0.0354 -0.70028,-5.75 z m 229.95286,4.55531 C 385.68041,219.4577 386,217.45701 386,187.54966 V 160 h -9.86916 -9.86916 l -0.61983,3.75 c -0.34091,2.0625 -0.63797,6.675 -0.66012,10.25 -0.0387,6.24018 -2.09561,31.2521 -3.55681,43.25 l -0.70028,5.75 h 8.59063 c 4.72484,0 9.77055,-0.53761 11.21267,-1.19469 z M 346,142.94155 C 346,101.27706 317.49085,67.548016 276.7144,60.970068 266.21576,59.276457 235.57172,60.204177 227,62.475125 c -20.8092,5.513088 -40.2069,20.618401 -50.87195,39.614845 -3.80629,6.77972 -7.85787,18.39259 -8.74186,25.05643 l -0.65056,4.90414 6.09101,-5.96004 c 14.98376,-14.66162 34.74263,-23.79004 55.58215,-25.67847 4.0801,-0.36972 8.61041,-0.37304 10.06737,-0.007 1.45696,0.36567 5.43335,3.24499 8.83643,6.39849 22.63752,20.97729 49.4753,34.38699 80.23301,40.08902 11.17566,2.07181 14.98613,2.72998 17.2044,2.97165 0.8948,0.0975 1.25,-1.86955 1.25,-6.92227 z m -200,-6.31056 c 0,-1.85296 0.68491,-7.29656 1.52202,-12.0969 7.02823,-40.302872 36.15086,-71.595177 76.10345,-81.773266 8.03966,-2.048136 11.13234,-2.25592 32.87453,-2.208697 22.58438,0.04905 24.56103,0.204293 33.51148,2.631895 42.12313,11.424915 71.38944,46.119638 75.55228,89.565978 l 0.69466,7.25 h 9.69992 9.69991 l -0.86653,-6.75 C 378.50856,84.306549 344.09014,42.572391 296.95951,26.748793 282.48035,21.887573 273.73776,20.5684 256,20.5684 c -17.65493,0 -26.40427,1.303832 -41,6.109842 C 179.39435,38.402295 148.96282,67.125323 135.19797,102 c -3.5623,9.02546 -6.93343,22.15946 -8.03386,31.30015 L 126.35752,140 H 136.17876 146 Z" />
</svg>
