<svg width="13" height="13" viewBox="0 0 13 13" fill="none" xmlns="http://www.w3.org/2000/svg">
<g clip-path="url(#clip0_93_121)">
<path fill-rule="evenodd" clip-rule="evenodd" d="M6.5 0C2.912 0 0 2.912 0 6.5C0 10.088 2.912 13 6.5 13C10.088 13 13 10.088 13 6.5C13 2.912 10.088 0 6.5 0ZM4.7385 9.2885L2.405 6.955C2.1515 6.7015 2.1515 6.292 2.405 6.0385C2.6585 5.785 3.068 5.785 3.3215 6.0385L5.2 7.9105L9.672 3.4385C9.9255 3.185 10.335 3.185 10.5885 3.4385C10.842 3.692 10.842 4.1015 10.5885 4.355L5.655 9.2885C5.408 9.542 4.992 9.542 4.7385 9.2885Z" fill="#038E44"/>
</g>
<defs>
<clipPath id="clip0_93_121">
<rect width="13" height="13" fill="white"/>
</clipPath>
</defs>
</svg>
