<svg width="30" height="31" viewBox="0 0 30 31" fill="none" xmlns="http://www.w3.org/2000/svg">
<path d="M23.0048 30.1855H7.90653C4.21858 30.1855 1.20117 27.1681 1.20117 23.4801V8.38187C1.20117 4.69393 4.21858 1.67651 7.90653 1.67651H23.0048C26.6927 1.67651 29.7101 4.69393 29.7101 8.38187V23.4801C29.7101 27.1681 26.6927 30.1855 23.0048 30.1855Z" fill="#7CCBBC"/>
<path d="M21.8036 28.5089H6.70536C3.01741 28.5089 0 25.4915 0 21.8036V6.70536C0 3.01741 3.01741 0 6.70536 0H21.8036C25.4916 0 28.509 3.01741 28.509 6.70536V21.8036C28.509 25.4915 25.4916 28.5089 21.8036 28.5089Z" fill="#00A099"/>
<path fill-rule="evenodd" clip-rule="evenodd" d="M14.5314 20.8714H14.5282C13.2785 20.8708 12.0502 20.5589 10.9591 19.9661L7 21L8.05976 17.1484C7.405 16.0185 7.06112 14.7367 7.0628 13.4323C7.06437 9.33437 10.4148 6 14.5309 6C16.5295 6.00104 18.4046 6.775 19.8145 8.17969C20.51 8.86894 21.0613 9.68862 21.4364 10.5913C21.8116 11.494 22.0031 12.4617 22 13.4385C21.9984 17.5354 18.6495 20.8693 14.5319 20.8708L14.5314 20.8714ZM11.1428 18.6208L11.3694 18.7547C12.3259 19.3184 13.4171 19.6158 14.5288 19.6156H14.5314C17.953 19.6156 20.7377 16.8448 20.7392 13.438C20.7418 12.6261 20.5826 11.8218 20.2708 11.0716C19.959 10.3213 19.5008 9.64005 18.9227 9.06719C18.348 8.49126 17.6642 8.03455 16.9108 7.72351C16.1575 7.41248 15.3496 7.2533 14.534 7.25521C11.1098 7.25521 8.3251 10.0266 8.32353 13.4328C8.32353 14.6 8.65114 15.737 9.27286 16.7208L9.42045 16.9542L8.79296 19.2344L11.1428 18.6208ZM18.0383 15.0385C18.1691 15.101 18.2565 15.1432 18.2942 15.2057C18.3408 15.2833 18.3408 15.6552 18.1853 16.0891C18.0299 16.5229 17.2841 16.9187 16.9257 16.9719C16.6043 17.0198 16.1972 17.0396 15.7502 16.899C15.3889 16.7872 15.0337 16.6565 14.6863 16.5073C12.9368 15.7552 11.7545 14.0677 11.5311 13.749C11.5154 13.7266 11.5049 13.7109 11.4981 13.7031L11.4971 13.701C11.3981 13.5698 10.7366 12.6906 10.7366 11.7818C10.7366 10.926 11.1585 10.4776 11.3531 10.2714L11.3898 10.2323C11.4521 10.1616 11.5284 10.1044 11.614 10.0644C11.6995 10.0245 11.7925 10.0025 11.8869 10C12.0115 10 12.1361 10.001 12.2449 10.0063C12.2585 10.0073 12.2721 10.0073 12.2868 10.0068C12.3951 10.0068 12.5312 10.0057 12.6646 10.3255C12.7164 10.4484 12.7913 10.6307 12.8708 10.8234C13.0315 11.2125 13.2089 11.6422 13.2403 11.7042C13.2869 11.7974 13.3178 11.9057 13.256 12.0297L13.2298 12.0828C13.1827 12.1776 13.1482 12.2474 13.0692 12.3396C13.0378 12.376 13.0058 12.4146 12.9734 12.4542C12.909 12.5318 12.8452 12.6094 12.7892 12.6651C12.6955 12.7573 12.5987 12.8578 12.707 13.0438C12.8164 13.2297 13.1906 13.838 13.7453 14.3302C14.3419 14.8599 14.86 15.0839 15.1228 15.1969C15.174 15.2193 15.2159 15.237 15.2463 15.2521C15.4326 15.3453 15.5414 15.3302 15.6503 15.2057C15.7591 15.0818 16.1171 14.6635 16.2417 14.4776C16.3657 14.2917 16.4902 14.3229 16.6614 14.3844C16.8325 14.4469 17.7499 14.8958 17.9362 14.9885L18.0383 15.0385Z" fill="#FDFDFD"/>
</svg>
