<svg id="vector" xmlns="http://www.w3.org/2000/svg" width="200" height="200" viewBox="0 0 200 200">
    <path fill="orange"
        d="M150.6,139.26c-0.88,-0 -1.74,-0.29 -2.44,-0.83c0,0 -3.07,-2.31 -11.54,-6.96c-12.97,-7.1 -18.94,-15.63 -20.59,-29.43c-1.28,-10.68 -2.11,-32.98 -2.15,-33.93c-0.09,-2.21 1.63,-4.08 3.84,-4.17c0.18,-0.01 0.35,-0 0.53,0.01c0.08,0 8.76,0.73 16.22,-1.36c4.92,-1.42 9.52,-3.76 13.56,-6.9c1.5,-1.25 3.67,-1.25 5.17,0c4.04,3.16 8.64,5.52 13.56,6.96c7.48,2.09 16.14,1.36 16.23,1.36c2.2,-0.2 4.14,1.42 4.34,3.62c0.02,0.18 0.02,0.36 0.01,0.54c0,0.95 -0.83,23.27 -2.14,33.93c-1.66,13.8 -7.62,22.32 -20.58,29.42c-8.48,4.65 -11.53,6.95 -11.56,6.97C152.33,139.01 151.47,139.27 150.6,139.26L150.6,139.26zM122.05,72.12c0.29,7.16 1.01,21.38 1.95,28.98c1.16,9.7 4.23,16.62 16.48,23.34c4.99,2.72 8.19,4.7 10.15,5.97c1.95,-1.27 5.18,-3.25 10.15,-5.97c12.26,-6.71 15.28,-13.64 16.41,-23.34c0.94,-7.59 1.66,-21.82 1.95,-28.98c-4.92,0.05 -9.81,-0.56 -14.58,-1.79c-4.98,-1.43 -9.69,-3.65 -13.97,-6.57c-4.28,2.92 -8.99,5.14 -13.97,6.57C131.87,71.56 126.97,72.17 122.05,72.12z"
        id="path_0" />
    <path fill="#CDBDB2"
        d="M38.25,130.44l11.7,3.1l0,-4.06l0.96,-0.96l6.69,0l0,4.78l0,3.34l-7.16,0l-8.83,-3.82z"
        id="path_1" />
    <path fill="#CDBDB2"
        d="M76.45,130.44l-11.46,3.1l0,-4.06l-0.95,-0.96l-6.69,0l0,4.78l0,3.34l7.16,0l8.84,-3.82z"
        id="path_2" />
    <path fill="#3A3A39"
        d="M50.9,121.6l-0.96,7.88l1.19,-0.96l12.42,0l1.43,0.96l-0.95,-7.88l-1.91,-1.2l-9.55,0.24z"
        id="path_3" />
    <path fill="#F99D36" d="M44.46,68.36l5.73,13.37l2.63,38.92l9.31,0l2.86,-38.92l5.25,-13.37z"
        id="path_4" />
    <path fill="#F99E36"
        d="M19.38,97.72l-6.68,19.34l16.71,-0.96l10.75,0l0,-8.36l-0.48,-17.19l-2.39,1.91z"
        id="path_5" />
    <path fill="#D87C2F" d="M32.04,99.87l19.58,0.48l-2.15,10.03l-9.31,-2.39z" id="path_6" />
    <path fill="#EA8D39" d="M32.04,100.11l8.12,7.64l0,7.64z" id="path_7" />
    <path fill="#F99E36" d="M40.16,107.99l9.55,2.39l3.1,10.27l-2.15,1.19l-10.51,-6.21z"
        id="path_8" />
    <path fill="#EB8F33" d="M40.16,115.63l-1.91,14.81l12.65,-8.84z" id="path_9" />
    <path fill="#EA8E39" d="M51.62,100.35l1.19,20.3l-3.58,-10.39z" id="path_10" />
    <path fill="#D87C2F" d="M29.17,115.87l10.98,-0.24l-1.91,14.81z" id="path_11" />
    <path fill="#EB8F33" d="M17.95,136.88l20.3,-6.45l-9.07,-14.57l-16.48,1.19z" id="path_12" />
    <path fill="#E88324" d="M50.19,81.73l-10.27,8.6l-7.88,9.55l19.58,0.72z" id="path_13" />
    <path fill="#E0CFC4" d="M38.25,130.44l12.65,-8.84l-0.96,7.64l0,4.3l-8.59,-1.67z" id="path_14" />
    <path fill="#E0CFC4" d="M76.45,130.44l-12.42,-8.84l0.95,7.64l0,4.3l8.6,-1.67z" id="path_15" />
    <path fill="#3A3A39" d="M46.37,104.65l2.63,5.49l-9.31,-2.39z" id="path_16" />
    <path fill="#E88F33" d="M17.71,57.13l32.47,24.59l-5.49,-13.37z" id="path_17" />
    <path fill="#8F5B30"
        d="M17.71,57.13l-4.3,13.13l2.39,14.33l-1.67,0.96l2.39,2.15l-1.91,1.67l2.63,2.39l-1.67,1.43l3.82,4.78l17.91,-5.49c8.76,-7 13.05,-10.59 12.89,-10.74C50.03,81.57 39.2,73.37 17.71,57.13z"
        id="path_18" />
    <path fill="#F99E36"
        d="M95.32,97.72l6.69,19.34l-16.71,-0.96l-10.74,0l-0,-8.36l0.48,-17.19l2.39,1.91z"
        id="path_19" />
    <path fill="#D87C2F" d="M82.66,99.87l-19.58,0.48l2.15,10.03l9.31,-2.39z" id="path_20" />
    <path fill="#EA8D39" d="M82.66,100.11l-8.12,7.64l-0,7.64z" id="path_21" />
    <path fill="#F99E36" d="M74.54,107.99l-9.55,2.39l-3.1,10.27l2.15,1.19l10.51,-6.21z"
        id="path_22" />
    <path fill="#EB8F33" d="M74.54,115.63l1.91,14.81l-12.42,-8.6z" id="path_23" />
    <path fill="#EA8E39" d="M63.08,100.35l-1.19,20.3l3.58,-10.39z" id="path_24" />
    <path fill="#D87C2F" d="M85.52,115.87l-10.98,-0.24l1.91,14.81z" id="path_25" />
    <path fill="#EB8F33" d="M96.75,136.88l-20.3,-6.45l9.07,-14.57l16.48,1.19z" id="path_26" />
    <path fill="#E88324" d="M64.51,81.73l10.27,8.6l7.88,9.55l-19.58,0.72z" id="path_27" />
    <path fill="#3A3A39" d="M68.33,104.65l-2.63,5.49l9.31,-2.39z" id="path_28" />
    <path fill="#E88F33" d="M96.99,57.13l-32.47,24.59l5.49,-13.37z" id="path_29" />
    <path fill="#8F5B30"
        d="M96.99,57.13l4.3,13.13l-2.39,14.33l1.67,0.96l-2.39,2.15l1.91,1.67l-2.63,2.39l1.67,1.43l-3.82,4.78l-17.91,-5.49c-8.76,-7 -13.05,-10.59 -12.89,-10.74C64.67,81.57 75.5,73.37 96.99,57.13z"
        id="path_30" />
</svg>