<svg id="vector" xmlns="http://www.w3.org/2000/svg" width="24" height="23.804878"
    viewBox="0 0 123 122">


    <path fill="#E9AE16" fill-rule="evenodd"
        d="M61.44,-0C64.47,-0.05 67.43,0.88 69.89,2.65C73.19,4.75 76.89,8.88 81.5,11.51C88,15.21 99.9,10.12 106,19.21C109.57,24.52 109.74,28.67 110,32.78C110.29,37.21 111.07,41.29 115.6,47.29C123.11,57.22 124.67,63.83 120.81,70.72C118.17,75.41 112.61,78.02 111.33,81C108.59,87.33 111.62,92.1 107.87,99.48C106.68,101.92 105,104.08 102.93,105.83C100.87,107.59 98.46,108.9 95.87,109.68C91.37,111.14 86.87,109.04 83.24,110.55C76.9,113.22 72.24,119.41 67.18,120.97C63.39,122.16 59.33,122.16 55.54,120.97C50.54,119.41 45.82,113.22 39.48,110.55C35.87,109.04 31.35,111.14 26.85,109.68C24.28,108.88 21.91,107.56 19.87,105.81C17.83,104.05 16.17,101.9 15,99.48C11.23,92.1 14.26,87.33 11.52,81C10.24,78 4.68,75.41 2,70.72C-1.87,63.83 -0.3,57.22 7.21,47.29C11.74,41.29 12.52,37.21 12.81,32.78C13.07,28.67 13.24,24.52 16.81,19.21C22.94,10.12 34.89,15.21 41.34,11.52C46,8.89 49.69,4.76 53,2.66C55.45,0.89 58.41,-0.05 61.44,-0Z" />
    <path fill="#C08D0A" fill-rule="evenodd"
        d="M111,38.83C112.02,41.9 113.57,44.76 115.59,47.29C123.1,57.22 124.66,63.83 120.79,70.72C118.16,75.41 112.6,78.02 111.32,81C108.58,87.33 111.61,92.1 107.86,99.47C106.67,101.91 104.99,104.07 102.93,105.83C100.86,107.58 98.46,108.9 95.86,109.68C91.36,111.14 86.86,109.04 83.23,110.55C76.89,113.22 72.23,119.41 67.17,120.97C63.38,122.16 59.32,122.16 55.53,120.97C50.53,119.41 45.81,113.22 39.47,110.55C35.86,109.04 31.34,111.14 26.84,109.68C24.27,108.88 21.9,107.56 19.86,105.8C17.82,104.05 16.17,101.89 15,99.47C13.88,97.32 13.2,94.97 13,92.56L111,38.83V38.83Z" />
    <path fill="#ffffff" fill-rule="evenodd"
        d="M61.26,25.5C68.45,25.5 75.49,27.63 81.47,31.63C87.45,35.63 92.11,41.31 94.86,47.95C97.61,54.6 98.33,61.91 96.93,68.97C95.53,76.02 92.06,82.5 86.98,87.59C81.89,92.67 75.41,96.14 68.36,97.54C61.3,98.94 53.99,98.22 47.34,95.47C40.7,92.72 35.02,88.06 31.02,82.08C27.02,76.1 24.89,69.06 24.89,61.87C24.89,52.22 28.72,42.97 35.54,36.15C42.36,29.33 51.61,25.5 61.26,25.5V25.5Z" />

    <path fill="#303030" fill-rule="evenodd"
        d="M58.74,58.37L54.65,54.45C53.26,53.13 53.21,50.93 53.21,50.91H68.73C68.73,50.91 68.71,53.1 67.29,54.45L63.25,58.33C62.83,58.73 61.93,59.99 61.94,61.99V70.61L69.7,77.51H52.24L60.01,70.61L60.03,61.99C60.05,59.99 59.11,58.73 58.74,58.37ZM52.24,66.46C52.24,66.46 49.34,69.22 49.34,73.63V77.51H47.4C46.88,77.51 46.39,77.71 46.02,78.07C45.66,78.44 45.46,78.93 45.46,79.44C45.46,79.96 45.66,80.45 46.02,80.82C46.39,81.18 46.88,81.38 47.4,81.38H74.55C75.06,81.38 75.55,81.18 75.92,80.82C76.28,80.45 76.49,79.96 76.49,79.44C76.49,78.93 76.28,78.44 75.92,78.07C75.55,77.71 75.06,77.51 74.55,77.51H72.61V73.63C72.61,69.22 69.7,66.46 69.7,66.46L65.93,62.85C65.04,62 65.93,61.13 65.93,61.13L69.97,57.26C72.72,54.63 72.61,50.8 72.61,50.8L72.61,46.48H74.55C75.06,46.48 75.55,46.27 75.92,45.91C76.28,45.54 76.49,45.05 76.49,44.54C76.49,44.02 76.28,43.53 75.92,43.17C75.55,42.8 75.06,42.6 74.55,42.6H47.4C46.88,42.6 46.39,42.8 46.02,43.17C45.66,43.53 45.46,44.02 45.46,44.54C45.46,45.05 45.66,45.54 46.02,45.91C46.39,46.27 46.88,46.48 47.4,46.48H49.33L49.34,50.8C49.34,50.8 49.22,54.63 51.97,57.26L56.02,61.13C56.02,61.13 56.9,62 56.02,62.85L52.24,66.46Z" />
    <path fill="#ffffff" fill-rule="evenodd"
        d="M52.24,77.51H69.7L61.94,70.61V61.99C61.93,59.99 62.83,58.73 63.24,58.33L67.29,54.45C68.71,53.1 68.73,50.92 68.73,50.91H53.21C53.21,50.93 53.26,53.13 54.65,54.45L58.74,58.37C59.11,58.73 60.05,59.99 60.03,61.99L60.01,70.61L52.24,77.51Z" />


</svg>