<svg width="17" height="17" viewBox="0 0 17 17" fill="none" xmlns="http://www.w3.org/2000/svg">
<g clip-path="url(#clip0_86_8062)">
<path d="M0.74634 5.0785C1.29421 2.42584 2.97996 0.948406 5.60943 0.502084C7.55321 0.172218 9.49772 0.168041 11.4383 0.511347C14.1457 0.990289 15.7733 2.55389 16.2918 5.24665C16.6923 7.32769 16.6986 9.43093 16.2855 11.51C15.7312 14.1443 14.002 15.7704 11.3822 16.2151C9.4384 16.5449 7.49389 16.5491 5.55336 16.2058C2.84595 15.7268 1.21113 14.0852 0.692663 11.3924C0.271642 9.29766 0.312152 7.18112 0.74634 5.07846V5.0785Z" fill="#A1ACD1"/>
<path fill-rule="evenodd" clip-rule="evenodd" d="M9.72974 8.34219C9.72974 9.03098 9.17377 9.58936 8.48791 9.58936C7.80205 9.58936 7.24604 9.03098 7.24604 8.34219C7.24604 7.65343 7.80205 7.09505 8.48791 7.09505C9.17377 7.09505 9.72974 7.65343 9.72974 8.34219ZM6.60706 8.34219C6.60706 7.29894 7.44913 6.4533 8.48791 6.4533C9.52668 6.4533 10.3688 7.29894 10.3688 8.34219C10.3688 9.3854 9.52668 10.2311 8.48791 10.2311C7.44913 10.2311 6.60706 9.3854 6.60706 8.34219ZM12.4063 7.08927H13.0333V10.4158C13.0333 11.1965 12.4031 11.8294 11.6257 11.8294H5.62992V11.1997H11.5132C12.0065 11.1997 12.4063 10.7982 12.4063 10.3028V7.08927ZM6.90315 5.62593C6.84396 5.69023 6.77222 5.74159 6.69238 5.7768C6.61255 5.812 6.52634 5.8303 6.43915 5.83055L4.56944 5.83578V11.8294H3.9425V5.8976C3.9425 5.51572 4.25078 5.20616 4.63108 5.20616H6.43579L7.22387 4.33447C7.2687 4.28488 7.32339 4.24527 7.38441 4.21821C7.44543 4.19115 7.51142 4.17723 7.57812 4.17737L9.49912 4.18093C9.5648 4.18106 9.62975 4.19479 9.6899 4.22128C9.75005 4.24777 9.80411 4.28644 9.8487 4.33487L10.6507 5.20616H13.0333V5.83578L10.645 5.82833C10.5578 5.82805 10.4717 5.80973 10.3919 5.77452C10.3121 5.73932 10.2404 5.68798 10.1813 5.62371L9.4292 4.80659H7.65729L6.90318 5.62593H6.90315Z" fill="white"/>
</g>
<defs>
<clipPath id="clip0_86_8062">
<rect width="17" height="17" fill="white"/>
</clipPath>
</defs>
</svg>
