<svg width="70" height="70" viewBox="0 0 70 70" fill="none" xmlns="http://www.w3.org/2000/svg">
<g clip-path="url(#clip0_370_15160)">
<path d="M70 35C70 15.67 54.33 0 35 0C15.67 0 0 15.67 0 35C0 54.33 15.67 70 35 70C54.33 70 70 54.33 70 35Z" fill="#1778F2"/>
<path d="M37.7909 54.7556V36.0206H44.0797L45.0227 28.7192H37.7909V24.0575C37.7909 21.9437 38.3781 20.5031 41.4095 20.5031H45.2759V13.9746C43.4044 13.7766 41.5236 13.6807 39.6418 13.6873C34.0672 13.6873 30.2509 17.0898 30.2509 23.3386V28.7192H23.9462V36.0206H30.2509V54.7556H37.7909Z" fill="#FDFDFD"/>
</g>
<defs>
<clipPath id="clip0_370_15160">
<rect width="70" height="70" fill="white"/>
</clipPath>
</defs>
</svg>
