<svg width="200" height="200" viewBox="0 0 200 200" fill="none" xmlns="http://www.w3.org/2000/svg">
<path d="M190 102.104C190 95.9012 189.4 89.4986 188.399 83.4961H101.763V118.911H151.384C149.383 130.316 142.78 140.32 132.976 146.722L162.589 169.732C179.996 153.525 190 129.915 190 102.104Z" fill="#4280EF"/>
<path d="M101.763 191.741C126.573 191.741 147.382 183.537 162.588 169.531L132.976 146.722C124.773 152.324 114.168 155.526 101.763 155.526C77.7531 155.526 57.5447 139.319 50.1416 117.71L19.729 141.12C35.3355 172.133 66.9486 191.741 101.763 191.741Z" fill="#34A353"/>
<path d="M50.1418 117.51C46.3402 106.105 46.3402 93.7001 50.1418 82.2953L19.7291 58.6855C6.72375 84.6964 6.72375 115.309 19.7291 141.12L50.1418 117.51Z" fill="#F6B704"/>
<path d="M101.763 44.4797C114.768 44.2796 127.574 49.2816 136.978 58.2854L163.189 31.8744C146.582 16.2679 124.573 7.86444 101.763 8.06453C66.9486 8.06453 35.3355 27.6727 19.729 58.6856L50.1416 82.2954C57.5447 60.4863 77.7531 44.4797 101.763 44.4797Z" fill="#E54335"/>
</svg>
