<?xml version="1.0" encoding="utf-8"?><!-- Generator: Adobe Illustrator 16.0.0, SVG Export Plug-In . SVG Version: 6.00 Build 0)  -->
<!DOCTYPE svg PUBLIC "-//W3C//DTD SVG 1.1//EN" "http://www.w3.org/Graphics/SVG/1.1/DTD/svg11.dtd">
<svg version="1.1" xmlns="http://www.w3.org/2000/svg" xmlns:xlink="http://www.w3.org/1999/xlink"
    x="0px" y="0px" width="200px" height="200px" viewBox="0 0 200 200"
    enable-background="new 0 0 200 200" xml:space="preserve">

			<path fill="#E6B508" d="M100.648,59.14l-66.153,54.537c0,0.076-0.02,0.19-0.058,0.344c-0.038,0.153-0.058,0.265-0.058,0.344
				v55.224c0,1.994,0.729,3.723,2.187,5.178c1.458,1.456,3.183,2.188,5.177,2.188h44.178v-44.18h29.455v44.181h44.179
				c1.994,0,3.722-0.73,5.177-2.189c1.458-1.453,2.188-3.184,2.188-5.178v-55.224c0-0.307-0.042-0.537-0.115-0.688L100.648,59.14z" />
    <path fill="#E6B508" d="M192.111,101.25l-25.194-20.939V33.37c0-1.073-0.344-1.956-1.036-2.646
				c-0.687-0.69-1.57-1.035-2.645-1.035h-22.09c-1.074,0-1.957,0.345-2.647,1.035c-0.69,0.69-1.034,1.573-1.034,2.646v22.435
				l-28.072-23.471c-2.451-1.995-5.366-2.991-8.742-2.991c-3.376,0-6.29,0.997-8.744,2.991L9.183,101.25
				c-0.767,0.613-1.187,1.438-1.266,2.474c-0.077,1.034,0.19,1.938,0.805,2.704l7.133,8.516c0.614,0.688,1.419,1.111,2.417,1.265
				c0.921,0.078,1.841-0.191,2.762-0.805l79.615-66.387l79.615,66.387c0.615,0.535,1.419,0.802,2.417,0.802h0.346
				c0.995-0.152,1.798-0.575,2.416-1.265l7.133-8.513c0.613-0.768,0.883-1.671,0.803-2.706
				C193.3,102.689,192.878,101.864,192.111,101.25z" />

</svg>
