<svg width="20" height="21" viewBox="0 0 20 21" fill="none" xmlns="http://www.w3.org/2000/svg">
    <path
        d="M20 16.8V17.64H0V16.8C1.6 16.8 2.4 14.9688 2.4 14.1372V9.3492C2.43381 7.64514 3.00033 6.00002 4.01226 4.66731C5.02419 3.33459 6.4254 2.38823 8 1.974C8.00743 1.41705 8.22526 0.886004 8.60559 0.497691C8.98591 0.109378 9.49757 -0.104393 10.028 -0.0965957C10.5584 -0.0887983 11.0642 0.139929 11.434 0.539269C11.8038 0.938609 12.0074 1.47585 12 2.0328C13.5765 2.47517 14.9741 3.44181 15.9837 4.788C16.9932 6.13418 17.5602 7.78749 17.6 9.5004V14.1372C17.6 15.12 19.2 16.8 20 16.8ZM6.608 18.48C6.85702 19.2155 7.31678 19.8519 7.92412 20.302C8.53147 20.7521 9.25662 20.9937 10 20.9937C10.7434 20.9937 11.4685 20.7521 12.0759 20.302C12.6832 19.8519 13.143 19.2155 13.392 18.48H6.608Z"
        fill="red" />
</svg>
