<svg width="88" height="88" viewBox="0 0 88 88" fill="none" xmlns="http://www.w3.org/2000/svg">
    <path
        d="M39.093 2.72752C40.9251 -0.909172 46.1169 -0.909172 47.9491 2.72752L52.8692 12.4933C53.9739 14.6868 56.5185 15.7408 58.8509 14.9711L69.2352 11.5445C73.1022 10.2684 76.7738 13.9398 75.4976 17.8068L72.0708 28.1911C71.3013 30.5236 72.355 33.068 74.5485 34.173L84.3145 39.093C87.9514 40.9251 87.9514 46.1169 84.3145 47.9491L74.5485 52.8692C72.355 53.9739 71.3013 56.5185 72.0708 58.8509L75.4976 69.2352C76.7738 73.1022 73.1022 76.7738 69.2352 75.4976L58.8509 72.0708C56.5185 71.3013 53.9739 72.355 52.8692 74.5485L47.9491 84.3145C46.1169 87.9514 40.9251 87.9514 39.093 84.3145L34.173 74.5485C33.068 72.355 30.5236 71.3013 28.1911 72.0708L17.8068 75.4976C13.9398 76.7738 10.2684 73.1022 11.5445 69.2352L14.9711 58.8509C15.7408 56.5185 14.6868 53.9739 12.4933 52.8692L2.72752 47.9491C-0.909172 46.1169 -0.909172 40.9251 2.72752 39.093L12.4933 34.173C14.6868 33.068 15.7408 30.5236 14.9711 28.1911L11.5445 17.8068C10.2684 13.9398 13.9398 10.2684 17.8068 11.5445L28.1911 14.9711C30.5236 15.7408 33.068 14.6868 34.173 12.4933L39.093 2.72752Z"
        fill="#AD0303" />
    <rect x="55.9614" y="27" width="5" height="37.8079" rx="2.5"
        transform="rotate(45.4887 55.9614 27)" fill="white" stroke="white" stroke-width="2"/>
    <rect x="29" y="30.5659" width="5" height="37.8079" rx="2.5"
        transform="rotate(-45.49 29 30.5659)" fill="white" stroke="white" stroke-width="2"/>
</svg>
