<svg width="62" height="62" viewBox="0 0 62 62" fill="none" xmlns="http://www.w3.org/2000/svg">
<path d="M59.5 31C59.5 46.7401 46.7401 59.5 31 59.5C15.2599 59.5 2.5 46.7401 2.5 31C2.5 15.2599 15.2599 2.5 31 2.5C46.7401 2.5 59.5 15.2599 59.5 31Z" fill="url(#paint0_linear_166_2)" stroke="white" stroke-width="5"/>
<path d="M42.1176 39.1338C42.0585 37.259 40.0361 33.7162 37.01 33.3028C33.9985 32.8895 33.6738 33.1995 31.3857 33.1995C29.0976 33.1995 28.7876 32.8895 25.7614 33.3028C22.75 33.7162 20.7128 37.259 20.6685 39.1338C20.6242 41.0085 21.3476 42.2485 24.1523 43.6657C26.9571 45.0828 31.3857 45.2747 31.3857 45.2747C31.3857 45.2747 35.8142 45.0681 38.619 43.6657C41.4238 42.2633 42.1618 41.0085 42.1176 39.1338Z" fill="white"/>
<path d="M31.3857 31.0296C35.0626 31.0296 38.0433 28.0489 38.0433 24.372C38.0433 20.6951 35.0626 17.7144 31.3857 17.7144C27.7088 17.7144 24.728 20.6951 24.728 24.372C24.728 28.0489 27.7088 31.0296 31.3857 31.0296Z" fill="white"/>
<defs>
<linearGradient id="paint0_linear_166_2" x1="17.0056" y1="-1.95577" x2="41.4512" y2="55.5858" gradientUnits="userSpaceOnUse">
<stop stop-color="#C0F0FC"/>
<stop offset="1" stop-color="#4B6BFC"/>
</linearGradient>
</defs>
</svg>
