<svg width="23" height="23" viewBox="0 0 23 23" fill="none" xmlns="http://www.w3.org/2000/svg">
<path d="M18.2083 2.15625H4.79167C3.33788 2.15625 2.15625 3.33788 2.15625 4.79167V8.625C2.15625 10.0788 3.33788 11.2604 4.79167 11.2604H5.98958V18.2083C5.98958 19.6621 7.17121 20.8438 8.625 20.8438H14.375C15.8288 20.8438 17.0104 19.6621 17.0104 18.2083V11.2604H18.2083C19.6621 11.2604 20.8438 10.0788 20.8438 8.625V4.79167C20.8438 3.33788 19.6621 2.15625 18.2083 2.15625ZM15.5729 18.2083C15.5729 18.8686 15.0353 19.4062 14.375 19.4062H8.625C7.96471 19.4062 7.42708 18.8686 7.42708 18.2083V7.42708H15.5729V18.2083ZM19.4062 8.625C19.4062 9.28529 18.8686 9.82292 18.2083 9.82292H17.0104V7.42708H17.25C17.6467 7.42708 17.9688 7.10508 17.9688 6.70833C17.9688 6.31158 17.6467 5.98958 17.25 5.98958H5.75C5.35325 5.98958 5.03125 6.31158 5.03125 6.70833C5.03125 7.10508 5.35325 7.42708 5.75 7.42708H5.98958V9.82292H4.79167C4.13137 9.82292 3.59375 9.28529 3.59375 8.625V4.79167C3.59375 4.13137 4.13137 3.59375 4.79167 3.59375H18.2083C18.8686 3.59375 19.4062 4.13137 19.4062 4.79167V8.625Z" fill="#021627"/>
<path d="M11.4855 12.662C11.5171 12.9909 11.4024 13.224 11.1416 13.3613C11.3464 13.4119 11.4995 13.5049 11.6011 13.6404C11.7026 13.7759 11.742 13.9693 11.7192 14.2204C11.707 14.3487 11.6785 14.4616 11.6339 14.5592C11.5893 14.6568 11.5328 14.7372 11.4645 14.8004C11.3963 14.8636 11.3114 14.9165 11.2099 14.959C11.1083 15.0014 11.002 15.0326 10.8909 15.0525C10.7797 15.0723 10.6524 15.0859 10.5089 15.0931V15.7842H10.1045V15.104C9.9645 15.104 9.85773 15.103 9.78422 15.1012V15.7842H9.37989V15.0931C9.34838 15.0931 9.30112 15.0927 9.23811 15.0918C9.1751 15.0909 9.12696 15.0904 9.09371 15.0904H8.5686L8.64999 14.5944H8.94143C9.02894 14.5944 9.0797 14.5484 9.09371 14.4562V13.3667H9.13571C9.12521 13.3649 9.11121 13.364 9.09371 13.364V12.5862C9.07095 12.4633 8.99306 12.4019 8.86004 12.4019H8.5686V11.9574L9.12521 11.9601C9.23723 11.9601 9.32213 11.9592 9.37989 11.9574V11.2744H9.78422V11.9438C9.92774 11.9402 10.0345 11.9384 10.1045 11.9384V11.2744H10.5089V11.9574C10.6471 11.97 10.7697 11.9904 10.8764 12.0184C10.9832 12.0464 11.0821 12.087 11.1731 12.1403C11.2641 12.1936 11.3363 12.2641 11.3897 12.3517C11.4431 12.4394 11.475 12.5428 11.4855 12.662ZM10.9211 14.1391C10.9211 14.0741 10.9079 14.0163 10.8817 13.9657C10.8554 13.9151 10.823 13.8735 10.7845 13.841C10.746 13.8085 10.6957 13.7809 10.6336 13.7583C10.5714 13.7357 10.5141 13.719 10.4616 13.7082C10.4091 13.6973 10.3443 13.6892 10.2673 13.6838C10.1903 13.6784 10.1299 13.6757 10.0861 13.6757C10.0424 13.6757 9.98594 13.6766 9.9168 13.6784C9.84766 13.6802 9.80609 13.6811 9.79209 13.6811V14.5971C9.80609 14.5971 9.83848 14.5976 9.88924 14.5985C9.94 14.5994 9.982 14.5999 10.0153 14.5999C10.0485 14.5999 10.0949 14.5985 10.1544 14.5958C10.2139 14.5931 10.2651 14.5895 10.308 14.5849C10.3509 14.5804 10.4008 14.5728 10.4577 14.5619C10.5145 14.5511 10.5631 14.5384 10.6034 14.524C10.6436 14.5095 10.6852 14.4905 10.7281 14.4671C10.771 14.4436 10.8055 14.4165 10.8318 14.3857C10.858 14.355 10.8795 14.3189 10.8961 14.2773C10.9127 14.2358 10.9211 14.1897 10.9211 14.1391ZM10.7347 12.8491C10.7347 12.7894 10.7237 12.7366 10.7018 12.6905C10.68 12.6444 10.6533 12.6065 10.6218 12.5767C10.5902 12.5469 10.5482 12.5216 10.4957 12.5008C10.4432 12.48 10.3951 12.4651 10.3513 12.4561C10.3076 12.447 10.2537 12.4398 10.1899 12.4344C10.126 12.429 10.0752 12.4267 10.0376 12.4276C9.99994 12.4285 9.95269 12.4294 9.8958 12.4303C9.83891 12.4312 9.80434 12.4317 9.79209 12.4317V13.2637C9.80084 13.2637 9.83104 13.2642 9.88267 13.2651C9.93431 13.266 9.975 13.266 10.0048 13.2651C10.0345 13.2642 10.0783 13.2624 10.136 13.2596C10.1938 13.2569 10.2419 13.252 10.2804 13.2447C10.3189 13.2375 10.364 13.2276 10.4157 13.2149C10.4673 13.2023 10.5097 13.1856 10.543 13.1648C10.5762 13.144 10.6086 13.1196 10.6401 13.0916C10.6716 13.0636 10.6953 13.0288 10.711 12.9873C10.7268 12.9457 10.7347 12.8996 10.7347 12.8491Z" fill="#272B40"/>
</svg>
