<svg width="19" height="19" viewBox="0 0 19 19" fill="none" xmlns="http://www.w3.org/2000/svg">
    <path
        d="M5.87529 0.0283804C4.28599 0.241962 2.85601 1.14465 1.97173 2.48256C1.71282 2.87345 1.42205 3.43763 1.45391 3.49002C1.46188 3.50614 1.39416 3.5545 1.30255 3.59479C1.05559 3.70763 0.705066 4.08241 0.54972 4.40479L0.418274 4.67882V5.78703V6.89524L0.545737 7.16927C0.720999 7.54404 1.01974 7.85031 1.39018 8.03569C1.68096 8.18076 1.70087 8.18479 2.13106 8.18479C2.56125 8.18479 2.58117 8.18076 2.86796 8.03569C3.03127 7.95509 3.23441 7.81807 3.31806 7.73748C3.40171 7.65688 3.47341 7.59643 3.48137 7.60449C3.48934 7.61255 3.60087 7.75763 3.73232 7.92285C4.2342 8.5636 4.89542 8.99882 5.70003 9.22046C6.16607 9.34942 7.03839 9.34539 7.50841 9.21643C8.30904 8.99882 9.12162 8.43867 9.54384 7.8221C9.62351 7.70121 9.69919 7.60046 9.71114 7.60046C9.72309 7.60046 9.81072 7.673 9.90632 7.76569C10.0019 7.85434 10.2011 7.98733 10.3485 8.05583C10.5994 8.17673 10.6432 8.18479 11.0535 8.18479C11.4837 8.18479 11.5036 8.18076 11.7944 8.03569C12.3401 7.76166 12.7025 7.27001 12.7862 6.68972C12.838 6.33106 12.834 5.2833 12.7862 4.92061C12.7623 4.76345 12.6906 4.52569 12.6269 4.38464C12.4994 4.10659 12.1728 3.74793 11.9378 3.62703C11.8183 3.56256 11.7625 3.48599 11.6271 3.20793C11.0973 2.08763 10.1772 1.14465 9.06984 0.584499C8.6994 0.395096 8.07403 0.177485 7.62791 0.0847979C7.24951 0.00420094 6.27361 -0.028038 5.87529 0.0283804ZM7.18976 0.991513C8.2254 1.14062 9.1256 1.59599 9.85852 2.34151C10.1931 2.67599 10.6352 3.27241 10.6352 3.38121C10.6352 3.40942 10.5476 3.46181 10.4401 3.50211C10.3325 3.53838 10.1533 3.63509 10.0378 3.71569C9.92623 3.79226 9.82665 3.8527 9.81869 3.84465C9.81072 3.83659 9.71512 3.69554 9.60359 3.52629C9.14154 2.82509 8.35684 2.26495 7.50841 2.03524C7.03839 1.90629 6.16607 1.90226 5.70003 2.03121C4.85957 2.26092 4.15056 2.7445 3.66859 3.41345C3.54511 3.58271 3.42561 3.75196 3.40569 3.79226C3.36586 3.86076 3.34594 3.8527 3.15077 3.71972C3.03525 3.63509 2.85202 3.53838 2.74448 3.50211C2.63693 3.46181 2.5493 3.41345 2.5493 3.38927C2.5493 3.28047 2.9994 2.66793 3.32603 2.33748C3.86775 1.78539 4.4254 1.43077 5.14238 1.18898C5.76775 0.975394 6.55642 0.902857 7.18976 0.991513ZM7.42875 3.02256C8.30506 3.32077 8.99814 4.07032 9.2212 4.96091C9.30087 5.27121 9.30087 5.98046 9.2212 6.29076C8.93441 7.4433 7.90674 8.2936 6.73169 8.35404C6.2298 8.38225 5.86334 8.30166 5.37739 8.05986C4.75601 7.74554 4.282 7.20151 4.03106 6.50434C3.93546 6.23434 3.92351 6.15778 3.92351 5.62584C3.92351 5.0939 3.93546 5.01733 4.03106 4.74733C4.1864 4.31614 4.36167 4.03405 4.70024 3.68748C4.94322 3.44166 5.07466 3.34494 5.37739 3.19181C5.86733 2.94599 6.16208 2.88151 6.69185 2.90166C7.01051 2.91375 7.18577 2.94196 7.42875 3.02256ZM2.36607 4.38464C2.59311 4.45718 2.84406 4.71509 2.89584 4.94479C2.91974 5.04151 2.93567 5.46867 2.93169 5.89181L2.92771 6.66151L2.80821 6.85494C2.66083 7.09673 2.41785 7.23778 2.14699 7.23778C1.90402 7.23778 1.7646 7.18539 1.59731 7.02419C1.37026 6.80658 1.35433 6.72599 1.35433 5.78703C1.35433 4.83599 1.37823 4.72718 1.64112 4.52166C1.86418 4.35241 2.10318 4.30808 2.36607 4.38464ZM11.2885 4.38464C11.3801 4.41285 11.5235 4.50554 11.6191 4.60226C11.8461 4.83599 11.882 5.02136 11.8661 5.93211C11.8501 6.66151 11.8501 6.66151 11.7306 6.85494C11.5833 7.09673 11.3403 7.23778 11.0694 7.23778C10.8264 7.23778 10.687 7.18539 10.5197 7.02419C10.2927 6.80658 10.2768 6.72599 10.2768 5.78703C10.2768 4.83599 10.3007 4.72718 10.5635 4.52166C10.7866 4.35241 11.0256 4.30808 11.2885 4.38464Z"
        fill="white" />
    <path
        d="M12.1609 0.846446C12.0135 0.914953 11.8701 1.12451 11.8701 1.26555C11.8701 1.41465 11.9896 1.6363 12.1052 1.69271C12.1769 1.72898 12.4517 1.75316 12.9655 1.76928C13.5989 1.7854 13.7861 1.80555 14.1047 1.89018C15.2957 2.2045 16.2238 2.98226 16.7456 4.09853C16.8452 4.30808 16.9488 4.58211 16.9806 4.71107L17.0404 4.9448L16.9527 4.88838C16.8651 4.82793 16.7536 4.80779 16.5783 4.81585C16.5265 4.81987 16.423 4.88032 16.3473 4.95689C16.2039 5.10196 16.172 5.27122 16.2477 5.47674C16.2836 5.56943 17.2913 6.45196 17.4785 6.54868C17.5303 6.57689 17.6179 6.58898 17.6777 6.57286C17.7852 6.54465 18.8408 5.67823 18.9404 5.53316C18.9722 5.4848 19.0001 5.36793 19.0001 5.27525C19.0001 5.07376 18.8527 4.88032 18.6576 4.8239C18.5102 4.78361 18.2792 4.85211 18.1397 4.9851C18.0322 5.08584 18.0402 5.0939 17.9645 4.71913C17.7016 3.41749 16.7974 2.1763 15.5984 1.46301C15.2081 1.23331 14.6345 1.01167 14.1605 0.910923C13.6267 0.798088 12.3561 0.757789 12.1609 0.846446Z"
        fill="white" />
    <path
        d="M14.3118 7.15726C14.1684 7.24188 14.0728 7.4877 14.1127 7.6489C14.1844 7.93502 14.4911 8.10024 14.75 7.99143C14.9133 7.9189 15.0567 7.7174 15.0567 7.54815C15.0567 7.17338 14.6384 6.95173 14.3118 7.15726Z"
        fill="white" />
    <path
        d="M5.6761 9.93777C5.26184 10.0264 4.94717 10.1393 4.57274 10.3287C4.30587 10.4617 1.07149 12.6257 0.868343 12.807C0.669182 12.9843 0.477987 13.2906 0.398322 13.5566C0.314675 13.8427 0 16.2687 0 16.6354C0 16.9336 0.127463 17.4252 0.286792 17.7275C0.477987 18.0942 0.944024 18.5536 1.31446 18.739C1.79245 18.9727 2.06729 19.013 3.12683 18.9969C4.03501 18.9848 4.04297 18.9848 4.27002 18.8719C4.55681 18.7309 4.80377 18.481 4.93522 18.199C5.02683 18.0055 5.03878 17.9249 5.0348 17.5945V17.2116L4.48511 15.8616C4.11865 14.9549 3.90754 14.4834 3.84381 14.423C3.54507 14.153 3.06708 14.3746 3.06708 14.7816C3.06708 14.8582 3.27819 15.4385 3.5849 16.2002C3.92746 17.0545 4.10272 17.534 4.10272 17.6348C4.10272 17.804 3.97128 17.9773 3.81195 18.0176C3.76016 18.0337 3.34193 18.0378 2.88385 18.0297C2.06729 18.0176 2.04738 18.0136 1.80838 17.9048C1.35031 17.6912 1.01174 17.2076 0.967924 16.716C0.955974 16.5749 1.01174 15.9906 1.1153 15.1766C1.24675 14.1127 1.29455 13.8387 1.36625 13.7057C1.44193 13.5687 1.65702 13.4075 2.80817 12.6257C3.55304 12.1179 4.19035 11.6908 4.23018 11.6666C4.28595 11.6384 4.3457 11.719 4.60062 12.1663C4.9631 12.803 5.13438 13.0166 5.461 13.2382C5.93102 13.5566 6.648 13.6734 7.15387 13.5163C7.77127 13.3228 8.1218 12.9964 8.58385 12.1824C8.89056 11.6464 8.90649 11.6263 9.01404 11.6464C9.26498 11.6988 9.55974 11.4409 9.55974 11.1749C9.55974 10.9815 9.45219 10.8405 9.15345 10.639C8.75114 10.373 8.20943 10.1231 7.76729 9.99419C7.44465 9.90553 7.2893 9.88538 6.71173 9.87329C6.14612 9.86121 5.97484 9.86926 5.6761 9.93777ZM7.39287 10.9049C7.77924 10.9976 8.04611 11.0984 8.04611 11.1548C8.04611 11.2233 7.51635 12.1219 7.39287 12.267C7.08616 12.6176 6.55639 12.7184 6.12222 12.5048C5.99475 12.4403 5.84339 12.3275 5.78763 12.2509C5.66813 12.1058 5.13836 11.2031 5.13836 11.1508C5.13836 11.0984 5.33354 11.0218 5.71593 10.9211C6.19391 10.7961 6.91886 10.7881 7.39287 10.9049Z"
        fill="white" />
    <path
        d="M10.3683 11.7713C10.0536 11.86 9.84646 11.9768 9.59551 12.2226C9.20914 12.5934 9.18126 12.682 8.72319 14.9549C8.25317 17.2882 8.24122 17.4252 8.46428 17.9652C8.48818 18.0297 8.40055 18.0337 7.24143 18.0458C5.8951 18.0579 5.89112 18.0579 5.75967 18.2835C5.68 18.4246 5.68 18.618 5.75967 18.7591C5.89908 19.0008 5.54059 18.9847 11.153 18.9968C14.5945 19.0049 16.4028 18.9928 16.5901 18.9646C17.1676 18.8759 17.6775 18.5052 17.9125 17.9974C18.0121 17.7879 18.1156 17.3325 18.4423 15.7044C18.8087 13.8789 18.8485 13.6371 18.8326 13.3429C18.7928 12.5974 18.275 11.9647 17.546 11.7713C17.2075 11.6826 10.6909 11.6826 10.3683 11.7713ZM17.3389 12.682C17.6456 12.7667 17.9205 13.1294 17.9244 13.4437C17.9244 13.5243 17.7452 14.4753 17.5261 15.5594C17.084 17.7556 17.08 17.7677 16.7295 17.945L16.5542 18.0377H13.1924C10.1771 18.0377 9.82256 18.0297 9.70704 17.9732C9.41627 17.8241 9.24101 17.5541 9.24101 17.26C9.24101 17.0947 9.954 13.4477 10.0377 13.1777C10.0934 13.0125 10.3483 12.7667 10.5395 12.6982C10.667 12.6498 11.2804 12.6417 13.9412 12.6377C16.0882 12.6377 17.2393 12.6538 17.3389 12.682Z"
        fill="white" />
    <path
        d="M13.535 13.9395C13.0052 14.141 12.6746 14.5399 12.587 15.0839C12.4635 15.8536 12.9813 16.5669 13.774 16.716C13.9731 16.7523 14.0608 16.7483 14.2878 16.6918C14.9689 16.5226 15.3911 15.9745 15.3872 15.2693C15.3832 14.7495 15.0805 14.2699 14.6104 14.0241C14.4352 13.9314 14.3356 13.9113 14.0408 13.8992C13.8058 13.8911 13.6306 13.9032 13.535 13.9395ZM14.2201 14.8744C14.3714 14.951 14.4591 15.1283 14.4591 15.3418C14.4591 15.4748 14.4352 15.5312 14.3236 15.6441C14.2041 15.765 14.1643 15.7811 13.9811 15.7811C13.7979 15.7811 13.758 15.765 13.6385 15.6441C13.527 15.5312 13.5031 15.4748 13.5031 15.3418C13.5031 14.9268 13.8656 14.689 14.2201 14.8744Z"
        fill="white" />
</svg>
