<?xml version="1.0" encoding="UTF-8" standalone="no"?><!-- Created with Inkscape (http://www.inkscape.org/) -->

<svg

    xmlns="http://www.w3.org/2000/svg" xmlns:xlink="http://www.w3.org/1999/xlink"

    version="1.1" id="svg3721" width="512" height="512" viewBox="0 0 512 512">


    <path style="fill:#fc636e"
        d="m 234.5,511.41337 c -1.65,-0.22927 -8.4,-1.13387 -15,-2.0102 -25.40932,-3.37381 -55.77409,-13.00579 -79.8522,-25.32986 C 103.40282,465.52179 70.041861,436.36415 46.765355,402.89358 24.071298,370.26054 9.7119134,333.92454 3.3372343,293 1.1108174,278.70672 0.79535841,238.37272 2.8014842,224.5 7.4621841,192.27041 15.722783,165.9205 29.506074,139.31687 75.83996,49.886164 170.65285,-3.9153095 271.39742,2.0558881 374.60291,8.1729462 463.3617,75.343584 497.5284,173.18667 c 15.22847,43.60975 18.04081,93.76869 7.83617,139.76094 C 484.58202,406.61454 411.84708,480.98572 318,504.52716 c -21.06113,5.28316 -31.87067,6.59294 -57.5,6.96721 -12.65,0.18473 -24.35,0.14828 -26,-0.081 z m 33.08939,-79.35195 c 8.84666,-3.90884 14.52101,-12.4271 15.22454,-22.85487 1.66115,-24.62187 -28.13855,-37.72809 -45.74674,-20.1199 -4.99831,4.99832 -7.43544,11.20113 -7.4312,18.91335 0.007,12.42211 8.33823,22.84799 20.86401,26.10917 4.14559,1.07934 12.19499,0.11481 17.08939,-2.04775 z m -4.22523,-100.52311 c 1.46092,-1.35393 3.10479,-3.64154 3.65305,-5.08359 0.92003,-2.41984 29.01721,-189.41771 30.49477,-202.95472 1.80044,-16.49514 -7.06992,-34.071049 -20.80279,-41.219078 -4.69368,-2.443083 -6.46174,-2.74929 -17.86608,-3.094193 -14.53452,-0.43957 -20.88808,0.890036 -27.64602,5.785462 -5.31718,3.851742 -10.58128,10.9982 -13.27934,18.027809 -4.41982,11.51553 -4.36613,12.07286 11.46426,119 8.02052,54.175 15.08129,100.26271 15.6906,102.41714 1.71411,6.06089 5.83206,9.58286 11.20444,9.58286 3.3219,0 5.09572,-0.61613 7.08711,-2.46169 z" />

</svg>
