<svg width="84" height="77" viewBox="0 0 84 77" fill="none" xmlns="http://www.w3.org/2000/svg">
<g clip-path="url(#clip0_74_154)">
<path fill-rule="evenodd" clip-rule="evenodd" d="M81.1034 31.5554V61.4692C81.1038 62.6973 80.3317 63.792 79.1772 64.2005L62.2759 70.2152L59.3793 71.2467L44.4331 76.5786C44.1114 76.6926 43.7823 76.7849 43.4483 76.8547C42.4924 77.0484 41.5076 77.0484 40.5517 76.8547C40.2177 76.7849 39.8886 76.6926 39.5669 76.5786L26.069 71.7698L23.1724 70.7383L4.82276 64.2005C3.66825 63.792 2.89624 62.6973 2.89655 61.4692V31.5554H81.1034Z" fill="#2980BA"/>
<path fill-rule="evenodd" clip-rule="evenodd" d="M84 18.8868L84 28.4755C84.0042 29.7048 83.2308 30.8015 82.0738 31.2068L81.1034 31.5555L65.1724 37.236L62.2759 38.2675L44.4331 44.6164C42.8602 45.183 41.1398 45.183 39.5669 44.6164L23.1724 38.776L20.2759 37.7445L2.89655 31.5555L1.92621 31.2068C0.76921 30.8015 -0.00425127 29.7048 2.19654e-06 28.4755L-1.52409e-05 18.8868H84Z" fill="#3B97D3"/>
<path fill-rule="evenodd" clip-rule="evenodd" d="M43.4483 50.849V76.8547C42.4924 77.0484 41.5076 77.0484 40.5517 76.8547V50.849C40.5517 50.0466 41.2001 49.3962 42 49.3962C42.7999 49.3962 43.4483 50.0466 43.4483 50.849Z" fill="#285680"/>
<path fill-rule="evenodd" clip-rule="evenodd" d="M26.069 39.8075V71.7698L23.1724 70.7383V38.776L26.069 39.8075Z" fill="#F0C419"/>
<path fill-rule="evenodd" clip-rule="evenodd" d="M62.2759 38.2675V70.2153L59.3793 71.2468V39.299L62.2759 38.2675Z" fill="#F0C419"/>
<path fill-rule="evenodd" clip-rule="evenodd" d="M69.4593 12.6832L83.0297 17.5211C83.6109 17.7216 84.0012 18.2701 84.0012 18.8868C84.0012 19.5034 83.6109 20.0519 83.0297 20.2524L44.4331 33.9962C42.8602 34.5628 41.1398 34.5628 39.5669 33.9962L0.970348 20.2524C0.389067 20.0519 -0.00120544 19.5034 -0.00120544 18.8868C-0.00120544 18.2701 0.389067 17.7216 0.970348 17.5211L14.5407 12.6832H69.4593Z" fill="#84B5CB"/>
<path fill-rule="evenodd" clip-rule="evenodd" d="M65.1724 27.6037V37.236L62.2759 38.2675V28.5626L61.1172 28.0541H61.1028L42.7241 20.1507L23.6938 28.3447L23.1724 28.5626V38.776L20.2759 37.7445V27.6037C20.2776 27.4508 20.302 27.299 20.3483 27.1533C20.4815 26.7562 20.7762 26.4342 21.1593 26.2671L39.031 18.5962L39.0455 18.5816L38.6834 18.4218L39.8276 15.7486L42.7241 16.9981L46.1421 15.5162L47.1993 17.9715L47.2862 18.1894L46.4028 18.5816L64.289 26.2671C64.5151 26.3619 64.7107 26.5179 64.8538 26.7175H64.8683C65.0645 26.9711 65.1714 27.2827 65.1724 27.6037Z" fill="#F3D55B"/>
<path fill-rule="evenodd" clip-rule="evenodd" d="M53.5862 11.6226C53.5825 12.1654 53.5193 12.7062 53.3979 13.2352C53.0166 14.6375 52.2604 15.9086 51.211 16.9109C48.6942 19.199 45.3955 20.4269 42 20.3396C38.6045 20.4269 35.3058 19.199 32.789 16.9109C31.7396 15.9086 30.9834 14.6375 30.6021 13.2352C30.4807 12.7062 30.4175 12.1654 30.4138 11.6226C30.4138 8.57166 32.4993 5.88393 35.671 4.3294C39.6781 2.43097 44.3219 2.43097 48.329 4.3294C51.5007 5.88393 53.5862 8.57166 53.5862 11.6226Z" fill="#DF4D60"/>
<path fill-rule="evenodd" clip-rule="evenodd" d="M30.4138 11.6226C30.4175 12.1655 30.4807 12.7062 30.6021 13.2353H30.5876C29.1319 13.0315 27.655 13.0315 26.1993 13.2353C26.1848 13.2498 26.1848 13.2498 26.1704 13.2353C26.1559 13.2207 26.1559 13.2498 26.1414 13.2498C22.1123 13.8865 18.4684 16.0175 15.931 19.2209L14.5407 14.136L12.9041 8.09224C12.09 5.04564 13.8338 1.90087 16.8435 0.987901C23.2827 -1.10853 30.3397 0.143936 35.671 4.32941C32.4993 5.88394 30.4138 8.57168 30.4138 11.6226Z" fill="#FB7B76"/>
<path fill-rule="evenodd" clip-rule="evenodd" d="M32.789 16.9109C24.2731 26.1945 15.931 19.2209 15.931 19.2209C18.4684 16.0175 22.1123 13.8865 26.1414 13.2498C26.1559 13.2498 26.1559 13.2353 26.1703 13.2353C26.1848 13.2353 26.1848 13.2498 26.1993 13.2353C27.655 13.0315 29.1319 13.0315 30.5876 13.2353H30.6021C30.9834 14.6376 31.7396 15.9086 32.789 16.9109Z" fill="#FF5364"/>
<path fill-rule="evenodd" clip-rule="evenodd" d="M68.069 19.2209C68.069 19.2209 59.7269 26.1945 51.211 16.9109C52.2604 15.9086 53.0166 14.6375 53.3979 13.2353H53.4124C59.0077 12.5028 64.5747 14.7763 68.069 19.2209Z" fill="#FF5364"/>
<path fill-rule="evenodd" clip-rule="evenodd" d="M71.0959 8.09224L69.4593 14.136L68.069 19.2209C64.5747 14.7763 59.0077 12.5028 53.4124 13.2353H53.3979C53.5193 12.7062 53.5825 12.1655 53.5862 11.6226C53.5862 8.57168 51.5007 5.88394 48.329 4.32941C53.6603 0.143936 60.7173 -1.10853 67.1565 0.987901C70.1662 1.90087 71.91 5.04564 71.0959 8.09224Z" fill="#FB7B76"/>
</g>
<defs>
<clipPath id="clip0_74_154">
<rect width="84" height="77" fill="white"/>
</clipPath>
</defs>
</svg>
