<svg width="29" height="28" viewBox="0 0 29 28" fill="none" xmlns="http://www.w3.org/2000/svg">
<path d="M25.0125 2.1875L23.5625 1.8375V1.79375C23.6078 1.575 23.4266 1.35625 23.2 1.3125L20.9344 0.875C20.8891 0.875 20.8891 0.875 20.8438 0.875H7.25C6.97813 0.875 6.79688 1.05 6.79688 1.3125V6.825L3.35313 10.15C1.76719 11.6813 0.90625 13.6938 0.90625 15.8375V24.0625V26.6875C0.90625 26.95 1.0875 27.125 1.35938 27.125H9.96876H20.8438C21.0703 27.125 21.2516 26.95 21.2969 26.775L25.375 2.7125C25.4203 2.45 25.2391 2.275 25.0125 2.1875ZM21.2969 1.8375L22.611 2.1L21.2969 9.58125V1.8375ZM20.3906 4.33125C18.9859 4.15625 17.8984 3.0625 17.7172 1.75H20.3906V4.33125ZM10.3766 1.75C10.1953 3.10625 9.06251 4.15625 7.70313 4.33125V1.75H10.3766ZM3.9875 10.7625L6.79688 8.05V16.625C6.79688 16.8 6.8875 16.975 7.06875 17.0188C7.25 17.1063 7.43125 17.0625 7.56719 16.9312L10.9656 13.65C11.4188 13.2125 12.1438 13.2125 12.5969 13.65C13.05 14.0875 13.05 14.7875 12.5969 15.225L11.4641 16.3187C10.2406 17.5 9.56094 19.1187 9.56094 20.7812V23.625H1.8125V15.8375C1.8125 13.9125 2.58281 12.1188 3.9875 10.7625ZM13.2313 13.0375C12.6875 12.5125 11.9172 12.3375 11.1922 12.5563C11.7813 11.3313 13.05 10.5 14.5 10.5C16.4938 10.5 18.125 12.075 18.125 14C18.125 15.925 16.4938 17.5 14.5 17.5C13.6844 17.5 12.9141 17.2375 12.2797 16.7562L13.2313 15.8375C14.0469 15.05 14.0469 13.825 13.2313 13.0375ZM1.8125 24.5H9.51563V26.25H1.8125V24.5ZM10.4219 24.0625V20.825C10.4219 19.5562 10.875 18.375 11.6453 17.4125C12.4609 18.025 13.4578 18.375 14.5 18.375C16.9922 18.375 19.0313 16.4062 19.0313 14C19.0313 11.5938 16.9922 9.625 14.5 9.625C12.2797 9.625 10.3766 11.2 10.0141 13.3L7.70313 15.575V5.20625C9.60626 4.9875 11.1016 3.54375 11.2828 1.75H16.7656C16.9922 3.5875 18.4875 5.03125 20.3453 5.20625V22.75C18.4422 22.9688 16.9469 24.4125 16.7656 26.2063H10.4219V24.0625ZM17.7172 26.25C17.8984 24.8937 19.0313 23.8438 20.3906 23.6687V26.25H17.7172ZM21.2969 21.3062V14.9187L23.3813 2.7125L24.3781 2.975L21.2969 21.3062Z" fill="white"/>
</svg>
